RobotoFlex_YOPQ25.ufo
<glyph name="exclam" format="2">
  <advance width="620"/>
  <unicode hex="0021"/>
  <outline>
    <contour>
      <point x="189" y="97" type="qcurve" smooth="yes"/>
      <point x="189" y="146"/>
      <point x="251" y="216"/>
      <point x="310" y="216" type="qcurve" smooth="yes"/>
      <point x="369" y="216"/>
      <point x="431" y="146"/>
      <point x="431" y="97" type="qcurve" smooth="yes"/>
      <point x="431" y="47"/>
      <point x="369" y="-22"/>
      <point x="310" y="-22" type="qcurve" smooth="yes"/>
      <point x="251" y="-22"/>
      <point x="189" y="47"/>
    </contour>
    <contour>
      <point x="230" y="410" type="line"/>
      <point x="213" y="1456" type="line"/>
      <point x="407" y="1456" type="line"/>
      <point x="392" y="410" type="line"/>
    </contour>
  </outline>
</glyph>
<glyph name="quotedbl" format="2">
  <advance width="760"/>
  <unicode hex="0022"/>
  <outline>
    <contour>
      <point x="165" y="966" type="line"/>
      <point x="100" y="1320" type="line"/>
      <point x="100" y="1456" type="line"/>
      <point x="280" y="1456" type="line"/>
      <point x="280" y="1320" type="line"/>
      <point x="215" y="966" type="line"/>
    </contour>
    <contour>
      <point x="545" y="966" type="line"/>
      <point x="480" y="1320" type="line"/>
      <point x="480" y="1456" type="line"/>
      <point x="660" y="1456" type="line"/>
      <point x="660" y="1320" type="line"/>
      <point x="595" y="966" type="line"/>
    </contour>
  </outline>
</glyph>
<glyph name="asterisk" format="2">
  <advance width="1080"/>
  <unicode hex="002A"/>
  <outline>
    <contour>
      <point x="60" y="1058" type="line"/>
      <point x="117" y="1236" type="line"/>
      <point x="522" y="1017" type="line"/>
      <point x="445" y="1476" type="line"/>
      <point x="635" y="1476" type="line"/>
      <point x="562" y="1016" type="line"/>
      <point x="963" y="1237" type="line"/>
      <point x="1022" y="1056" type="line"/>
      <point x="578" y="985" type="line"/>
      <point x="895" y="670" type="line"/>
      <point x="743" y="560" type="line"/>
      <point x="545" y="960" type="line"/>
      <point x="314" y="581" type="line"/>
      <point x="204" y="651" type="line"/>
      <point x="510" y="984" type="line"/>
    </contour>
  </outline>
</glyph>
<glyph name="comma" format="2">
  <advance width="580"/>
  <unicode hex="002C"/>
  <outline>
    <contour>
      <point x="151" y="-249" type="line"/>
      <point x="204" y="-164"/>
      <point x="211" y="15"/>
      <point x="210" y="96" type="qcurve" smooth="yes"/>
      <point x="210" y="220" type="line"/>
      <point x="390" y="220" type="line"/>
      <point x="390" y="99" type="line" smooth="yes"/>
      <point x="390" y="9"/>
      <point x="295" y="-186"/>
      <point x="175" y="-265" type="qcurve"/>
    </contour>
  </outline>
</glyph>
<glyph name="period" format="2">
  <advance width="580"/>
  <unicode hex="002E"/>
  <outline>
    <contour>
      <point x="205" y="60" type="qcurve" smooth="yes"/>
      <point x="205" y="95"/>
      <point x="249" y="143"/>
      <point x="290" y="143" type="qcurve" smooth="yes"/>
      <point x="331" y="143"/>
      <point x="375" y="95"/>
      <point x="375" y="60" type="qcurve" smooth="yes"/>
      <point x="375" y="25"/>
      <point x="331" y="-23"/>
      <point x="290" y="-23" type="qcurve" smooth="yes"/>
      <point x="249" y="-23"/>
      <point x="205" y="25"/>
    </contour>
  </outline>
</glyph>
<glyph name="slash" format="2">
  <advance width="584"/>
  <unicode hex="002F"/>
  <outline>
    <contour>
      <point x="-50" y="-125" type="line"/>
      <point x="558" y="1456" type="line"/>
      <point x="634" y="1456" type="line"/>
      <point x="26" y="-125" type="line"/>
    </contour>
  </outline>
</glyph>
<glyph name="five" format="2">
  <advance width="1156"/>
  <unicode hex="0035"/>
  <outline>
    <contour>
      <point x="100" y="365" type="qcurve" smooth="yes"/>
      <point x="100" y="375" type="line"/>
      <point x="284" y="375" type="line"/>
      <point x="284" y="365" type="line" smooth="yes"/>
      <point x="284" y="205"/>
      <point x="440" y="20"/>
      <point x="570" y="20" type="qcurve" smooth="yes"/>
      <point x="700" y="20"/>
      <point x="866" y="253.7240356083"/>
      <point x="866" y="465" type="qcurve" smooth="yes"/>
      <point x="866" y="654.756097561"/>
      <point x="700" y="854"/>
      <point x="570" y="854" type="qcurve" smooth="yes"/>
      <point x="480" y="854"/>
      <point x="313" y="759"/>
      <point x="266" y="684" type="qcurve"/>
      <point x="180" y="720" type="line"/>
      <point x="254" y="1456" type="line"/>
      <point x="980" y="1456" type="line"/>
      <point x="980" y="1288" type="line"/>
      <point x="315" y="1288" type="line"/>
      <point x="251" y="751" type="line"/>
      <point x="301" y="806"/>
      <point x="481" y="904"/>
      <point x="600" y="904" type="qcurve" smooth="yes"/>
      <point x="790" y="904"/>
      <point x="1056" y="672.3305954825"/>
      <point x="1056" y="465" type="qcurve" smooth="yes"/>
      <point x="1056" y="235"/>
      <point x="780" y="-30"/>
      <point x="570" y="-30" type="qcurve" smooth="yes"/>
      <point x="360" y="-30"/>
      <point x="100" y="195"/>
    </contour>
  </outline>
</glyph>
<glyph name="nine" format="2">
  <advance width="1156"/>
  <unicode hex="0039"/>
  <outline>
    <contour>
      <point x="72" y="1002" type="qcurve" smooth="yes"/>
      <point x="72" y="1218"/>
      <point x="346" y="1486"/>
      <point x="556" y="1486" type="qcurve" smooth="yes"/>
      <point x="766" y="1486"/>
      <point x="1068" y="1182"/>
      <point x="1068" y="842" type="qcurve" smooth="yes"/>
      <point x="1068" y="812" type="line" smooth="yes"/>
      <point x="1068" y="426"/>
      <point x="656" y="-30"/>
      <point x="276" y="-30" type="qcurve" smooth="yes"/>
      <point x="256" y="-30" type="line"/>
      <point x="256" y="20" type="line"/>
      <point x="276" y="20" type="line" smooth="yes"/>
      <point x="556" y="20"/>
      <point x="880" y="436"/>
      <point x="880" y="802" type="qcurve" smooth="yes"/>
      <point x="880" y="852" type="line" smooth="yes"/>
      <point x="880" y="1171"/>
      <point x="696" y="1436"/>
      <point x="556" y="1436" type="qcurve" smooth="yes"/>
      <point x="416" y="1436"/>
      <point x="262" y="1208.2477477477"/>
      <point x="262" y="1002" type="qcurve" smooth="yes"/>
      <point x="262" y="813.8009950249"/>
      <point x="416" y="610"/>
      <point x="556" y="610" type="qcurve" smooth="yes"/>
      <point x="686" y="610"/>
      <point x="886" y="840.1293532338"/>
      <point x="886" y="1002" type="qcurve"/>
      <point x="956" y="1002" type="line"/>
      <point x="956" y="810.3362831858"/>
      <point x="716" y="560"/>
      <point x="516" y="560" type="qcurve" smooth="yes"/>
      <point x="317" y="560"/>
      <point x="72" y="804"/>
    </contour>
  </outline>
</glyph>
<glyph name="equal" format="2">
  <advance width="1024"/>
  <unicode hex="003D"/>
  <outline>
    <contour>
      <point x="57" y="441" type="line"/>
      <point x="57" y="490" type="line"/>
      <point x="967" y="490" type="line"/>
      <point x="967" y="441" type="line"/>
    </contour>
    <contour>
      <point x="57" y="836" type="line"/>
      <point x="57" y="885" type="line"/>
      <point x="967" y="885" type="line"/>
      <point x="967" y="836" type="line"/>
    </contour>
  </outline>
</glyph>
<glyph name="greater" format="2">
  <advance width="1024"/>
  <unicode hex="003E"/>
  <outline>
    <contour>
      <point x="106" y="301" type="line"/>
      <point x="106" y="350" type="line"/>
      <point x="784" y="623" type="line"/>
      <point x="106" y="923" type="line"/>
      <point x="106" y="1126" type="line"/>
      <point x="924" y="722" type="line"/>
      <point x="924" y="628" type="line"/>
    </contour>
  </outline>
</glyph>
<glyph name="question" format="2">
  <advance width="968"/>
  <unicode hex="003F"/>
  <outline>
    <contour>
      <point x="320.0" y="98" type="qcurve" smooth="yes"/>
      <point x="320.0" y="148"/>
      <point x="384.0" y="218"/>
      <point x="444.0" y="218" type="qcurve" smooth="yes"/>
      <point x="504.0" y="218"/>
      <point x="568.0" y="148"/>
      <point x="568.0" y="98" type="qcurve" smooth="yes"/>
      <point x="568.0" y="48"/>
      <point x="504.0" y="-22"/>
      <point x="444.0" y="-22" type="qcurve" smooth="yes"/>
      <point x="384.0" y="-22"/>
      <point x="320.0" y="48"/>
    </contour>
    <contour>
      <point x="60" y="1095" type="line"/>
      <point x="60" y="1115" type="line" smooth="yes"/>
      <point x="60" y="1280"/>
      <point x="280" y="1476"/>
      <point x="470" y="1476" type="qcurve" smooth="yes"/>
      <point x="660" y="1476"/>
      <point x="874" y="1290"/>
      <point x="874" y="1150" type="qcurve" smooth="yes"/>
      <point x="874" y="1024"/>
      <point x="712" y="853"/>
      <point x="596" y="762" type="qcurve" smooth="yes"/>
      <point x="524" y="706"/>
      <point x="478.0" y="534"/>
      <point x="478" y="420" type="qcurve" smooth="yes"/>
      <point x="478" y="410" type="line"/>
      <point x="392" y="410" type="line"/>
      <point x="392" y="420" type="line" smooth="yes"/>
      <point x="392.0" y="559.0"/>
      <point x="457" y="732"/>
      <point x="533" y="810" type="qcurve" smooth="yes"/>
      <point x="606" y="885"/>
      <point x="688" y="1030"/>
      <point x="688" y="1150" type="qcurve" smooth="yes"/>
      <point x="688" y="1270"/>
      <point x="580" y="1426"/>
      <point x="470" y="1426" type="qcurve" smooth="yes"/>
      <point x="360" y="1426"/>
      <point x="245" y="1263"/>
      <point x="245" y="1115" type="qcurve" smooth="yes"/>
      <point x="245" y="1095" type="line"/>
    </contour>
  </outline>
</glyph>
<glyph name="C" format="2">
  <advance width="1359"/>
  <unicode hex="0043"/>
  <outline>
    <contour>
      <point x="115" y="682" type="qcurve" smooth="yes"/>
      <point x="115" y="774" type="line" smooth="yes"/>
      <point x="115" y="1110"/>
      <point x="460" y="1486"/>
      <point x="720" y="1486" type="qcurve" smooth="yes"/>
      <point x="980" y="1486"/>
      <point x="1257" y="1222"/>
      <point x="1274" y="1050" type="qcurve" smooth="yes"/>
      <point x="1275" y="1040" type="line"/>
      <point x="1083" y="1040" type="line"/>
      <point x="1082" y="1050" type="line" smooth="yes"/>
      <point x="1067" y="1195"/>
      <point x="900" y="1436"/>
      <point x="720" y="1436" type="qcurve" smooth="yes"/>
      <point x="540" y="1436"/>
      <point x="309" y="1084"/>
      <point x="309" y="774" type="qcurve" smooth="yes"/>
      <point x="309" y="682" type="line" smooth="yes"/>
      <point x="309" y="372"/>
      <point x="540" y="20"/>
      <point x="720" y="20" type="qcurve" smooth="yes"/>
      <point x="900" y="20"/>
      <point x="1074" y="244"/>
      <point x="1082" y="406" type="qcurve" smooth="yes"/>
      <point x="1083" y="416" type="line"/>
      <point x="1275" y="416" type="line"/>
      <point x="1274" y="406" type="line" smooth="yes"/>
      <point x="1254" y="206"/>
      <point x="980" y="-30"/>
      <point x="720" y="-30" type="qcurve" smooth="yes"/>
      <point x="460" y="-30"/>
      <point x="115" y="346"/>
    </contour>
  </outline>
</glyph>
<glyph name="N" format="2">
  <advance width="1460"/>
  <unicode hex="004E"/>
  <anchor x="730.0" y="0" name="bottom"/>
  <anchor x="730.0" y="1456" name="top"/>
  <outline>
    <contour>
      <point x="230" y="0.0" type="line"/>
      <point x="230" y="1456.0" type="line"/>
      <point x="310" y="1456.0" type="line"/>
      <point x="1089" y="406.0" type="line" smooth="yes"/>
      <point x="1112" y="376"/>
      <point x="1146" y="316.0"/>
      <point x="1160" y="291.0" type="qcurve"/>
      <point x="1170" y="291.0" type="line"/>
      <point x="1166" y="321.0"/>
      <point x="1162.0" y="396.0"/>
      <point x="1162" y="426.0" type="qcurve" smooth="yes"/>
      <point x="1162" y="1456.0" type="line"/>
      <point x="1230" y="1456.0" type="line"/>
      <point x="1230" y="0.0" type="line"/>
      <point x="1150" y="0.0" type="line"/>
      <point x="371" y="1050.0" type="line" smooth="yes"/>
      <point x="348" y="1080"/>
      <point x="314" y="1140.0"/>
      <point x="300" y="1165.0" type="qcurve"/>
      <point x="290" y="1165.0" type="line"/>
      <point x="294" y="1135.0"/>
      <point x="298.0" y="1060.0"/>
      <point x="298" y="1030.0" type="qcurve" smooth="yes"/>
      <point x="298" y="0.0" type="line"/>
    </contour>
  </outline>
</glyph>
<glyph name="S" format="2">
  <advance width="1220"/>
  <unicode hex="0053"/>
  <anchor x="610.0" y="0" name="bottom"/>
  <anchor x="610.0" y="1456" name="top"/>
  <outline>
    <contour>
      <point x="90" y="346" type="qcurve" smooth="yes"/>
      <point x="90" y="359" type="line"/>
      <point x="282" y="359" type="line"/>
      <point x="282" y="338" type="line" smooth="yes"/>
      <point x="282" y="165"/>
      <point x="460" y="20"/>
      <point x="620" y="20" type="qcurve" smooth="yes"/>
      <point x="780" y="20"/>
      <point x="950" y="189"/>
      <point x="950" y="329" type="qcurve" smooth="yes"/>
      <point x="950" y="462"/>
      <point x="794" y="599"/>
      <point x="554" y="667" type="qcurve" smooth="yes"/>
      <point x="318" y="734"/>
      <point x="120" y="920"/>
      <point x="120" y="1090" type="qcurve" smooth="yes"/>
      <point x="120" y="1260"/>
      <point x="380" y="1486"/>
      <point x="610" y="1486" type="qcurve" smooth="yes"/>
      <point x="840" y="1486"/>
      <point x="1112" y="1287"/>
      <point x="1112" y="1115" type="qcurve" smooth="yes"/>
      <point x="1112" y="1101" type="line"/>
      <point x="920" y="1101" type="line"/>
      <point x="920" y="1156" type="line" smooth="yes"/>
      <point x="920" y="1309"/>
      <point x="764" y="1436"/>
      <point x="610" y="1436" type="qcurve" smooth="yes"/>
      <point x="471" y="1436"/>
      <point x="290" y="1286"/>
      <point x="290" y="1159" type="qcurve" smooth="yes"/>
      <point x="290" y="1028"/>
      <point x="459" y="892"/>
      <point x="693" y="825" type="qcurve" smooth="yes"/>
      <point x="928" y="758"/>
      <point x="1139" y="561"/>
      <point x="1139" y="379" type="qcurve" smooth="yes"/>
      <point x="1139" y="199"/>
      <point x="860" y="-30"/>
      <point x="620" y="-30" type="qcurve" smooth="yes"/>
      <point x="380" y="-30"/>
      <point x="90" y="150"/>
    </contour>
  </outline>
</glyph>
<glyph name="V" format="2">
  <advance width="1260"/>
  <unicode hex="0056"/>
  <anchor x="630.0" y="0" name="bottom"/>
  <anchor x="630.0" y="1456" name="top"/>
  <outline>
    <contour>
      <point x="0" y="1456" type="line"/>
      <point x="204" y="1456" type="line"/>
      <point x="591" y="377" type="line" smooth="yes"/>
      <point x="624" y="284"/>
      <point x="658" y="154"/>
      <point x="665" y="121" type="qcurve"/>
      <point x="675" y="121" type="line"/>
      <point x="682" y="154"/>
      <point x="699" y="215"/>
      <point x="712" y="249" type="qcurve" smooth="yes"/>
      <point x="1164" y="1456" type="line"/>
      <point x="1240" y="1456" type="line"/>
      <point x="696" y="-10" type="line"/>
      <point x="544" y="-10" type="line"/>
    </contour>
  </outline>
</glyph>
<glyph name="W" format="2">
  <advance width="1812"/>
  <unicode hex="0057"/>
  <anchor x="906.0" y="0" name="bottom"/>
  <anchor x="906.0" y="1456" name="top"/>
  <outline>
    <contour>
      <point x="408" y="-10" type="line"/>
      <point x="50" y="1456" type="line"/>
      <point x="244" y="1456" type="line"/>
      <point x="491" y="380" type="line" smooth="yes"/>
      <point x="508" y="305"/>
      <point x="536" y="178"/>
      <point x="539" y="145" type="qcurve"/>
      <point x="545" y="145" type="line"/>
      <point x="548" y="178"/>
      <point x="563" y="239"/>
      <point x="571" y="273" type="qcurve" smooth="yes"/>
      <point x="852" y="1456" type="line"/>
      <point x="1004" y="1456" type="line"/>
      <point x="1285" y="378" type="line" smooth="yes"/>
      <point x="1321" y="240"/>
      <point x="1341" y="158"/>
      <point x="1344" y="125" type="qcurve"/>
      <point x="1350" y="125" type="line"/>
      <point x="1353" y="158"/>
      <point x="1368" y="239"/>
      <point x="1376" y="273" type="qcurve" smooth="yes"/>
      <point x="1660" y="1456" type="line"/>
      <point x="1732" y="1456" type="line"/>
      <point x="1374" y="-10" type="line"/>
      <point x="1218" y="-10" type="line"/>
      <point x="908" y="1184" type="line" smooth="yes"/>
      <point x="899" y="1218"/>
      <point x="887" y="1279"/>
      <point x="884" y="1312" type="qcurve"/>
      <point x="878" y="1312" type="line"/>
      <point x="875" y="1279"/>
      <point x="865" y="1218"/>
      <point x="857" y="1184" type="qcurve" smooth="yes"/>
      <point x="566" y="-10" type="line"/>
    </contour>
  </outline>
</glyph>
<glyph name="Y" format="2">
  <advance width="1228"/>
  <unicode hex="0059"/>
  <outline>
    <contour>
      <point x="518" y="0" type="line"/>
      <point x="518" y="541" type="line"/>
      <point x="15" y="1456" type="line"/>
      <point x="231" y="1456" type="line"/>
      <point x="622" y="699" type="line" smooth="yes"/>
      <point x="638" y="668"/>
      <point x="657" y="630"/>
      <point x="668" y="600" type="qcurve"/>
      <point x="674" y="600" type="line"/>
      <point x="685" y="630"/>
      <point x="721" y="689"/>
      <point x="737" y="718" type="qcurve" smooth="yes"/>
      <point x="1150" y="1456" type="line"/>
      <point x="1213" y="1456" type="line"/>
      <point x="710" y="545" type="line"/>
      <point x="710" y="0" type="line"/>
    </contour>
  </outline>
</glyph>
<glyph name="Z" format="2">
  <advance width="1190"/>
  <unicode hex="005A"/>
  <outline>
    <contour>
      <point x="65" y="0" type="line"/>
      <point x="65" y="139" type="line"/>
      <point x="936" y="1406" type="line"/>
      <point x="77" y="1406" type="line"/>
      <point x="77" y="1456" type="line"/>
      <point x="1092" y="1456" type="line"/>
      <point x="1092" y="1315" type="line"/>
      <point x="221" y="50" type="line"/>
      <point x="1124" y="50" type="line"/>
      <point x="1124" y="0" type="line"/>
    </contour>
  </outline>
</glyph>
<glyph name="asciicircum" format="2">
  <advance width="1170"/>
  <unicode hex="005E"/>
  <outline>
    <contour>
      <point x="33" y="720" type="line"/>
      <point x="500" y="1456" type="line"/>
      <point x="670" y="1456" type="line"/>
      <point x="1147" y="720" type="line"/>
      <point x="945" y="720" type="line"/>
      <point x="585" y="1293" type="line"/>
      <point x="227" y="720" type="line"/>
    </contour>
  </outline>
</glyph>
<glyph name="h" format="2">
  <advance width="1138"/>
  <unicode hex="0068"/>
  <outline>
    <contour>
      <point x="148" y="0" type="line"/>
      <point x="148" y="1536" type="line"/>
      <point x="334" y="1536" type="line"/>
      <point x="334" y="922" type="line"/>
      <point x="389" y="999"/>
      <point x="552" y="1072"/>
      <point x="652" y="1072" type="qcurve" smooth="yes"/>
      <point x="811" y="1072"/>
      <point x="1000" y="937"/>
      <point x="1000" y="779" type="qcurve" smooth="yes"/>
      <point x="1000" y="0" type="line"/>
      <point x="814" y="0" type="line"/>
      <point x="814" y="781" type="line" smooth="yes"/>
      <point x="814" y="910"/>
      <point x="701" y="1022"/>
      <point x="597" y="1022" type="qcurve" smooth="yes"/>
      <point x="508" y="1022"/>
      <point x="362" y="900"/>
      <point x="334" y="814" type="qcurve"/>
      <point x="334" y="0" type="line"/>
    </contour>
  </outline>
</glyph>
<glyph name="i" format="2">
  <advance width="500"/>
  <unicode hex="0069"/>
  <anchor x="250.0" y="0" name="bottom"/>
  <anchor x="250.0" y="1052" name="top"/>
  <anchor x="217" y="0" name="ogonek"/>
  <outline>
    <contour>
      <point x="157" y="0" type="line"/>
      <point x="157" y="1052" type="line"/>
      <point x="343" y="1052" type="line"/>
      <point x="343" y="0" type="line"/>
    </contour>
    <contour>
      <point x="140.0" y="1368" type="qcurve" smooth="yes"/>
      <point x="140.0" y="1413"/>
      <point x="197.0" y="1476"/>
      <point x="250.0" y="1476" type="qcurve" smooth="yes"/>
      <point x="303.0" y="1476"/>
      <point x="360.0" y="1413"/>
      <point x="360.0" y="1368" type="qcurve" smooth="yes"/>
      <point x="360.0" y="1322"/>
      <point x="303.0" y="1259"/>
      <point x="250.0" y="1259" type="qcurve" smooth="yes"/>
      <point x="197.0" y="1259"/>
      <point x="140.0" y="1322"/>
    </contour>
  </outline>
</glyph>
<glyph name="j" format="2">
  <advance width="500"/>
  <unicode hex="006A"/>
  <anchor x="250.0" y="-436" name="bottom"/>
  <anchor x="250.0" y="1052" name="top"/>
  <outline>
    <contour>
      <point x="-94" y="-416" type="qcurve"/>
      <point x="-94" y="-368" type="line"/>
      <point x="-74" y="-373"/>
      <point x="0" y="-386"/>
      <point x="30" y="-386" type="qcurve" smooth="yes"/>
      <point x="90" y="-386"/>
      <point x="157" y="-266.5333333333"/>
      <point x="157" y="-130" type="qcurve" smooth="yes"/>
      <point x="157" y="1052" type="line"/>
      <point x="343" y="1052" type="line"/>
      <point x="343" y="-90" type="line" smooth="yes"/>
      <point x="343" y="-270"/>
      <point x="204" y="-436"/>
      <point x="70" y="-436" type="qcurve" smooth="yes"/>
      <point x="30" y="-436"/>
      <point x="-69" y="-422.3361521695"/>
    </contour>
    <contour>
      <point x="135.0" y="1370" type="qcurve" smooth="yes"/>
      <point x="135.0" y="1417"/>
      <point x="195.0" y="1482"/>
      <point x="250.0" y="1482" type="qcurve" smooth="yes"/>
      <point x="307.0" y="1482"/>
      <point x="366.0" y="1417"/>
      <point x="366.0" y="1370" type="qcurve" smooth="yes"/>
      <point x="366.0" y="1323"/>
      <point x="307.0" y="1259"/>
      <point x="250.0" y="1259" type="qcurve" smooth="yes"/>
      <point x="195.0" y="1259"/>
      <point x="135.0" y="1323"/>
    </contour>
  </outline>
</glyph>
<glyph name="k" format="2">
  <advance width="1028"/>
  <unicode hex="006B"/>
  <outline>
    <contour>
      <point x="148" y="0" type="line"/>
      <point x="148" y="1536" type="line"/>
      <point x="334" y="1536" type="line"/>
      <point x="334" y="473" type="line"/>
      <point x="874" y="1052" type="line"/>
      <point x="959" y="1052" type="line"/>
      <point x="334" y="391" type="line"/>
      <point x="334" y="0" type="line"/>
    </contour>
    <contour>
      <point x="824" y="0" type="line"/>
      <point x="428" y="529" type="line"/>
      <point x="547" y="646" type="line"/>
      <point x="1044" y="0" type="line"/>
    </contour>
  </outline>
</glyph>
<glyph name="r" format="2">
  <advance width="700"/>
  <unicode hex="0072"/>
  <outline>
    <contour>
      <point x="148" y="0" type="line"/>
      <point x="148" y="1052" type="line"/>
      <point x="316" y="1052" type="line"/>
      <point x="324" y="897" type="line"/>
      <point x="330" y="897" type="line"/>
      <point x="363" y="982"/>
      <point x="500" y="1082"/>
      <point x="590" y="1082" type="qcurve" smooth="yes"/>
      <point x="612" y="1082"/>
      <point x="660" y="1072"/>
      <point x="670" y="1068" type="qcurve"/>
      <point x="670" y="1020" type="line"/>
      <point x="650" y="1024"/>
      <point x="606" y="1032"/>
      <point x="580" y="1032" type="qcurve" smooth="yes"/>
      <point x="490" y="1032"/>
      <point x="358" y="855"/>
      <point x="334" y="760" type="qcurve"/>
      <point x="334" y="0" type="line"/>
    </contour>
  </outline>
</glyph>
<glyph name="u" format="2">
  <advance width="1138"/>
  <unicode hex="0075"/>
  <outline>
    <contour>
      <point x="138" y="373" type="qcurve" smooth="yes"/>
      <point x="138" y="1052" type="line"/>
      <point x="324" y="1052" type="line"/>
      <point x="324.0" y="292" type="line" smooth="yes"/>
      <point x="324.0" y="148"/>
      <point x="437" y="30"/>
      <point x="541" y="30" type="qcurve" smooth="yes"/>
      <point x="630" y="30"/>
      <point x="772" y="169"/>
      <point x="804" y="258" type="qcurve"/>
      <point x="804" y="1052" type="line"/>
      <point x="990" y="1052" type="line"/>
      <point x="990" y="0" type="line"/>
      <point x="822" y="0" type="line"/>
      <point x="814" y="125" type="line"/>
      <point x="808" y="125" type="line"/>
      <point x="749" y="58"/>
      <point x="586" y="-20"/>
      <point x="486" y="-20" type="qcurve" smooth="yes"/>
      <point x="327" y="-20"/>
      <point x="138" y="164.0"/>
    </contour>
  </outline>
</glyph>
<glyph name="v" format="2">
  <advance width="942"/>
  <unicode hex="0076"/>
  <outline>
    <contour>
      <point x="0" y="1052" type="line"/>
      <point x="180" y="1052" type="line"/>
      <point x="459" y="280" type="line" smooth="yes"/>
      <point x="473" y="240"/>
      <point x="514" y="110"/>
      <point x="522" y="73" type="qcurve"/>
      <point x="528" y="73" type="line"/>
      <point x="536" y="110"/>
      <point x="580" y="240"/>
      <point x="594" y="278" type="qcurve" smooth="yes"/>
      <point x="882" y="1052" type="line"/>
      <point x="942" y="1052" type="line"/>
      <point x="542" y="0" type="line"/>
      <point x="400" y="0" type="line"/>
    </contour>
  </outline>
</glyph>
<glyph name="w" format="2">
  <advance width="1546"/>
  <unicode hex="0077"/>
  <outline>
    <contour>
      <point x="25" y="1052" type="line"/>
      <point x="205" y="1052" type="line"/>
      <point x="423" y="274" type="line" smooth="yes"/>
      <point x="434" y="234"/>
      <point x="460" y="138"/>
      <point x="468" y="98" type="qcurve"/>
      <point x="474" y="98" type="line"/>
      <point x="486" y="138"/>
      <point x="517" y="234"/>
      <point x="530" y="274" type="qcurve" smooth="yes"/>
      <point x="785" y="1052" type="line"/>
      <point x="856" y="1052" type="line"/>
      <point x="1120" y="279" type="line" smooth="yes"/>
      <point x="1134" y="239"/>
      <point x="1164" y="137"/>
      <point x="1172" y="97" type="qcurve"/>
      <point x="1178" y="97" type="line"/>
      <point x="1188" y="137"/>
      <point x="1217" y="239"/>
      <point x="1229" y="279" type="qcurve" smooth="yes"/>
      <point x="1463" y="1052" type="line"/>
      <point x="1521" y="1052" type="line"/>
      <point x="1196" y="0" type="line"/>
      <point x="1051" y="0" type="line"/>
      <point x="822" y="680" type="line" smooth="yes"/>
      <point x="809" y="720"/>
      <point x="786" y="800"/>
      <point x="776" y="840" type="qcurve"/>
      <point x="770" y="840" type="line"/>
      <point x="760" y="800"/>
      <point x="737" y="720"/>
      <point x="724" y="680" type="qcurve" smooth="yes"/>
      <point x="495" y="0" type="line"/>
      <point x="350" y="0" type="line"/>
    </contour>
  </outline>
</glyph>
<glyph name="x" format="2">
  <advance width="978"/>
  <unicode hex="0078"/>
  <outline>
    <contour>
      <point x="70" y="0" type="line"/>
      <point x="472" y="551" type="line"/>
      <point x="481" y="551" type="line"/>
      <point x="823" y="1052" type="line"/>
      <point x="888" y="1052" type="line"/>
      <point x="517" y="517" type="line"/>
      <point x="506" y="517" type="line"/>
      <point x="135" y="0" type="line"/>
    </contour>
    <contour>
      <point x="40" y="1052" type="line"/>
      <point x="253" y="1052" type="line"/>
      <point x="550" y="582" type="line"/>
      <point x="558" y="582" type="line"/>
      <point x="958" y="0" type="line"/>
      <point x="745" y="0" type="line"/>
      <point x="428" y="484" type="line"/>
      <point x="420" y="484" type="line"/>
    </contour>
  </outline>
</glyph>
<glyph name="y" format="2">
  <advance width="942"/>
  <unicode hex="0079"/>
  <outline>
    <contour>
      <point x="50" y="-416" type="qcurve"/>
      <point x="50" y="-366" type="line"/>
      <point x="76" y="-374"/>
      <point x="140" y="-386"/>
      <point x="170" y="-386" type="qcurve" smooth="yes"/>
      <point x="265" y="-386"/>
      <point x="371" y="-278"/>
      <point x="438" y="-90" type="qcurve"/>
      <point x="438" y="-89" type="line"/>
      <point x="10" y="1052" type="line"/>
      <point x="190" y="1052" type="line"/>
      <point x="438" y="360" type="line" smooth="yes"/>
      <point x="460" y="299"/>
      <point x="515" y="121"/>
      <point x="519" y="81" type="qcurve"/>
      <point x="525" y="81" type="line"/>
      <point x="534" y="121"/>
      <point x="605" y="320"/>
      <point x="618" y="359" type="qcurve" smooth="yes"/>
      <point x="856" y="1052" type="line"/>
      <point x="912" y="1052" type="line"/>
      <point x="485" y="-140" type="line" smooth="yes"/>
      <point x="435" y="-276"/>
      <point x="300" y="-436"/>
      <point x="180" y="-436" type="qcurve" smooth="yes"/>
      <point x="140" y="-436"/>
      <point x="78" y="-425"/>
    </contour>
  </outline>
</glyph>
<glyph name="asciitilde" format="2">
  <advance width="1024"/>
  <unicode hex="007E"/>
  <outline>
    <contour>
      <point x="45" y="582" type="qcurve"/>
      <point x="45" y="637" type="line"/>
      <point x="79" y="730"/>
      <point x="224" y="841"/>
      <point x="289" y="843" type="qcurve" smooth="yes"/>
      <point x="368" y="844"/>
      <point x="460" y="801"/>
      <point x="523" y="770" type="qcurve" smooth="yes"/>
      <point x="582" y="740"/>
      <point x="667" y="681"/>
      <point x="741" y="681" type="qcurve" smooth="yes"/>
      <point x="806" y="681"/>
      <point x="931" y="741"/>
      <point x="978" y="797" type="qcurve"/>
      <point x="978" y="728" type="line"/>
      <point x="948" y="642"/>
      <point x="807" y="517"/>
      <point x="742" y="517" type="qcurve" smooth="yes"/>
      <point x="668" y="517"/>
      <point x="583" y="556"/>
      <point x="524" y="586" type="qcurve" smooth="yes"/>
      <point x="461" y="617"/>
      <point x="368" y="679"/>
      <point x="289" y="679" type="qcurve" smooth="yes"/>
      <point x="224" y="679"/>
      <point x="92" y="619"/>
    </contour>
  </outline>
</glyph>
<glyph name="yen" format="2">
  <advance width="1056"/>
  <unicode hex="00A5"/>
  <outline>
    <contour>
      <point x="59" y="361" type="line"/>
      <point x="59" y="420" type="line"/>
      <point x="1005" y="420" type="line"/>
      <point x="1005" y="361" type="line"/>
    </contour>
    <contour>
      <point x="59" y="638" type="line"/>
      <point x="59" y="692" type="line"/>
      <point x="425" y="692" type="line"/>
      <point x="478" y="639" type="line"/>
      <point x="587" y="639" type="line"/>
      <point x="635" y="692" type="line"/>
      <point x="1005" y="692" type="line"/>
      <point x="1005" y="638" type="line"/>
    </contour>
    <contour>
      <point x="436" y="0" type="line"/>
      <point x="436" y="548" type="line"/>
      <point x="-19" y="1456" type="line"/>
      <point x="190" y="1456" type="line"/>
      <point x="466" y="849" type="line" smooth="yes"/>
      <point x="480" y="819"/>
      <point x="535" y="696"/>
      <point x="542" y="659" type="qcurve"/>
      <point x="592" y="659" type="line"/>
      <point x="615" y="716"/>
      <point x="655" y="819"/>
      <point x="668" y="849" type="qcurve" smooth="yes"/>
      <point x="924" y="1456" type="line"/>
      <point x="1025" y="1456" type="line"/>
      <point x="620" y="548" type="line"/>
      <point x="620" y="0" type="line"/>
    </contour>
  </outline>
</glyph>
<glyph name="section" format="2">
  <advance width="1256"/>
  <unicode hex="00A7"/>
  <guideline x="0" y="1658" angle="0" identifier="QzZ5gIiCyn"/>
  <guideline x="0" y="578" angle="0" identifier="9Hxjf2sdFw"/>
  <outline>
    <contour>
      <point x="691.0" y="136" type="qcurve"/>
      <point x="691.0" y="243" type="line"/>
      <point x="801.0" y="243"/>
      <point x="954.0" y="351"/>
      <point x="954.0" y="450" type="qcurve"/>
      <point x="954.0" y="556"/>
      <point x="787" y="672"/>
      <point x="606" y="734" type="qcurve" smooth="yes"/>
      <point x="413" y="794"/>
      <point x="196" y="949"/>
      <point x="196" y="1129" type="qcurve" smooth="yes"/>
      <point x="196" y="1305"/>
      <point x="421" y="1490"/>
      <point x="623" y="1491" type="qcurve" smooth="yes"/>
      <point x="816" y="1492"/>
      <point x="1040" y="1294"/>
      <point x="1039" y="1100" type="qcurve"/>
      <point x="874" y="1100" type="line"/>
      <point x="875" y="1290"/>
      <point x="744" y="1427"/>
      <point x="623" y="1427" type="qcurve" smooth="yes"/>
      <point x="483" y="1427"/>
      <point x="361" y="1290"/>
      <point x="361.0" y="1193" type="qcurve" smooth="yes"/>
      <point x="361" y="1079"/>
      <point x="484" y="961"/>
      <point x="684" y="897" type="qcurve" smooth="yes"/>
      <point x="868" y="839"/>
      <point x="1135.0" y="652"/>
      <point x="1135.0" y="490" type="qcurve" smooth="yes"/>
      <point x="1135.0" y="337"/>
      <point x="870.0" y="136"/>
    </contour>
    <contour>
      <point x="537.0" y="895" type="qcurve"/>
      <point x="536.0" y="801" type="line"/>
      <point x="425.0" y="801"/>
      <point x="301.0" y="670"/>
      <point x="301.0" y="577" type="qcurve" smooth="yes"/>
      <point x="301.0" y="487"/>
      <point x="447" y="387"/>
      <point x="636" y="317" type="qcurve" smooth="yes"/>
      <point x="812" y="252"/>
      <point x="1048" y="66"/>
      <point x="1048" y="-113" type="qcurve" smooth="yes"/>
      <point x="1048" y="-298"/>
      <point x="794" y="-509"/>
      <point x="599" y="-509" type="qcurve" smooth="yes"/>
      <point x="404" y="-509"/>
      <point x="131" y="-303"/>
      <point x="131" y="-72" type="qcurve"/>
      <point x="295" y="-70" type="line"/>
      <point x="296" y="-296"/>
      <point x="472" y="-445"/>
      <point x="599" y="-445" type="qcurve" smooth="yes"/>
      <point x="726.0" y="-445.0"/>
      <point x="884" y="-314"/>
      <point x="884.0" y="-172" type="qcurve" smooth="yes"/>
      <point x="884" y="-35"/>
      <point x="742" y="94"/>
      <point x="540" y="161" type="qcurve" smooth="yes"/>
      <point x="355" y="222"/>
      <point x="119.0" y="420.0"/>
      <point x="119.0" y="561" type="qcurve" smooth="yes"/>
      <point x="119.0" y="696"/>
      <point x="375.0" y="895"/>
    </contour>
  </outline>
</glyph>
<glyph name="logicalnot" format="2">
  <advance width="1024"/>
  <unicode hex="00AC"/>
  <outline>
    <contour>
      <point x="928" y="801" type="line"/>
      <point x="928" y="376" type="line"/>
      <point x="750" y="376" type="line"/>
      <point x="750" y="637" type="line"/>
      <point x="58" y="637" type="line"/>
      <point x="58" y="801" type="line"/>
    </contour>
  </outline>
</glyph>
<glyph name="registered" format="2">
  <advance width="1654"/>
  <unicode hex="00AE"/>
  <outline>
    <contour>
      <point x="38" y="687" type="qcurve" smooth="yes"/>
      <point x="38" y="1039"/>
      <point x="501" y="1469"/>
      <point x="827" y="1469" type="qcurve" smooth="yes"/>
      <point x="1152" y="1469"/>
      <point x="1616" y="1039"/>
      <point x="1616" y="687" type="qcurve" smooth="yes"/>
      <point x="1616" y="337"/>
      <point x="1152" y="-97"/>
      <point x="827" y="-97" type="qcurve" smooth="yes"/>
      <point x="501" y="-97"/>
      <point x="38" y="337"/>
    </contour>
    <contour>
      <point x="186" y="687" type="qcurve" smooth="yes"/>
      <point x="186" y="348"/>
      <point x="554" y="-46"/>
      <point x="828" y="-46" type="qcurve" smooth="yes"/>
      <point x="1102" y="-46"/>
      <point x="1469" y="348"/>
      <point x="1469" y="687" type="qcurve" smooth="yes"/>
      <point x="1469.0" y="1026.0"/>
      <point x="1102" y="1417"/>
      <point x="828" y="1417" type="qcurve" smooth="yes"/>
      <point x="554" y="1417.0"/>
      <point x="186" y="1026.0"/>
    </contour>
    <contour>
      <point x="855" y="627" type="line"/>
      <point x="664" y="627" type="line"/>
      <point x="664" y="225" type="line"/>
      <point x="499" y="225" type="line"/>
      <point x="499" y="1158" type="line"/>
      <point x="821" y="1158" type="line" smooth="yes"/>
      <point x="993" y="1158"/>
      <point x="1197" y="1018"/>
      <point x="1197.0" y="893" type="qcurve" smooth="yes"/>
      <point x="1197" y="772"/>
      <point x="1071" y="672"/>
      <point x="979" y="648" type="qcurve"/>
      <point x="1010" y="625"/>
      <point x="1036" y="589"/>
      <point x="1052" y="560" type="qcurve" smooth="yes"/>
      <point x="1221" y="243" type="line"/>
      <point x="1221" y="225" type="line"/>
      <point x="1042" y="225" type="line"/>
    </contour>
    <contour>
      <point x="822.0" y="1070" type="qcurve" smooth="yes"/>
      <point x="664.0" y="1070" type="line"/>
      <point x="664.0" y="707" type="line"/>
      <point x="847.0" y="707" type="line" smooth="yes"/>
      <point x="920.0" y="707"/>
      <point x="1016.0" y="783"/>
      <point x="1016.0" y="870" type="qcurve" smooth="yes"/>
      <point x="1016.0" y="979"/>
      <point x="940.0" y="1069"/>
    </contour>
  </outline>
</glyph>
<glyph name="degree" format="2">
  <advance width="765"/>
  <unicode hex="00B0"/>
  <outline>
    <contour>
      <point x="162" y="1217" type="qcurve"/>
      <point x="162" y="1310"/>
      <point x="294" y="1445"/>
      <point x="386" y="1445" type="qcurve" smooth="yes"/>
      <point x="476" y="1445"/>
      <point x="606" y="1310"/>
      <point x="606" y="1217" type="qcurve" smooth="yes"/>
      <point x="606" y="1124"/>
      <point x="476" y="992"/>
      <point x="386" y="992" type="qcurve" smooth="yes"/>
      <point x="294" y="992"/>
      <point x="162" y="1124"/>
    </contour>
    <contour>
      <point x="227" y="1217" type="qcurve"/>
      <point x="227" y="1150"/>
      <point x="321" y="1060"/>
      <point x="386" y="1060" type="qcurve" smooth="yes"/>
      <point x="452" y="1060"/>
      <point x="541" y="1150"/>
      <point x="541" y="1217" type="qcurve" smooth="yes"/>
      <point x="541" y="1285"/>
      <point x="452" y="1377"/>
      <point x="386" y="1377" type="qcurve" smooth="yes"/>
      <point x="321" y="1377"/>
      <point x="227" y="1285"/>
    </contour>
  </outline>
</glyph>
<glyph name="twosuperior" format="2">
  <advance width="751"/>
  <unicode hex="00B2"/>
  <outline>
    <contour>
      <point x="85" y="697" type="line"/>
      <point x="85" y="775" type="line"/>
      <point x="343" y="1006" type="line" smooth="yes"/>
      <point x="406" y="1063"/>
      <point x="481.0" y="1189"/>
      <point x="481.0" y="1291" type="qcurve" smooth="yes"/>
      <point x="481" y="1367"/>
      <point x="419" y="1427"/>
      <point x="360" y="1427.0" type="qcurve" smooth="yes"/>
      <point x="305" y="1427"/>
      <point x="234" y="1343"/>
      <point x="235" y="1198" type="qcurve"/>
      <point x="67" y="1198" type="line"/>
      <point x="66" y="1329"/>
      <point x="224" y="1487"/>
      <point x="366" y="1487" type="qcurve" smooth="yes"/>
      <point x="500" y="1487"/>
      <point x="652" y="1359"/>
      <point x="652.0" y="1274" type="qcurve" smooth="yes"/>
      <point x="652" y="1171"/>
      <point x="483" y="1009"/>
      <point x="388" y="941" type="qcurve" smooth="yes"/>
      <point x="253" y="845" type="line"/>
      <point x="683" y="845" type="line"/>
      <point x="683" y="697" type="line"/>
    </contour>
  </outline>
</glyph>
<glyph name="cedilla" format="2">
  <advance width="1024"/>
  <unicode hex="00B8"/>
  <outline>
    <contour>
      <point x="470" y="22" type="line"/>
      <point x="535" y="22" type="line"/>
      <point x="511" y="-73" type="line"/>
      <point x="597" y="-82"/>
      <point x="724" y="-159"/>
      <point x="724" y="-246" type="qcurve" smooth="yes"/>
      <point x="724" y="-339"/>
      <point x="550" y="-455"/>
      <point x="348" y="-455" type="qcurve"/>
      <point x="342" y="-390" type="line"/>
      <point x="451" y="-387"/>
      <point x="542" y="-323"/>
      <point x="542.0" y="-250" type="qcurve" smooth="yes"/>
      <point x="542.0" y="-202"/>
      <point x="480" y="-160"/>
      <point x="429" y="-155" type="qcurve"/>
    </contour>
  </outline>
</glyph>
<glyph name="AE" format="2">
  <advance width="1914"/>
  <unicode hex="00C6"/>
  <outline>
    <contour>
      <point x="305" y="438" type="line"/>
      <point x="332" y="488" type="line"/>
      <point x="1035" y="488" type="line"/>
      <point x="1035" y="438" type="line"/>
    </contour>
    <contour>
      <point x="-15" y="0" type="line"/>
      <point x="876" y="1456" type="line"/>
      <point x="1836" y="1456" type="line"/>
      <point x="1836" y="1406" type="line"/>
      <point x="1122" y="1406" type="line"/>
      <point x="1122" y="776" type="line"/>
      <point x="1744" y="776" type="line"/>
      <point x="1744" y="726" type="line"/>
      <point x="1122" y="726" type="line"/>
      <point x="1122" y="50" type="line"/>
      <point x="1846" y="50" type="line"/>
      <point x="1846" y="0" type="line"/>
      <point x="930" y="0" type="line"/>
      <point x="930" y="1408" type="line"/>
      <point x="72" y="0" type="line"/>
    </contour>
  </outline>
</glyph>
<glyph name="Thorn" format="2">
  <advance width="1170"/>
  <unicode hex="00DE"/>
  <guideline x="0" y="901" angle="0" identifier="i9jYwjBDP4"/>
  <guideline x="0" y="555" angle="0" identifier="T8KKW8oxop"/>
  <outline>
    <contour>
      <point x="170" y="1456" type="line"/>
      <point x="355" y="1456" type="line"/>
      <point x="355" y="1113" type="line"/>
      <point x="633" y="1113" type="line" smooth="yes"/>
      <point x="868" y="1113"/>
      <point x="1120" y="935"/>
      <point x="1120" y="738" type="qcurve" smooth="yes"/>
      <point x="1120" y="541"/>
      <point x="868" y="366"/>
      <point x="633" y="365" type="qcurve" smooth="yes"/>
      <point x="355" y="365" type="line"/>
      <point x="355" y="0" type="line"/>
      <point x="170" y="0" type="line"/>
    </contour>
    <contour>
      <point x="633" y="1063" type="qcurve" smooth="yes"/>
      <point x="355" y="1063" type="line"/>
      <point x="355" y="415" type="line"/>
      <point x="633" y="415" type="line" smooth="yes"/>
      <point x="793" y="415"/>
      <point x="935" y="604"/>
      <point x="935" y="736" type="qcurve" smooth="yes"/>
      <point x="935" y="919"/>
      <point x="793" y="1064"/>
    </contour>
  </outline>
</glyph>
<glyph name="germandbls" format="2">
  <advance width="1186"/>
  <unicode hex="00DF"/>
  <outline>
    <contour>
      <point x="332" y="1092" type="qcurve" name="hr00"/>
      <point x="332" y="0" type="line"/>
      <point x="148" y="0" type="line"/>
      <point x="148" y="1092" type="line" smooth="yes"/>
      <point x="148" y="1295"/>
      <point x="356" y="1534"/>
      <point x="555" y="1534" type="qcurve" smooth="yes"/>
      <point x="719" y="1534"/>
      <point x="917" y="1361"/>
      <point x="917.0" y="1246" type="qcurve" smooth="yes"/>
      <point x="917.0" y="1163"/>
      <point x="807" y="1004"/>
      <point x="770" y="963" type="qcurve" smooth="yes"/>
      <point x="751" y="942"/>
      <point x="710" y="891"/>
      <point x="710.0" y="850" type="qcurve" smooth="yes"/>
      <point x="710" y="814"/>
      <point x="852" y="693"/>
      <point x="940" y="627" type="qcurve" smooth="yes"/>
      <point x="1029" y="560"/>
      <point x="1138" y="411"/>
      <point x="1138.0" y="312" type="qcurve" smooth="yes"/>
      <point x="1138.0" y="156"/>
      <point x="920" y="-20"/>
      <point x="753" y="-20" type="qcurve" smooth="yes"/>
      <point x="589" y="-20"/>
      <point x="392" y="129"/>
      <point x="392" y="278" type="qcurve" smooth="yes"/>
      <point x="392" y="304" type="line"/>
      <point x="555" y="304" type="line"/>
      <point x="555" y="235" type="line" smooth="yes"/>
      <point x="555.0" y="131"/>
      <point x="660" y="33"/>
      <point x="762" y="33.0" type="qcurve" smooth="yes"/>
      <point x="856" y="33"/>
      <point x="963.0" y="133.0"/>
      <point x="963.0" y="241" type="qcurve" smooth="yes"/>
      <point x="963" y="349"/>
      <point x="885" y="455"/>
      <point x="802" y="516" type="qcurve" smooth="yes"/>
      <point x="719" y="577"/>
      <point x="562" y="706"/>
      <point x="562.0" y="770" type="qcurve" smooth="yes"/>
      <point x="562.0" y="816"/>
      <point x="615" y="890"/>
      <point x="660" y="946" type="qcurve" smooth="yes"/>
      <point x="709" y="1007"/>
      <point x="742" y="1149"/>
      <point x="742.0" y="1250" type="qcurve" smooth="yes"/>
      <point x="742" y="1374"/>
      <point x="633" y="1473"/>
      <point x="551" y="1473" type="qcurve" smooth="yes"/>
      <point x="448" y="1473"/>
      <point x="332" y="1331"/>
    </contour>
  </outline>
</glyph>
<glyph name="ae" format="2">
  <advance width="1772"/>
  <unicode hex="00E6"/>
  <outline>
    <contour>
      <point x="276" y="280" type="qcurve" smooth="yes"/>
      <point x="276" y="160"/>
      <point x="380" y="30"/>
      <point x="490" y="30" type="qcurve" smooth="yes"/>
      <point x="600" y="30"/>
      <point x="778" y="220"/>
      <point x="778" y="330" type="qcurve"/>
      <point x="778" y="548" type="line"/>
      <point x="560" y="548" type="line" smooth="yes"/>
      <point x="420" y="548"/>
      <point x="276" y="400"/>
    </contour>
    <contour>
      <point x="90" y="280" type="qcurve" smooth="yes"/>
      <point x="90" y="425"/>
      <point x="344" y="598"/>
      <point x="540" y="598" type="qcurve" smooth="yes"/>
      <point x="778" y="598" type="line"/>
      <point x="778" y="720" type="line" smooth="yes"/>
      <point x="778" y="860"/>
      <point x="680" y="1032"/>
      <point x="560" y="1032" type="qcurve" smooth="yes"/>
      <point x="440" y="1032"/>
      <point x="337" y="874"/>
      <point x="337" y="770" type="qcurve" smooth="yes"/>
      <point x="337" y="765" type="line"/>
      <point x="152" y="765" type="line"/>
      <point x="152" y="770" type="line" smooth="yes"/>
      <point x="152" y="900"/>
      <point x="375" y="1082"/>
      <point x="565" y="1082" type="qcurve" smooth="yes"/>
      <point x="690" y="1082"/>
      <point x="865" y="1002"/>
      <point x="899" y="923" type="qcurve"/>
      <point x="951" y="997"/>
      <point x="1135" y="1082"/>
      <point x="1245" y="1082" type="qcurve" smooth="yes"/>
      <point x="1460" y="1082"/>
      <point x="1692" y="800"/>
      <point x="1692" y="560" type="qcurve" smooth="yes"/>
      <point x="1692" y="534" type="line"/>
      <point x="883" y="534" type="line"/>
      <point x="883" y="582" type="line"/>
      <point x="1502" y="582" type="line"/>
      <point x="1502" y="600" type="line"/>
      <point x="1502" y="770"/>
      <point x="1385" y="1032"/>
      <point x="1245" y="1032" type="qcurve" smooth="yes"/>
      <point x="1105" y="1032"/>
      <point x="959" y="750"/>
      <point x="959" y="542" type="qcurve" smooth="yes"/>
      <point x="959" y="510" type="line" smooth="yes"/>
      <point x="959" y="302"/>
      <point x="1113" y="20"/>
      <point x="1275" y="20" type="qcurve" smooth="yes"/>
      <point x="1375" y="20"/>
      <point x="1521" y="160"/>
      <point x="1564" y="269" type="qcurve"/>
      <point x="1683" y="175" type="line"/>
      <point x="1633" y="94"/>
      <point x="1425" y="-30"/>
      <point x="1266" y="-30" type="qcurve" smooth="yes"/>
      <point x="1070" y="-30"/>
      <point x="858" y="125"/>
      <point x="835" y="240" type="qcurve"/>
      <point x="800" y="140"/>
      <point x="580" y="-20"/>
      <point x="450" y="-20" type="qcurve" smooth="yes"/>
      <point x="300" y="-20"/>
      <point x="90" y="130"/>
    </contour>
  </outline>
</glyph>
<glyph name="thorn" format="2">
  <advance width="1170"/>
  <unicode hex="00FE"/>
  <outline>
    <contour>
      <point x="148" y="-416" type="line"/>
      <point x="148" y="1536" type="line"/>
      <point x="334" y="1536" type="line"/>
      <point x="334" y="928" type="line"/>
      <point x="380" y="993"/>
      <point x="535" y="1072"/>
      <point x="645" y="1072" type="qcurve" smooth="yes"/>
      <point x="845" y="1072"/>
      <point x="1085" y="772"/>
      <point x="1085" y="542" type="qcurve" smooth="yes"/>
      <point x="1085" y="510" type="line" smooth="yes"/>
      <point x="1085" y="280"/>
      <point x="845" y="-20"/>
      <point x="645" y="-20" type="qcurve" smooth="yes"/>
      <point x="535" y="-20"/>
      <point x="385" y="57"/>
      <point x="345" y="117" type="qcurve"/>
      <point x="335" y="117" type="line"/>
      <point x="333" y="-416" type="line"/>
    </contour>
    <contour>
      <point x="334.0" y="254" type="line"/>
      <point x="365.0" y="168"/>
      <point x="505.0" y="32"/>
      <point x="605.0" y="32" type="qcurve" smooth="yes"/>
      <point x="755.0" y="32"/>
      <point x="895.0" y="305.0"/>
      <point x="895.0" y="510" type="qcurve" smooth="yes"/>
      <point x="895" y="542" type="line" smooth="yes"/>
      <point x="895.0" y="746"/>
      <point x="755" y="1022"/>
      <point x="605" y="1022" type="qcurve" smooth="yes"/>
      <point x="505" y="1022"/>
      <point x="365" y="907"/>
      <point x="334" y="839" type="qcurve"/>
    </contour>
  </outline>
</glyph>
<glyph name="Schwa" format="2">
  <advance width="1446"/>
  <unicode hex="018F"/>
  <outline>
    <contour>
      <point x="64" y="1199" type="line"/>
      <point x="162" y="1356"/>
      <point x="459" y="1519.0"/>
      <point x="688" y="1519.0" type="qcurve" smooth="yes"/>
      <point x="1002" y="1519"/>
      <point x="1366" y="1094"/>
      <point x="1366" y="789" type="qcurve" smooth="yes"/>
      <point x="1366" y="445"/>
      <point x="982" y="-30"/>
      <point x="692" y="-30" type="qcurve" smooth="yes"/>
      <point x="416" y="-30"/>
      <point x="102" y="281"/>
      <point x="102" y="578" type="qcurve" smooth="yes"/>
      <point x="102" y="656" type="line"/>
      <point x="1228" y="656" type="line"/>
      <point x="1228" y="584" type="line"/>
      <point x="665" y="592" type="line"/>
      <point x="298" y="586" type="line"/>
      <point x="298" y="481" type="line"/>
      <point x="298" y="245"/>
      <point x="503" y="27"/>
      <point x="702" y="27" type="qcurve"/>
      <point x="912" y="27"/>
      <point x="1177" y="392"/>
      <point x="1175" y="749" type="qcurve"/>
      <point x="1173" y="1047"/>
      <point x="856" y="1436"/>
      <point x="647" y="1436" type="qcurve" smooth="yes"/>
      <point x="465" y="1436"/>
      <point x="178" y="1269"/>
      <point x="117" y="1161" type="qcurve"/>
    </contour>
  </outline>
</glyph>
<glyph name="primemod" format="2">
  <advance width="600"/>
  <unicode hex="02B9"/>
  <outline>
    <contour>
      <point x="224" y="1502" type="line"/>
      <point x="413" y="1502" type="line"/>
      <point x="253" y="991.0" type="line"/>
      <point x="205" y="996.0" type="line"/>
    </contour>
  </outline>
</glyph>
<glyph name="commaaccentturned" format="2">
  <advance width="1024"/>
  <unicode hex="02BB"/>
  <outline>
    <contour>
      <point x="697.5799999999999" y="1663.0" type="line"/>
      <point x="689.5799999999999" y="1575.0"/>
      <point x="673.5799999999999" y="1430.0"/>
      <point x="659.5799999999999" y="1291.0" type="qcurve"/>
      <point x="457.5799999999999" y="1289.0" type="line"/>
      <point x="662.5799999999999" y="1666.0" type="line"/>
    </contour>
  </outline>
</glyph>
<glyph name="circumflex" format="2">
  <advance width="1024"/>
  <unicode hex="02C6"/>
  <outline>
    <contour>
      <point x="568" y="1532" type="line"/>
      <point x="816.0" y="1219.0" type="line"/>
      <point x="750" y="1219.0" type="line"/>
      <point x="512" y="1378" type="line"/>
      <point x="277" y="1219.0" type="line"/>
      <point x="211.0" y="1219.0" type="line"/>
      <point x="456" y="1532" type="line"/>
    </contour>
  </outline>
</glyph>
<glyph name="ring" format="2">
  <advance width="1024"/>
  <unicode hex="02DA"/>
  <outline>
    <contour>
      <point x="319" y="1434" type="qcurve"/>
      <point x="319" y="1512"/>
      <point x="430" y="1622"/>
      <point x="512" y="1622" type="qcurve" smooth="yes"/>
      <point x="592" y="1622"/>
      <point x="705" y="1512"/>
      <point x="705" y="1434" type="qcurve" smooth="yes"/>
      <point x="705" y="1356"/>
      <point x="592" y="1250"/>
      <point x="512" y="1250" type="qcurve" smooth="yes"/>
      <point x="430" y="1250"/>
      <point x="319" y="1356"/>
    </contour>
    <contour>
      <point x="376" y="1434" type="qcurve"/>
      <point x="376" y="1382"/>
      <point x="452" y="1300"/>
      <point x="512.0" y="1300" type="qcurve" smooth="yes"/>
      <point x="572" y="1300"/>
      <point x="648" y="1380"/>
      <point x="648" y="1434" type="qcurve" smooth="yes"/>
      <point x="648" y="1488"/>
      <point x="572" y="1572"/>
      <point x="512.0" y="1572" type="qcurve" smooth="yes"/>
      <point x="452" y="1572"/>
      <point x="376" y="1488"/>
    </contour>
  </outline>
</glyph>
<glyph name="ogonek" format="2">
  <advance width="1024"/>
  <unicode hex="02DB"/>
  <outline>
    <contour>
      <point x="548" y="36" type="qcurve"/>
      <point x="572" y="19" type="line"/>
      <point x="492" y="-33"/>
      <point x="436" y="-157"/>
      <point x="436" y="-222" type="qcurve" smooth="yes"/>
      <point x="436.0" y="-302.0"/>
      <point x="488" y="-365"/>
      <point x="528" y="-365.0" type="qcurve" smooth="yes"/>
      <point x="552" y="-365.0"/>
      <point x="605" y="-343"/>
      <point x="620" y="-335" type="qcurve"/>
      <point x="628" y="-390" type="line"/>
      <point x="603" y="-405"/>
      <point x="526" y="-434"/>
      <point x="467" y="-434" type="qcurve" smooth="yes"/>
      <point x="386" y="-434"/>
      <point x="275" y="-336"/>
      <point x="275" y="-243" type="qcurve" smooth="yes"/>
      <point x="275" y="-163"/>
      <point x="411" y="-17"/>
    </contour>
  </outline>
</glyph>
<glyph name="hookabovecomb" format="2">
  <advance width="1024"/>
  <unicode hex="0309"/>
  <outline>
    <contour>
      <point x="484" y="1219" type="line"/>
      <point x="484" y="1272" type="line" smooth="yes"/>
      <point x="484.0" y="1324.0"/>
      <point x="525" y="1369"/>
      <point x="589" y="1380" type="qcurve" smooth="yes"/>
      <point x="641" y="1389"/>
      <point x="685" y="1461"/>
      <point x="685.0" y="1512" type="qcurve" smooth="yes"/>
      <point x="685.0" y="1564"/>
      <point x="624" y="1639.0"/>
      <point x="558" y="1639.0" type="qcurve" smooth="yes"/>
      <point x="508" y="1639"/>
      <point x="381" y="1600"/>
      <point x="354" y="1586" type="qcurve"/>
      <point x="333" y="1631" type="line"/>
      <point x="367" y="1650"/>
      <point x="509" y="1691"/>
      <point x="603" y="1691" type="qcurve" smooth="yes"/>
      <point x="709" y="1691.0"/>
      <point x="848.0" y="1597"/>
      <point x="848.0" y="1515" type="qcurve" smooth="yes"/>
      <point x="848" y="1427"/>
      <point x="708" y="1335"/>
      <point x="547" y="1321" type="qcurve"/>
      <point x="547" y="1219" type="line"/>
    </contour>
  </outline>
</glyph>
<glyph name="breveinvertedcomb" format="2">
  <advance width="1024"/>
  <unicode hex="030F"/>
  <outline>
    <contour>
      <point x="227" y="1248" type="qcurve"/>
      <point x="177" y="1274" type="line"/>
      <point x="212" y="1373"/>
      <point x="387" y="1540"/>
      <point x="513" y="1540" type="qcurve" smooth="yes"/>
      <point x="626" y="1540"/>
      <point x="807" y="1387"/>
      <point x="849" y="1273" type="qcurve"/>
      <point x="808" y="1252" type="line"/>
      <point x="756" y="1308"/>
      <point x="591" y="1376"/>
      <point x="512" y="1376" type="qcurve" smooth="yes"/>
      <point x="428" y="1376"/>
      <point x="278" y="1309"/>
    </contour>
  </outline>
</glyph>
<glyph name="horncomb" format="2">
  <advance width="1024"/>
  <unicode hex="031B"/>
  <anchor x="70" y="1052" name="_topright"/>
  <anchor x="70" y="1293" name="topright"/>
  <outline>
    <contour>
      <point x="0" y="1052" type="line"/>
      <point x="84" y="1052" type="line" smooth="yes"/>
      <point x="132" y="1052"/>
      <point x="204" y="1086"/>
      <point x="204" y="1138" type="qcurve" smooth="yes"/>
      <point x="204" y="1184"/>
      <point x="191" y="1257"/>
      <point x="181" y="1293" type="qcurve"/>
      <point x="327" y="1293" type="line"/>
      <point x="347" y="1260"/>
      <point x="380" y="1157"/>
      <point x="380" y="1112" type="qcurve" smooth="yes"/>
      <point x="380" y="1058"/>
      <point x="268" y="991"/>
      <point x="175" y="991.0" type="qcurve" smooth="yes"/>
      <point x="120" y="991"/>
      <point x="39" y="1003"/>
      <point x="0" y="1012" type="qcurve"/>
    </contour>
  </outline>
</glyph>
<glyph name="dotbelowcomb" format="2">
  <advance width="1024"/>
  <unicode hex="0323"/>
  <outline>
    <contour>
      <point x="394" y="-291" type="qcurve" smooth="yes"/>
      <point x="394" y="-236"/>
      <point x="454" y="-176"/>
      <point x="512" y="-176" type="qcurve" smooth="yes"/>
      <point x="566" y="-176"/>
      <point x="630" y="-240"/>
      <point x="630" y="-291" type="qcurve" smooth="yes"/>
      <point x="630" y="-347"/>
      <point x="570" y="-407"/>
      <point x="512" y="-407" type="qcurve" smooth="yes"/>
      <point x="458" y="-407"/>
      <point x="394" y="-343"/>
    </contour>
  </outline>
</glyph>
<glyph name="commaaccentcomb" format="2">
  <advance width="1024"/>
  <unicode hex="0326"/>
  <anchor x="512" y="0" name="_bottom"/>
  <anchor x="512" y="-600" name="bottom"/>
  <outline>
    <contour>
      <point x="425" y="-597" type="line"/>
      <point x="433" y="-509"/>
      <point x="449" y="-364"/>
      <point x="463" y="-225" type="qcurve"/>
      <point x="665" y="-223.0" type="line"/>
      <point x="460" y="-600.0" type="line"/>
    </contour>
  </outline>
</glyph>
<glyph name="lownumeralsign" format="2">
  <advance width="574"/>
  <unicode hex="0375"/>
  <outline>
    <contour>
      <point x="282" y="277" type="line"/>
      <point x="317" y="268" type="line"/>
      <point x="265" y="-198" type="line"/>
      <point x="80" y="-179" type="line"/>
    </contour>
  </outline>
</glyph>
<glyph name="dieresistonos" format="2">
  <advance width="1114"/>
  <unicode hex="0385"/>
  <outline>
    <contour>
      <point x="296" y="1207" type="qcurve" smooth="yes"/>
      <point x="243" y="1207"/>
      <point x="187" y="1268"/>
      <point x="187" y="1311" type="qcurve" smooth="yes"/>
      <point x="187" y="1356"/>
      <point x="243" y="1418"/>
      <point x="296" y="1418" type="qcurve" smooth="yes"/>
      <point x="350" y="1418"/>
      <point x="406" y="1356"/>
      <point x="406" y="1311" type="qcurve" smooth="yes"/>
      <point x="406" y="1268"/>
      <point x="350" y="1207"/>
    </contour>
    <contour>
      <point x="589" y="1205" type="line"/>
      <point x="473" y="1213" type="line"/>
      <point x="497" y="1600" type="line"/>
      <point x="683" y="1600" type="line"/>
    </contour>
    <contour>
      <point x="817" y="1205" type="qcurve" smooth="yes"/>
      <point x="763" y="1205"/>
      <point x="708" y="1266"/>
      <point x="708" y="1309" type="qcurve" smooth="yes"/>
      <point x="708" y="1354"/>
      <point x="763" y="1416"/>
      <point x="817" y="1416" type="qcurve" smooth="yes"/>
      <point x="870" y="1416"/>
      <point x="927" y="1354"/>
      <point x="927" y="1309" type="qcurve" smooth="yes"/>
      <point x="927" y="1266"/>
      <point x="870" y="1205"/>
    </contour>
  </outline>
</glyph>
<glyph name="Delta" format="2">
  <advance width="1294"/>
  <unicode hex="0394"/>
  <outline>
    <contour>
      <point x="129" y="0" type="line"/>
      <point x="129" y="76" type="line"/>
      <point x="611" y="1466" type="line"/>
      <point x="733" y="1466" type="line"/>
      <point x="1266" y="66" type="line"/>
      <point x="1266" y="0" type="line"/>
    </contour>
    <contour>
      <point x="178" y="53" type="line"/>
      <point x="1057" y="53" type="line"/>
      <point x="654" y="1185" type="line" smooth="yes"/>
      <point x="642" y="1219"/>
      <point x="624" y="1280"/>
      <point x="617" y="1313" type="qcurve"/>
      <point x="601" y="1313" type="line"/>
      <point x="594" y="1280"/>
      <point x="575" y="1218"/>
      <point x="564" y="1185" type="qcurve" smooth="yes"/>
    </contour>
  </outline>
</glyph>
<glyph name="Sigma" format="2">
  <advance width="1190"/>
  <unicode hex="03A3"/>
  <outline>
    <contour>
      <point x="65" y="0" type="line"/>
      <point x="65" y="107" type="line"/>
      <point x="570" y="748" type="line"/>
      <point x="570" y="702" type="line"/>
      <point x="77" y="1304" type="line"/>
      <point x="77" y="1456" type="line"/>
      <point x="1092" y="1456" type="line"/>
      <point x="1092" y="1398" type="line"/>
      <point x="250" y="1398" type="line"/>
      <point x="250" y="1397" type="line"/>
      <point x="707" y="834" type="line"/>
      <point x="707" y="788" type="line"/>
      <point x="208" y="168" type="line"/>
      <point x="215" y="158" type="line"/>
      <point x="1124" y="158" type="line"/>
      <point x="1124" y="0" type="line"/>
    </contour>
  </outline>
</glyph>
<glyph name="Omega" format="2">
  <advance width="1478"/>
  <unicode hex="03A9"/>
  <anchor x="110" y="1456" name="GRK_topleft"/>
  <outline>
    <contour>
      <point x="115" y="0" type="line"/>
      <point x="115" y="159" type="line"/>
      <point x="497" y="159" type="line"/>
      <point x="497" y="349" type="line"/>
      <point x="348" y="391"/>
      <point x="115" y="626"/>
      <point x="115" y="835" type="qcurve"/>
      <point x="115" y="891" type="line"/>
      <point x="115" y="1171"/>
      <point x="455" y="1486"/>
      <point x="739" y="1486" type="qcurve"/>
      <point x="1023" y="1486"/>
      <point x="1363" y="1171"/>
      <point x="1363" y="891" type="qcurve"/>
      <point x="1363" y="835" type="line"/>
      <point x="1363" y="646"/>
      <point x="1154" y="395"/>
      <point x="981" y="349" type="qcurve"/>
      <point x="981" y="159" type="line"/>
      <point x="1363" y="159" type="line"/>
      <point x="1363" y="0" type="line"/>
      <point x="899" y="0" type="line"/>
      <point x="899" y="367" type="line"/>
      <point x="1031" y="407"/>
      <point x="1169" y="614"/>
      <point x="1169" y="835" type="qcurve"/>
      <point x="1169" y="891" type="line"/>
      <point x="1169" y="1185"/>
      <point x="940" y="1412"/>
      <point x="739" y="1412" type="qcurve"/>
      <point x="538" y="1412"/>
      <point x="309" y="1185"/>
      <point x="309" y="891" type="qcurve"/>
      <point x="309" y="835" type="line"/>
      <point x="309" y="634"/>
      <point x="416" y="421"/>
      <point x="569" y="367" type="qcurve"/>
      <point x="569" y="0" type="line"/>
    </contour>
  </outline>
</glyph>
<glyph name="alpha" format="2">
  <advance width="1236"/>
  <unicode hex="03B1"/>
  <outline>
    <contour>
      <point x="525" y="-20" type="qcurve" smooth="yes"/>
      <point x="325" y="-20"/>
      <point x="85" y="280"/>
      <point x="85" y="510" type="qcurve" smooth="yes"/>
      <point x="85" y="542" type="line" smooth="yes"/>
      <point x="85" y="772"/>
      <point x="325" y="1072"/>
      <point x="525" y="1072" type="qcurve" smooth="yes"/>
      <point x="635" y="1072"/>
      <point x="801" y="979"/>
      <point x="840" y="915" type="qcurve"/>
      <point x="846" y="915" type="line"/>
      <point x="854" y="1052" type="line"/>
      <point x="1022" y="1052" type="line"/>
      <point x="1022" y="162" type="line" smooth="yes"/>
      <point x="1022.0" y="87.0"/>
      <point x="1067" y="30"/>
      <point x="1117" y="30" type="qcurve"/>
      <point x="1132" y="30"/>
      <point x="1169" y="37"/>
      <point x="1186" y="44" type="qcurve"/>
      <point x="1186" y="-8" type="line"/>
      <point x="1167" y="-17"/>
      <point x="1110" y="-30"/>
      <point x="1076" y="-30" type="qcurve" smooth="yes"/>
      <point x="973" y="-30"/>
      <point x="860" y="53"/>
      <point x="846" y="135" type="qcurve"/>
      <point x="840" y="135" type="line"/>
      <point x="784" y="53"/>
      <point x="628" y="-20"/>
    </contour>
    <contour>
      <point x="565" y="32" type="qcurve"/>
      <point x="665" y="32"/>
      <point x="805" y="142"/>
      <point x="836" y="212" type="qcurve"/>
      <point x="836" y="740" type="line"/>
      <point x="798" y="921"/>
      <point x="656" y="1020"/>
      <point x="565" y="1020" type="qcurve"/>
      <point x="415" y="1020"/>
      <point x="275.0" y="802.0"/>
      <point x="275" y="542" type="qcurve" smooth="yes"/>
      <point x="275" y="510" type="line" smooth="yes"/>
      <point x="275.0" y="250.0"/>
      <point x="415" y="32"/>
    </contour>
  </outline>
</glyph>
<glyph name="epsilon" format="2">
  <advance width="1078"/>
  <unicode hex="03B5"/>
  <outline>
    <contour>
      <point x="543" y="-30" type="qcurve"/>
      <point x="327" y="-30"/>
      <point x="99" y="133"/>
      <point x="99" y="286" type="qcurve" smooth="yes"/>
      <point x="99" y="380"/>
      <point x="250" y="521"/>
      <point x="406" y="536" type="qcurve"/>
      <point x="406" y="514" type="line"/>
      <point x="286" y="527"/>
      <point x="138" y="658"/>
      <point x="138" y="756" type="qcurve" smooth="yes"/>
      <point x="138" y="906"/>
      <point x="363" y="1081"/>
      <point x="573" y="1081" type="qcurve" smooth="yes"/>
      <point x="796" y="1081"/>
      <point x="1014" y="858"/>
      <point x="1014" y="710" type="qcurve"/>
      <point x="834" y="710" type="line"/>
      <point x="834" y="901"/>
      <point x="689" y="1030"/>
      <point x="573" y="1030" type="qcurve" smooth="yes"/>
      <point x="452" y="1030"/>
      <point x="327" y="910"/>
      <point x="327.0" y="779" type="qcurve" smooth="yes"/>
      <point x="327.0" y="648.0"/>
      <point x="441" y="554"/>
      <point x="546" y="555" type="qcurve" smooth="yes"/>
      <point x="719" y="557" type="line"/>
      <point x="719" y="495" type="line"/>
      <point x="539" y="495.0" type="line" smooth="yes"/>
      <point x="418" y="495"/>
      <point x="289" y="385"/>
      <point x="289.0" y="259" type="qcurve" smooth="yes"/>
      <point x="289.0" y="151"/>
      <point x="410.0" y="22"/>
      <point x="553" y="22" type="qcurve" smooth="yes"/>
      <point x="687.0" y="22.0"/>
      <point x="833" y="172"/>
      <point x="833" y="342" type="qcurve"/>
      <point x="1013" y="342" type="line"/>
      <point x="1013" y="191"/>
      <point x="760" y="-30"/>
    </contour>
  </outline>
</glyph>
<glyph name="zeta" format="2">
  <advance width="816"/>
  <unicode hex="03B6"/>
  <guideline x="809" y="291" angle="90" identifier="Hhem4nGbLg"/>
  <guideline x="856" y="823" angle="90" identifier="UwRnHAo0ZQ"/>
  <guideline x="809" y="291" angle="90"/>
  <guideline x="856" y="823" angle="90"/>
  <outline>
    <contour>
      <point x="669" y="-348" type="line"/>
      <point x="692" y="-295"/>
      <point x="723" y="-195"/>
      <point x="723" y="-143" type="qcurve" smooth="yes"/>
      <point x="723" y="-84"/>
      <point x="612" y="-29"/>
      <point x="528" y="-9" type="qcurve" smooth="yes"/>
      <point x="397" y="23" type="line" smooth="yes"/>
      <point x="229" y="64"/>
      <point x="64" y="210"/>
      <point x="64" y="349" type="qcurve"/>
      <point x="64" y="461"/>
      <point x="300" y="808"/>
      <point x="441" y="998" type="qcurve" smooth="yes"/>
      <point x="744" y="1408" type="line"/>
      <point x="750" y="1384" type="line"/>
      <point x="111" y="1384" type="line"/>
      <point x="111" y="1536" type="line"/>
      <point x="856" y="1536" type="line"/>
      <point x="856" y="1430" type="line"/>
      <point x="476" y="916" type="line" smooth="yes"/>
      <point x="364" y="765"/>
      <point x="255" y="523"/>
      <point x="255.0" y="414" type="qcurve" smooth="yes"/>
      <point x="255.0" y="311.0"/>
      <point x="345" y="211"/>
      <point x="470" y="180" type="qcurve" smooth="yes"/>
      <point x="591" y="150" type="line" smooth="yes"/>
      <point x="747" y="111"/>
      <point x="851" y="6"/>
      <point x="851" y="-84" type="qcurve" smooth="yes"/>
      <point x="851" y="-147"/>
      <point x="790" y="-282"/>
      <point x="739" y="-348" type="qcurve"/>
    </contour>
  </outline>
</glyph>
<glyph name="iota" format="2">
  <advance width="600"/>
  <unicode hex="03B9"/>
  <outline>
    <contour>
      <point x="390" y="-30" type="qcurve" smooth="yes"/>
      <point x="275" y="-30"/>
      <point x="138" y="110"/>
      <point x="138" y="260" type="qcurve" smooth="yes"/>
      <point x="138" y="1052" type="line"/>
      <point x="324" y="1052" type="line"/>
      <point x="324" y="220" type="line" smooth="yes"/>
      <point x="324.0" y="128.0"/>
      <point x="387" y="27"/>
      <point x="440" y="27" type="qcurve" smooth="yes"/>
      <point x="468" y="27"/>
      <point x="522" y="42"/>
      <point x="550" y="52" type="qcurve"/>
      <point x="550" y="0" type="line"/>
      <point x="524" y="-12"/>
      <point x="440" y="-30"/>
    </contour>
  </outline>
</glyph>
<glyph name="xi" format="2">
  <advance width="920"/>
  <unicode hex="03BE"/>
  <outline>
    <contour>
      <point x="649" y="-348" type="line"/>
      <point x="672" y="-295"/>
      <point x="704" y="-195"/>
      <point x="704" y="-143" type="qcurve" smooth="yes"/>
      <point x="704.0" y="-64.0"/>
      <point x="642" y="29"/>
      <point x="558" y="48" type="qcurve" smooth="yes"/>
      <point x="510" y="59" type="line" smooth="yes"/>
      <point x="348" y="96"/>
      <point x="85" y="263"/>
      <point x="85" y="399" type="qcurve" smooth="yes"/>
      <point x="85" y="518"/>
      <point x="214" y="713"/>
      <point x="378" y="767" type="qcurve"/>
      <point x="378" y="742" type="line"/>
      <point x="260" y="792"/>
      <point x="133" y="945"/>
      <point x="133" y="1058" type="qcurve" smooth="yes"/>
      <point x="133" y="1220.0"/>
      <point x="366" y="1437"/>
      <point x="670" y="1483" type="qcurve"/>
      <point x="670" y="1484" type="line"/>
      <point x="91" y="1484" type="line"/>
      <point x="91" y="1536" type="line"/>
      <point x="846" y="1536" type="line"/>
      <point x="846" y="1466" type="line"/>
      <point x="516" y="1419"/>
      <point x="312" y="1221"/>
      <point x="312" y="1082" type="qcurve" smooth="yes"/>
      <point x="312" y="975"/>
      <point x="454" y="792"/>
      <point x="604" y="794" type="qcurve" smooth="yes"/>
      <point x="784" y="796" type="line"/>
      <point x="784" y="743" type="line"/>
      <point x="604" y="743" type="line" smooth="yes"/>
      <point x="470" y="743"/>
      <point x="274.0" y="553"/>
      <point x="274" y="411" type="qcurve" smooth="yes"/>
      <point x="274" y="302"/>
      <point x="379" y="144"/>
      <point x="526" y="110" type="qcurve" smooth="yes"/>
      <point x="587" y="96" type="line" smooth="yes"/>
      <point x="732" y="63"/>
      <point x="881" y="-15"/>
      <point x="881" y="-83" type="qcurve"/>
      <point x="881.0" y="-146.0"/>
      <point x="850" y="-281"/>
      <point x="819" y="-348" type="qcurve"/>
    </contour>
  </outline>
</glyph>
<glyph name="finalsigma" format="2">
  <advance width="1048"/>
  <unicode hex="03C2"/>
  <outline>
    <contour>
      <point x="699" y="-348" type="line"/>
      <point x="715" y="-295"/>
      <point x="733" y="-225"/>
      <point x="733" y="-163" type="qcurve" smooth="yes"/>
      <point x="733" y="-104"/>
      <point x="632" y="-28"/>
      <point x="548" y="-9" type="qcurve" smooth="yes"/>
      <point x="500" y="2" type="line" smooth="yes"/>
      <point x="299" y="48"/>
      <point x="85" y="287"/>
      <point x="85" y="505" type="qcurve" smooth="yes"/>
      <point x="85" y="542" type="line" smooth="yes"/>
      <point x="85" y="772"/>
      <point x="342" y="1082"/>
      <point x="581" y="1082" type="qcurve" smooth="yes"/>
      <point x="796" y="1082"/>
      <point x="999" y="851"/>
      <point x="999" y="715" type="qcurve" smooth="yes"/>
      <point x="999" y="710" type="line"/>
      <point x="819" y="710" type="line"/>
      <point x="819" y="715" type="line" smooth="yes"/>
      <point x="819.0" y="900.0"/>
      <point x="701" y="1030"/>
      <point x="581" y="1030" type="qcurve"/>
      <point x="435" y="1030"/>
      <point x="275" y="831.0"/>
      <point x="275" y="552" type="qcurve" smooth="yes"/>
      <point x="275" y="513" type="line" smooth="yes"/>
      <point x="275" y="364"/>
      <point x="399" y="199"/>
      <point x="559" y="162" type="qcurve" smooth="yes"/>
      <point x="611" y="150" type="line" smooth="yes"/>
      <point x="767" y="114"/>
      <point x="871" y="6"/>
      <point x="871" y="-84" type="qcurve"/>
      <point x="871" y="-147"/>
      <point x="809" y="-300"/>
      <point x="759" y="-348" type="qcurve"/>
    </contour>
  </outline>
</glyph>
<glyph name="phi" format="2">
  <advance width="1448"/>
  <unicode hex="03C6"/>
  <outline>
    <contour>
      <point x="631" y="-416" type="line"/>
      <point x="631" y="-10" type="line"/>
      <point x="382" y="0"/>
      <point x="85" y="267"/>
      <point x="85" y="510" type="qcurve" smooth="yes"/>
      <point x="85" y="542" type="line" smooth="yes"/>
      <point x="85" y="785"/>
      <point x="392" y="1052"/>
      <point x="631" y="1062" type="qcurve"/>
      <point x="631" y="1536" type="line"/>
      <point x="817" y="1536" type="line"/>
      <point x="817" y="1062" type="line"/>
      <point x="1056" y="1052"/>
      <point x="1363" y="785"/>
      <point x="1363" y="542" type="qcurve" smooth="yes"/>
      <point x="1363" y="510" type="line" smooth="yes"/>
      <point x="1363" y="267"/>
      <point x="1056" y="0"/>
      <point x="817" y="-10" type="qcurve"/>
      <point x="817" y="-416" type="line"/>
    </contour>
    <contour>
      <point x="631" y="42" type="qcurve"/>
      <point x="631" y="1010" type="line"/>
      <point x="434" y="1000"/>
      <point x="275" y="710"/>
      <point x="275" y="542" type="qcurve" smooth="yes"/>
      <point x="275" y="510" type="line" smooth="yes"/>
      <point x="275" y="342"/>
      <point x="434" y="52"/>
    </contour>
    <contour>
      <point x="817" y="42" type="line"/>
      <point x="1014" y="52"/>
      <point x="1173" y="342"/>
      <point x="1173" y="510" type="qcurve" smooth="yes"/>
      <point x="1173" y="542" type="line" smooth="yes"/>
      <point x="1173" y="710"/>
      <point x="1014" y="1000"/>
      <point x="817" y="1010" type="qcurve"/>
    </contour>
  </outline>
</glyph>
<glyph name="chi" format="2">
  <advance width="979"/>
  <unicode hex="03C7"/>
  <outline>
    <contour>
      <point x="779" y="-416" type="line"/>
      <point x="470" y="270" type="line"/>
      <point x="460" y="270" type="line"/>
      <point x="47" y="1052" type="line"/>
      <point x="260" y="1052" type="line"/>
      <point x="564" y="418" type="line"/>
      <point x="574" y="418" type="line"/>
      <point x="992" y="-416" type="line"/>
    </contour>
    <contour>
      <point x="73" y="-416" type="line"/>
      <point x="523" y="438" type="line"/>
      <point x="537" y="438" type="line"/>
      <point x="829" y="1052" type="line"/>
      <point x="932" y="1052" type="line"/>
      <point x="529" y="283" type="line"/>
      <point x="505" y="283" type="line"/>
      <point x="176" y="-416" type="line"/>
    </contour>
  </outline>
</glyph>
<glyph name="kaisymbol" format="2">
  <advance width="1043"/>
  <unicode hex="03D7"/>
  <outline>
    <contour>
      <point x="359" y="-590" type="line"/>
      <point x="323" y="-550" type="line"/>
      <point x="894" y="-71" type="line"/>
      <point x="392" y="505" type="line"/>
      <point x="334" y="505" type="line"/>
      <point x="334" y="0" type="line"/>
      <point x="148" y="0" type="line"/>
      <point x="148" y="1052" type="line"/>
      <point x="334" y="1052" type="line"/>
      <point x="334" y="570" type="line"/>
      <point x="450" y="570" type="line"/>
      <point x="875" y="1052" type="line"/>
      <point x="943" y="1052" type="line"/>
      <point x="537" y="589" type="line"/>
      <point x="1058" y="13" type="line"/>
    </contour>
  </outline>
</glyph>
<glyph name="Ieukran" format="2">
  <advance width="1359"/>
  <unicode hex="0404"/>
  <guideline x="211" y="787" angle="90" identifier="mFTeE97JTj"/>
  <outline>
    <contour>
      <point x="212" y="780" type="line"/>
      <point x="936" y="780" type="line"/>
      <point x="936" y="722" type="line"/>
      <point x="212" y="722" type="line"/>
    </contour>
    <contour>
      <point x="115" y="682" type="qcurve" smooth="yes"/>
      <point x="115" y="774" type="line" smooth="yes"/>
      <point x="115" y="1110"/>
      <point x="460" y="1486"/>
      <point x="720" y="1486" type="qcurve" smooth="yes"/>
      <point x="980" y="1486"/>
      <point x="1275" y="1201"/>
      <point x="1275" y="1000" type="qcurve" smooth="yes"/>
      <point x="1275" y="990" type="line"/>
      <point x="1083" y="990" type="line"/>
      <point x="1083" y="1000" type="line" smooth="yes"/>
      <point x="1083.0" y="1239.0"/>
      <point x="903" y="1422"/>
      <point x="720" y="1422" type="qcurve" smooth="yes"/>
      <point x="541" y="1422"/>
      <point x="309" y="1152.0"/>
      <point x="309" y="797" type="qcurve" smooth="yes"/>
      <point x="309" y="674" type="line" smooth="yes"/>
      <point x="309" y="326.0"/>
      <point x="540" y="34"/>
      <point x="720" y="34" type="qcurve" smooth="yes"/>
      <point x="892" y="34"/>
      <point x="1058" y="221"/>
      <point x="1082" y="456" type="qcurve" smooth="yes"/>
      <point x="1083" y="466" type="line"/>
      <point x="1275" y="466" type="line"/>
      <point x="1274" y="456" type="line" smooth="yes"/>
      <point x="1254" y="256"/>
      <point x="980" y="-30"/>
      <point x="720" y="-30" type="qcurve" smooth="yes"/>
      <point x="460" y="-30"/>
      <point x="115" y="346"/>
    </contour>
  </outline>
</glyph>
<glyph name="Ka" format="2">
  <advance width="1266"/>
  <unicode hex="041A"/>
  <guideline x="480" y="796" angle="90" identifier="LxfLwWU0sJ"/>
  <outline>
    <contour>
      <point x="1050" y="0" type="line"/>
      <point x="422" y="740" type="line"/>
      <point x="582" y="823" type="line"/>
      <point x="1286" y="0" type="line"/>
    </contour>
    <contour>
      <point x="266" y="780" type="line"/>
      <point x="483" y="780" type="line"/>
      <point x="1075" y="1456" type="line"/>
      <point x="1192" y="1456" type="line"/>
      <point x="541" y="722" type="line"/>
      <point x="266" y="722" type="line"/>
    </contour>
    <contour>
      <point x="170" y="0" type="line"/>
      <point x="170" y="1456" type="line"/>
      <point x="362" y="1456" type="line"/>
      <point x="362" y="0" type="line"/>
    </contour>
  </outline>
</glyph>
<glyph name="Ucyr" format="2">
  <advance width="1238"/>
  <unicode hex="0423"/>
  <outline>
    <contour>
      <point x="152" y="51" type="line"/>
      <point x="178" y="42"/>
      <point x="251" y="23.0"/>
      <point x="311" y="23.0" type="qcurve" smooth="yes"/>
      <point x="397" y="23"/>
      <point x="530" y="146"/>
      <point x="592" y="282" type="qcurve"/>
      <point x="592" y="282" type="line"/>
      <point x="15" y="1456" type="line"/>
      <point x="233" y="1456" type="line"/>
      <point x="580" y="720" type="line" smooth="yes"/>
      <point x="605" y="668"/>
      <point x="672" y="521"/>
      <point x="688" y="485" type="qcurve"/>
      <point x="694" y="485" type="line"/>
      <point x="709" y="521"/>
      <point x="773" y="667"/>
      <point x="796" y="720" type="qcurve" smooth="yes"/>
      <point x="1111" y="1456" type="line"/>
      <point x="1173" y="1456" type="line"/>
      <point x="706" y="394" type="line" smooth="yes"/>
      <point x="604" y="162"/>
      <point x="438" y="-30"/>
      <point x="301" y="-30" type="qcurve" smooth="yes"/>
      <point x="242" y="-30"/>
      <point x="180" y="-20"/>
      <point x="152" y="-10" type="qcurve"/>
    </contour>
  </outline>
</glyph>
<glyph name="Ef" format="2">
  <advance width="1745"/>
  <unicode hex="0424"/>
  <outline>
    <contour>
      <point x="965" y="1476" type="line"/>
      <point x="965" y="1232" type="line"/>
      <point x="994" y="1232" type="line" smooth="yes"/>
      <point x="1311.0" y="1232.0"/>
      <point x="1640" y="940"/>
      <point x="1640" y="738" type="qcurve" smooth="yes"/>
      <point x="1640" y="536"/>
      <point x="1312.0" y="245.0"/>
      <point x="995" y="245" type="qcurve" smooth="yes"/>
      <point x="965" y="245" type="line"/>
      <point x="965" y="-20" type="line"/>
      <point x="780" y="-20" type="line"/>
      <point x="780" y="245" type="line"/>
      <point x="750" y="245" type="line" smooth="yes"/>
      <point x="433.0" y="245"/>
      <point x="105" y="537"/>
      <point x="105" y="739" type="qcurve" smooth="yes"/>
      <point x="105" y="941"/>
      <point x="434" y="1232.0"/>
      <point x="751" y="1232" type="qcurve" smooth="yes"/>
      <point x="780" y="1232" type="line"/>
      <point x="780" y="1476" type="line"/>
    </contour>
    <contour>
      <point x="994" y="1183" type="qcurve" smooth="yes"/>
      <point x="965" y="1183" type="line"/>
      <point x="965" y="295" type="line"/>
      <point x="995" y="295" type="line" smooth="yes"/>
      <point x="1246" y="295.0"/>
      <point x="1455" y="495"/>
      <point x="1455" y="736" type="qcurve" smooth="yes"/>
      <point x="1455" y="976"/>
      <point x="1244" y="1183.0"/>
    </contour>
    <contour>
      <point x="751" y="1183" type="line" smooth="yes"/>
      <point x="500.0" y="1183.0"/>
      <point x="290" y="983"/>
      <point x="290" y="741" type="qcurve" smooth="yes"/>
      <point x="290" y="502"/>
      <point x="501" y="295"/>
      <point x="751" y="295" type="qcurve" smooth="yes"/>
      <point x="780" y="295" type="line"/>
      <point x="780" y="1183" type="line"/>
    </contour>
  </outline>
</glyph>
<glyph name="be" format="2">
  <advance width="1172"/>
  <unicode hex="0431"/>
  <outline>
    <contour>
      <point x="285.0" y="519" type="qcurve" smooth="yes"/>
      <point x="285.0" y="480" type="line" smooth="yes"/>
      <point x="285.0" y="291"/>
      <point x="439.0" y="30"/>
      <point x="591.0" y="30" type="qcurve" smooth="yes"/>
      <point x="743.0" y="30"/>
      <point x="897.0" y="291"/>
      <point x="897.0" y="480" type="qcurve" smooth="yes"/>
      <point x="897.0" y="519" type="line" smooth="yes"/>
      <point x="897.0" y="709"/>
      <point x="743.0" y="968"/>
      <point x="591.0" y="968" type="qcurve" smooth="yes"/>
      <point x="439.0" y="968"/>
      <point x="285.0" y="709"/>
    </contour>
    <contour>
      <point x="637" y="1042" type="qcurve" smooth="yes"/>
      <point x="846" y="1042"/>
      <point x="1087" y="745"/>
      <point x="1087" y="522" type="qcurve" smooth="yes"/>
      <point x="1087" y="490" type="line" smooth="yes"/>
      <point x="1087" y="261"/>
      <point x="817" y="-30"/>
      <point x="591" y="-30" type="qcurve" smooth="yes"/>
      <point x="357" y="-30"/>
      <point x="95" y="263"/>
      <point x="95" y="605" type="qcurve" smooth="yes"/>
      <point x="95" y="631" type="line" smooth="yes"/>
      <point x="95" y="999"/>
      <point x="338" y="1408"/>
      <point x="667" y="1447" type="qcurve" smooth="yes"/>
      <point x="889" y="1473"/>
      <point x="942" y="1511"/>
      <point x="947" y="1536" type="qcurve"/>
      <point x="1021" y="1536" type="line"/>
      <point x="1010" y="1431"/>
      <point x="863" y="1308"/>
      <point x="688" y="1279" type="qcurve" smooth="yes"/>
      <point x="432" y="1237"/>
      <point x="253.9647773758" y="995.5959757812"/>
      <point x="237" y="801" type="qcurve"/>
      <point x="248" y="801" type="line"/>
      <point x="300" y="913"/>
      <point x="500" y="1042"/>
    </contour>
  </outline>
</glyph>
<glyph name="zhe" format="2">
  <advance width="1395"/>
  <unicode hex="0436"/>
  <outline>
    <contour>
      <point x="788" y="0" type="line"/>
      <point x="602" y="0" type="line"/>
      <point x="602" y="1052" type="line"/>
      <point x="788" y="1052" type="line"/>
    </contour>
    <contour>
      <point x="1194" y="0" type="line"/>
      <point x="774" y="515" type="line"/>
      <point x="929" y="591" type="line"/>
      <point x="1420" y="0" type="line"/>
    </contour>
    <contour>
      <point x="695" y="560" type="line"/>
      <point x="859" y="560" type="line"/>
      <point x="1252" y="1052" type="line"/>
      <point x="1323" y="1052" type="line"/>
      <point x="891" y="515" type="line"/>
      <point x="695" y="515" type="line"/>
    </contour>
    <contour>
      <point x="196" y="0" type="line"/>
      <point x="-25" y="0" type="line"/>
      <point x="466" y="591" type="line"/>
      <point x="616" y="515" type="line"/>
    </contour>
    <contour>
      <point x="695" y="560" type="line"/>
      <point x="695" y="515" type="line"/>
      <point x="497" y="515" type="line"/>
      <point x="65" y="1052" type="line"/>
      <point x="136" y="1052" type="line"/>
      <point x="531" y="560" type="line"/>
    </contour>
  </outline>
</glyph>
<glyph name="icyr" format="2">
  <advance width="1158"/>
  <unicode hex="0438"/>
  <outline>
    <contour>
      <point x="148" y="0" type="line"/>
      <point x="148" y="1052" type="line"/>
      <point x="334" y="1052" type="line"/>
      <point x="334" y="303" type="line" smooth="yes"/>
      <point x="334.0" y="273.0"/>
      <point x="333" y="198"/>
      <point x="332" y="168" type="qcurve"/>
      <point x="339" y="168" type="line"/>
      <point x="353" y="193"/>
      <point x="385" y="251"/>
      <point x="402" y="283" type="qcurve" smooth="yes"/>
      <point x="824" y="1052" type="line"/>
      <point x="1010" y="1052" type="line"/>
      <point x="1010" y="0" type="line"/>
      <point x="824" y="0" type="line"/>
      <point x="824" y="748" type="line" smooth="yes"/>
      <point x="824.0" y="778.0"/>
      <point x="825" y="853"/>
      <point x="826" y="883" type="qcurve"/>
      <point x="819" y="883" type="line"/>
      <point x="805" y="858"/>
      <point x="773" y="800"/>
      <point x="756" y="768" type="qcurve" smooth="yes"/>
      <point x="334" y="0" type="line"/>
    </contour>
  </outline>
</glyph>
<glyph name="el" format="2">
  <advance width="1128"/>
  <unicode hex="043B"/>
  <outline>
    <contour>
      <point x="414" y="997" type="line"/>
      <point x="396" y="490" type="line" smooth="yes"/>
      <point x="386" y="217"/>
      <point x="272" y="-22"/>
      <point x="120" y="-22" type="qcurve" smooth="yes"/>
      <point x="86" y="-22"/>
      <point x="29" y="-13"/>
      <point x="10" y="-4" type="qcurve"/>
      <point x="10" y="42" type="line"/>
      <point x="27" y="35"/>
      <point x="64" y="29"/>
      <point x="86" y="29" type="qcurve" smooth="yes"/>
      <point x="165" y="29"/>
      <point x="215" y="271"/>
      <point x="226" y="516" type="qcurve" smooth="yes"/>
      <point x="249" y="1052" type="line"/>
      <point x="977" y="1052" type="line"/>
      <point x="977" y="0" type="line"/>
      <point x="791" y="0" type="line"/>
      <point x="791" y="997" type="line"/>
    </contour>
  </outline>
</glyph>
<glyph name="em" format="2">
  <advance width="1506"/>
  <unicode hex="043C"/>
  <outline>
    <contour>
      <point x="148" y="0.0" type="line"/>
      <point x="148" y="1052.0" type="line"/>
      <point x="318" y="1052.0" type="line"/>
      <point x="711" y="258.0" type="line" smooth="yes"/>
      <point x="721" y="237"/>
      <point x="737" y="189.0"/>
      <point x="743" y="168.0" type="qcurve"/>
      <point x="753" y="168.0" type="line"/>
      <point x="760" y="189.0"/>
      <point x="779" y="237"/>
      <point x="789" y="258.0" type="qcurve" smooth="yes"/>
      <point x="1163" y="1052.0" type="line"/>
      <point x="1358" y="1052.0" type="line"/>
      <point x="1358" y="0.0" type="line"/>
      <point x="1181" y="0.0" type="line"/>
      <point x="1181" y="884.0" type="line" smooth="yes"/>
      <point x="1181" y="905"/>
      <point x="1186" y="967.0"/>
      <point x="1190" y="989.0" type="qcurve"/>
      <point x="1179" y="989.0" type="line"/>
      <point x="1170" y="967.0"/>
      <point x="1142" y="906"/>
      <point x="1131" y="884.0" type="qcurve" smooth="yes"/>
      <point x="722" y="0.0" type="line"/>
      <point x="660" y="0.0" type="line"/>
      <point x="219" y="888.0" type="line" smooth="yes"/>
      <point x="208" y="910"/>
      <point x="196" y="970.0"/>
      <point x="192" y="990.0" type="qcurve"/>
      <point x="183" y="990.0" type="line"/>
      <point x="186" y="969.0"/>
      <point x="191" y="908"/>
      <point x="191" y="885.0" type="qcurve" smooth="yes"/>
      <point x="191" y="0.0" type="line"/>
    </contour>
  </outline>
</glyph>
<glyph name="ecyr" format="2">
  <advance width="1068"/>
  <unicode hex="044D"/>
  <guideline x="889" y="493" angle="90" identifier="9ss4WcbEUf"/>
  <outline>
    <contour>
      <point x="983" y="510" type="line" smooth="yes"/>
      <point x="983" y="252"/>
      <point x="729.329218107" y="-30"/>
      <point x="507" y="-30" type="qcurve" smooth="yes"/>
      <point x="292.0934579439" y="-30"/>
      <point x="69" y="197"/>
      <point x="69" y="337" type="qcurve" smooth="yes"/>
      <point x="69" y="342" type="line"/>
      <point x="249" y="342" type="line"/>
      <point x="249" y="337" type="line" smooth="yes"/>
      <point x="249" y="171.0"/>
      <point x="376.0" y="22"/>
      <point x="507" y="22" type="qcurve" smooth="yes"/>
      <point x="654" y="22"/>
      <point x="793.0" y="227.0"/>
      <point x="793" y="500" type="qcurve" smooth="yes"/>
      <point x="793" y="564" type="line" smooth="yes"/>
      <point x="793.0" y="825.0"/>
      <point x="656" y="1030"/>
      <point x="511" y="1030" type="qcurve" smooth="yes"/>
      <point x="386.0" y="1030.0"/>
      <point x="253" y="885.0"/>
      <point x="253" y="715" type="qcurve" smooth="yes"/>
      <point x="253" y="710" type="line"/>
      <point x="73" y="710" type="line"/>
      <point x="73" y="715" type="line" smooth="yes"/>
      <point x="73" y="855"/>
      <point x="296.0934579439" y="1082"/>
      <point x="511" y="1082" type="qcurve" smooth="yes"/>
      <point x="731.3319502075" y="1082"/>
      <point x="983" y="800"/>
      <point x="983" y="542" type="qcurve" smooth="yes"/>
    </contour>
    <contour>
      <point x="889" y="570" type="line"/>
      <point x="889" y="515" type="line"/>
      <point x="358" y="515" type="line"/>
      <point x="358" y="570" type="line"/>
    </contour>
  </outline>
</glyph>
<glyph name="ya" format="2">
  <advance width="1117"/>
  <unicode hex="044F"/>
  <outline>
    <contour>
      <point x="289" y="0" type="line"/>
      <point x="85" y="0" type="line"/>
      <point x="411" y="454" type="line"/>
      <point x="596" y="437" type="line"/>
    </contour>
    <contour>
      <point x="783" y="0" type="line"/>
      <point x="783" y="424" type="line"/>
      <point x="539" y="424" type="line"/>
      <point x="521" y="436" type="line"/>
      <point x="335" y="439"/>
      <point x="119" y="561"/>
      <point x="119.0" y="735" type="qcurve" smooth="yes"/>
      <point x="119" y="909.0"/>
      <point x="328" y="1052"/>
      <point x="521" y="1052" type="qcurve" smooth="yes"/>
      <point x="969" y="1052" type="line"/>
      <point x="969" y="0" type="line"/>
    </contour>
    <contour>
      <point x="541" y="479" type="qcurve" smooth="yes"/>
      <point x="783" y="479" type="line"/>
      <point x="783" y="997" type="line"/>
      <point x="541" y="997" type="line" smooth="yes"/>
      <point x="422.0" y="997.0"/>
      <point x="305.0" y="872.0"/>
      <point x="305.0" y="732" type="qcurve" smooth="yes"/>
      <point x="305" y="592"/>
      <point x="421.0" y="479.0"/>
    </contour>
  </outline>
</glyph>
<glyph name="dje" format="2">
  <advance width="1138"/>
  <unicode hex="0452"/>
  <outline>
    <contour>
      <point x="254" y="1290" type="line"/>
      <point x="22" y="1290" type="line"/>
      <point x="33" y="1346" type="line"/>
      <point x="254" y="1346" type="line"/>
      <point x="629" y="1346" type="line"/>
      <point x="629" y="1290" type="line"/>
    </contour>
    <contour>
      <point x="1000" y="-90" type="line" smooth="yes"/>
      <point x="1000" y="-270"/>
      <point x="861" y="-436"/>
      <point x="727" y="-436" type="qcurve" smooth="yes"/>
      <point x="687" y="-436"/>
      <point x="588" y="-419"/>
      <point x="563" y="-410" type="qcurve"/>
      <point x="563" y="-350" type="line"/>
      <point x="583" y="-356"/>
      <point x="657" y="-370"/>
      <point x="687" y="-370" type="qcurve" smooth="yes"/>
      <point x="747" y="-370"/>
      <point x="814.0" y="-300.0"/>
      <point x="814" y="-220" type="qcurve" smooth="yes"/>
      <point x="814" y="771" type="line" smooth="yes"/>
      <point x="814" y="897"/>
      <point x="701" y="1006"/>
      <point x="597" y="1006" type="qcurve" smooth="yes"/>
      <point x="508" y="1006"/>
      <point x="372" y="910"/>
      <point x="334" y="834" type="qcurve"/>
      <point x="334" y="0" type="line"/>
      <point x="148" y="0" type="line"/>
      <point x="148" y="1536" type="line"/>
      <point x="334" y="1536" type="line"/>
      <point x="334" y="922" type="line"/>
      <point x="390" y="990"/>
      <point x="562" y="1072"/>
      <point x="664" y="1072" type="qcurve" smooth="yes"/>
      <point x="811" y="1072"/>
      <point x="1000" y="891"/>
      <point x="1000" y="679" type="qcurve" smooth="yes"/>
    </contour>
  </outline>
</glyph>
<glyph name="ieukran" format="2">
  <advance width="1068"/>
  <unicode hex="0454"/>
  <guideline x="180" y="548" angle="90" identifier="n4jm0tBg3Y"/>
  <outline>
    <contour>
      <point x="85" y="510" type="qcurve" smooth="yes"/>
      <point x="85" y="542" type="line" smooth="yes"/>
      <point x="85" y="780"/>
      <point x="344" y="1082"/>
      <point x="571" y="1082" type="qcurve" smooth="yes"/>
      <point x="781" y="1082"/>
      <point x="999" y="855"/>
      <point x="999" y="715" type="qcurve" smooth="yes"/>
      <point x="999" y="710" type="line"/>
      <point x="819" y="710" type="line"/>
      <point x="819" y="715" type="line" smooth="yes"/>
      <point x="819.0" y="890.0"/>
      <point x="701" y="1030"/>
      <point x="571" y="1030" type="qcurve" smooth="yes"/>
      <point x="419" y="1030"/>
      <point x="275.0" y="795.0"/>
      <point x="275" y="564" type="qcurve" smooth="yes"/>
      <point x="275" y="500" type="line" smooth="yes"/>
      <point x="275.0" y="257.0"/>
      <point x="419" y="22"/>
      <point x="571" y="22" type="qcurve" smooth="yes"/>
      <point x="701" y="22"/>
      <point x="819.0" y="162.0"/>
      <point x="819" y="337" type="qcurve" smooth="yes"/>
      <point x="819" y="342" type="line"/>
      <point x="999" y="342" type="line"/>
      <point x="999" y="337" type="line" smooth="yes"/>
      <point x="999" y="197"/>
      <point x="781" y="-30"/>
      <point x="571" y="-30" type="qcurve" smooth="yes"/>
      <point x="344" y="-30"/>
      <point x="85" y="272"/>
    </contour>
    <contour>
      <point x="181" y="565" type="line"/>
      <point x="710" y="565" type="line"/>
      <point x="710" y="510" type="line"/>
      <point x="181" y="510" type="line"/>
    </contour>
  </outline>
</glyph>
<glyph name="zhedescender" format="2">
  <advance width="1400"/>
  <unicode hex="0497"/>
  <outline>
    <contour>
      <point x="1194" y="0" type="line"/>
      <point x="781" y="501" type="line"/>
      <point x="899" y="624" type="line"/>
      <point x="1406" y="18" type="line"/>
      <point x="1406" y="0" type="line"/>
    </contour>
    <contour>
      <point x="788" y="1052" type="line"/>
      <point x="788" y="0" type="line"/>
      <point x="602" y="0" type="line"/>
      <point x="602" y="1052" type="line"/>
    </contour>
    <contour>
      <point x="695" y="560" type="line"/>
      <point x="834" y="560" type="line"/>
      <point x="1229" y="1052" type="line"/>
      <point x="1333" y="1052" type="line"/>
      <point x="891" y="505" type="line"/>
      <point x="695" y="505" type="line"/>
    </contour>
    <contour>
      <point x="1194" y="45" type="line"/>
      <point x="1429" y="45" type="line"/>
      <point x="1429" y="-270" type="line"/>
      <point x="1261" y="-270" type="line"/>
      <point x="1261" y="0" type="line"/>
      <point x="1194" y="0" type="line"/>
    </contour>
    <contour>
      <point x="196" y="0" type="line"/>
      <point x="-25" y="0" type="line"/>
      <point x="500" y="630" type="line"/>
      <point x="610" y="504" type="line"/>
    </contour>
    <contour>
      <point x="695" y="560" type="line"/>
      <point x="695" y="505" type="line"/>
      <point x="507" y="505" type="line"/>
      <point x="55" y="1052" type="line"/>
      <point x="171" y="1052" type="line"/>
      <point x="576" y="560" type="line"/>
    </contour>
  </outline>
</glyph>
<glyph name="kaverticalstrokecyr" format="2">
  <advance width="1210"/>
  <unicode hex="049D"/>
  <guideline x="547" y="651" angle="90" identifier="ATaXbxe4rK"/>
  <outline>
    <contour>
      <point x="629" y="852" type="line"/>
      <point x="629" y="200" type="line"/>
      <point x="464" y="200" type="line"/>
      <point x="464" y="852" type="line"/>
    </contour>
    <contour>
      <point x="334" y="1052" type="line"/>
      <point x="334" y="0" type="line"/>
      <point x="148" y="0" type="line"/>
      <point x="148" y="1052" type="line"/>
    </contour>
    <contour>
      <point x="1009" y="0" type="line"/>
      <point x="598" y="503" type="line"/>
      <point x="713" y="629" type="line"/>
      <point x="1235" y="0" type="line"/>
    </contour>
    <contour>
      <point x="547" y="550" type="line"/>
      <point x="639" y="550" type="line"/>
      <point x="1054" y="1052" type="line"/>
      <point x="1138" y="1052" type="line"/>
      <point x="696" y="505" type="line"/>
      <point x="547" y="505" type="line"/>
    </contour>
  </outline>
</glyph>
<glyph name="ustraight" format="2">
  <advance width="942"/>
  <unicode hex="04AF"/>
  <outline>
    <contour>
      <point x="378" y="-416" type="line"/>
      <point x="378" y="0" type="line"/>
      <point x="0" y="1052" type="line"/>
      <point x="180" y="1052" type="line"/>
      <point x="434" y="289" type="line" smooth="yes"/>
      <point x="447" y="249"/>
      <point x="498" y="87"/>
      <point x="502" y="67" type="qcurve"/>
      <point x="508" y="67" type="line"/>
      <point x="512" y="87"/>
      <point x="565" y="249"/>
      <point x="579" y="289" type="qcurve" smooth="yes"/>
      <point x="846" y="1052" type="line"/>
      <point x="912" y="1052" type="line"/>
      <point x="564" y="74" type="line"/>
      <point x="564" y="-416" type="line"/>
    </contour>
  </outline>
</glyph>
<glyph name="ustraightstroke" format="2">
  <advance width="942"/>
  <unicode hex="04B1"/>
  <outline>
    <contour>
      <point x="138" y="-45" type="line"/>
      <point x="138" y="10" type="line"/>
      <point x="378" y="10" type="line"/>
      <point x="0" y="1052" type="line"/>
      <point x="180" y="1052" type="line"/>
      <point x="434" y="289" type="line" smooth="yes"/>
      <point x="447" y="249"/>
      <point x="502" y="71"/>
      <point x="506" y="51" type="qcurve"/>
      <point x="512" y="51" type="line"/>
      <point x="516" y="71"/>
      <point x="572" y="249"/>
      <point x="586" y="289" type="qcurve" smooth="yes"/>
      <point x="850" y="1052" type="line"/>
      <point x="916" y="1052" type="line"/>
      <point x="564" y="10" type="line"/>
      <point x="804" y="10" type="line"/>
      <point x="804" y="-45" type="line"/>
      <point x="564" y="-45" type="line"/>
      <point x="564" y="-416" type="line"/>
      <point x="378" y="-416" type="line"/>
      <point x="378" y="-45" type="line"/>
    </contour>
  </outline>
</glyph>
<glyph name="hadescender" format="2">
  <advance width="986"/>
  <unicode hex="04B3"/>
  <outline>
    <contour>
      <point x="70" y="0" type="line"/>
      <point x="456" y="551" type="line"/>
      <point x="497" y="551" type="line"/>
      <point x="828" y="1052" type="line"/>
      <point x="888" y="1052" type="line"/>
      <point x="521" y="507" type="line"/>
      <point x="480" y="507" type="line"/>
      <point x="130" y="0" type="line"/>
    </contour>
    <contour>
      <point x="40" y="1052" type="line"/>
      <point x="253" y="1052" type="line"/>
      <point x="550" y="582" type="line"/>
      <point x="558" y="582" type="line"/>
      <point x="938" y="29" type="line"/>
      <point x="938" y="0" type="line"/>
      <point x="745" y="0" type="line"/>
      <point x="428" y="484" type="line"/>
      <point x="420" y="484" type="line"/>
    </contour>
    <contour>
      <point x="745" y="45" type="line"/>
      <point x="1015" y="45" type="line"/>
      <point x="1015" y="-270" type="line"/>
      <point x="847" y="-270" type="line"/>
      <point x="847" y="0" type="line"/>
      <point x="745" y="0" type="line"/>
    </contour>
  </outline>
</glyph>
<glyph name="Shha" format="2">
  <advance width="1388"/>
  <unicode hex="04BA"/>
  <outline>
    <contour>
      <point x="1056" y="474" type="line" smooth="yes"/>
      <point x="1056.0" y="652.0"/>
      <point x="893" y="772"/>
      <point x="695" y="772" type="qcurve" smooth="yes"/>
      <point x="576" y="772"/>
      <point x="366" y="752"/>
      <point x="266" y="731" type="qcurve"/>
      <point x="266" y="789" type="line"/>
      <point x="400" y="811"/>
      <point x="585" y="830"/>
      <point x="710" y="830" type="qcurve" smooth="yes"/>
      <point x="1021" y="830"/>
      <point x="1248.0" y="599.0"/>
      <point x="1248" y="421" type="qcurve" smooth="yes"/>
      <point x="1248" y="0" type="line"/>
      <point x="1056" y="0" type="line"/>
    </contour>
    <contour>
      <point x="170" y="0" type="line"/>
      <point x="170" y="1456" type="line"/>
      <point x="362" y="1456" type="line"/>
      <point x="362" y="0" type="line"/>
    </contour>
  </outline>
</glyph>
<glyph name="Germandbls" format="2">
  <advance width="1449"/>
  <unicode hex="1E9E"/>
  <outline>
    <contour>
      <point x="178" y="1066" type="line" smooth="yes"/>
      <point x="178" y="1267"/>
      <point x="399" y="1510"/>
      <point x="629" y="1510.0" type="qcurve" smooth="yes"/>
      <point x="821.0" y="1510.0"/>
      <point x="1019.0" y="1387.0"/>
      <point x="1019.0" y="1297" type="qcurve" smooth="yes"/>
      <point x="1019" y="1209"/>
      <point x="853" y="1073"/>
      <point x="755" y="1004" type="qcurve" smooth="yes"/>
      <point x="701" y="966"/>
      <point x="648" y="928"/>
      <point x="648" y="898" type="qcurve" smooth="yes"/>
      <point x="648" y="878"/>
      <point x="816" y="805"/>
      <point x="1006" y="736" type="qcurve" smooth="yes"/>
      <point x="1199" y="666"/>
      <point x="1369" y="486"/>
      <point x="1369" y="336" type="qcurve" smooth="yes"/>
      <point x="1369" y="190"/>
      <point x="1126" y="-30"/>
      <point x="925" y="-30" type="qcurve" smooth="yes"/>
      <point x="700" y="-30"/>
      <point x="465" y="152"/>
      <point x="465" y="338" type="qcurve" smooth="yes"/>
      <point x="465" y="350" type="line"/>
      <point x="648" y="350" type="line"/>
      <point x="648.0" y="298" type="line" smooth="yes"/>
      <point x="648" y="158"/>
      <point x="793" y="25"/>
      <point x="929" y="25" type="qcurve" smooth="yes"/>
      <point x="1059.0" y="25.0"/>
      <point x="1202.0" y="158.0"/>
      <point x="1202.0" y="279" type="qcurve" smooth="yes"/>
      <point x="1202" y="406"/>
      <point x="1040" y="521"/>
      <point x="869" y="584" type="qcurve" smooth="yes"/>
      <point x="641" y="668"/>
      <point x="524" y="760"/>
      <point x="524" y="831" type="qcurve" smooth="yes"/>
      <point x="524" y="890"/>
      <point x="615" y="979"/>
      <point x="709" y="1046" type="qcurve" smooth="yes"/>
      <point x="779" y="1096"/>
      <point x="824" y="1192"/>
      <point x="824" y="1279" type="qcurve" smooth="yes"/>
      <point x="824" y="1364"/>
      <point x="722" y="1458"/>
      <point x="617" y="1458" type="qcurve" smooth="yes"/>
      <point x="496" y="1458"/>
      <point x="370.0" y="1308.0"/>
      <point x="370" y="1066" type="qcurve" smooth="yes"/>
      <point x="370" y="355" type="line" smooth="yes"/>
      <point x="370" y="184"/>
      <point x="203" y="-16"/>
      <point x="68" y="-16" type="qcurve" smooth="yes"/>
      <point x="55" y="-16"/>
      <point x="28" y="-14"/>
      <point x="15" y="-12" type="qcurve"/>
      <point x="13" y="52" type="line"/>
      <point x="22" y="49"/>
      <point x="41" y="47"/>
      <point x="50" y="47" type="qcurve" smooth="yes"/>
      <point x="110" y="47"/>
      <point x="178" y="144.0"/>
      <point x="178" y="355" type="qcurve" smooth="yes"/>
    </contour>
  </outline>
</glyph>
<glyph name="endash" format="2">
  <advance width="1024"/>
  <unicode hex="2013"/>
  <outline>
    <contour>
      <point x="0" y="607" type="line"/>
      <point x="0" y="660" type="line"/>
      <point x="1024" y="660" type="line"/>
      <point x="1024" y="607" type="line"/>
    </contour>
  </outline>
</glyph>
<glyph name="emdash" format="2">
  <advance width="2048"/>
  <unicode hex="2014"/>
  <outline>
    <contour>
      <point x="260" y="607" type="line"/>
      <point x="260" y="660" type="line"/>
      <point x="1788" y="660" type="line"/>
      <point x="1788" y="607" type="line"/>
    </contour>
  </outline>
</glyph>
<glyph name="horizontalbar" format="2">
  <advance width="656"/>
  <unicode hex="2015"/>
  <outline>
    <contour>
      <point x="20" y="689" type="line"/>
      <point x="20" y="742" type="line"/>
      <point x="625" y="742" type="line"/>
      <point x="625" y="689" type="line"/>
    </contour>
  </outline>
</glyph>
<glyph name="second" format="2">
  <advance width="1054"/>
  <unicode hex="2033"/>
  <outline>
    <contour>
      <point x="146" y="936.0" type="line"/>
      <point x="395" y="1559" type="line"/>
      <point x="588" y="1452" type="line"/>
      <point x="186" y="912.0" type="line"/>
    </contour>
    <contour>
      <point x="546" y="936.0" type="line"/>
      <point x="795" y="1559" type="line"/>
      <point x="988" y="1452" type="line"/>
      <point x="586" y="912.0" type="line"/>
    </contour>
  </outline>
</glyph>
<glyph name="commercialMinusSign" format="2">
  <advance width="889"/>
  <unicode hex="2052"/>
  <outline>
    <contour>
      <point x="120" y="-17" type="line"/>
      <point x="705" y="1486" type="line"/>
      <point x="755" y="1473" type="line"/>
      <point x="170" y="-30" type="line"/>
    </contour>
    <contour>
      <point x="505" y="148" type="qcurve" smooth="yes"/>
      <point x="505" y="213"/>
      <point x="596" y="310"/>
      <point x="667" y="310" type="qcurve" smooth="yes"/>
      <point x="738" y="310"/>
      <point x="829" y="213"/>
      <point x="829" y="148" type="qcurve" smooth="yes"/>
      <point x="829" y="84"/>
      <point x="738" y="-13"/>
      <point x="667" y="-13" type="qcurve" smooth="yes"/>
      <point x="596" y="-13"/>
      <point x="505" y="84"/>
    </contour>
    <contour>
      <point x="60" y="1304" type="qcurve" smooth="yes"/>
      <point x="60" y="1369"/>
      <point x="151" y="1466"/>
      <point x="222" y="1466" type="qcurve" smooth="yes"/>
      <point x="293" y="1466"/>
      <point x="384" y="1369"/>
      <point x="384" y="1304" type="qcurve" smooth="yes"/>
      <point x="384" y="1240"/>
      <point x="293" y="1143"/>
      <point x="222" y="1143" type="qcurve" smooth="yes"/>
      <point x="151" y="1143"/>
      <point x="60" y="1240"/>
    </contour>
  </outline>
</glyph>
<glyph name="coloncurrency" format="2">
  <advance width="1154"/>
  <unicode hex="20A1"/>
  <guideline x="0" y="1570" angle="0" identifier="0DwZ2nfhdf"/>
  <outline>
    <contour>
      <point x="962" y="1570" type="line"/>
      <point x="931" y="1374" type="line"/>
      <point x="918" y="1351" type="line"/>
      <point x="734" y="30" type="line"/>
      <point x="740" y="5" type="line"/>
      <point x="720" y="-125" type="line"/>
      <point x="561" y="-125" type="line"/>
      <point x="580" y="2" type="line"/>
      <point x="594" y="28" type="line"/>
      <point x="791" y="1411" type="line"/>
      <point x="784" y="1431" type="line"/>
      <point x="804" y="1570" type="line"/>
    </contour>
    <contour>
      <point x="690" y="1570" type="line"/>
      <point x="674" y="1456" type="line"/>
      <point x="661" y="1435" type="line"/>
      <point x="462" y="45" type="line"/>
      <point x="468" y="18" type="line"/>
      <point x="448" y="-125" type="line"/>
      <point x="289" y="-125" type="line"/>
      <point x="321" y="101" type="line"/>
      <point x="335" y="127" type="line"/>
      <point x="522" y="1426" type="line"/>
      <point x="515" y="1449" type="line"/>
      <point x="532" y="1570" type="line"/>
    </contour>
    <contour>
      <point x="85" y="612" type="qcurve" smooth="yes"/>
      <point x="85" y="844" type="line" smooth="yes"/>
      <point x="85" y="1144"/>
      <point x="363" y="1466"/>
      <point x="621" y="1466" type="qcurve" smooth="yes"/>
      <point x="863" y="1466"/>
      <point x="1123" y="1245"/>
      <point x="1123" y="1040" type="qcurve" smooth="yes"/>
      <point x="1123" y="990" type="line"/>
      <point x="941" y="990" type="line"/>
      <point x="941" y="1041" type="line"/>
      <point x="941" y="1220"/>
      <point x="775" y="1412"/>
      <point x="621" y="1412" type="qcurve" smooth="yes"/>
      <point x="452.0" y="1412.0"/>
      <point x="271" y="1138"/>
      <point x="271" y="844" type="qcurve"/>
      <point x="271" y="592" type="line" smooth="yes"/>
      <point x="271" y="288.0"/>
      <point x="458" y="44"/>
      <point x="631" y="44" type="qcurve" smooth="yes"/>
      <point x="783" y="44"/>
      <point x="946" y="235"/>
      <point x="946" y="412" type="qcurve" smooth="yes"/>
      <point x="946" y="466" type="line"/>
      <point x="1133" y="466" type="line"/>
      <point x="1133" y="426" type="line" smooth="yes"/>
      <point x="1133" y="216"/>
      <point x="873" y="-10"/>
      <point x="631" y="-10" type="qcurve" smooth="yes"/>
      <point x="368" y="-10"/>
      <point x="85" y="312"/>
    </contour>
  </outline>
</glyph>
<glyph name="lira" format="2">
  <advance width="1024"/>
  <unicode hex="20A4"/>
  <outline>
    <contour>
      <point x="1028" y="0" type="line"/>
      <point x="36" y="0" type="line"/>
      <point x="36" y="55" type="line"/>
      <point x="92" y="55" type="line" smooth="yes"/>
      <point x="184" y="55"/>
      <point x="267" y="324"/>
      <point x="253" y="467" type="qcurve" smooth="yes"/>
      <point x="198" y="1039" type="line" smooth="yes"/>
      <point x="180" y="1228"/>
      <point x="380" y="1476"/>
      <point x="581" y="1476" type="qcurve" smooth="yes"/>
      <point x="771" y="1476"/>
      <point x="984" y="1270"/>
      <point x="984" y="1103" type="qcurve" smooth="yes"/>
      <point x="984" y="1087" type="line"/>
      <point x="792" y="1087" type="line"/>
      <point x="792" y="1103" type="line" smooth="yes"/>
      <point x="792.0" y="1318"/>
      <point x="675" y="1419"/>
      <point x="583" y="1419" type="qcurve" smooth="yes"/>
      <point x="481" y="1419"/>
      <point x="359" y="1261"/>
      <point x="380" y="1039" type="qcurve" smooth="yes"/>
      <point x="431" y="508" type="line" smooth="yes"/>
      <point x="444" y="372"/>
      <point x="342" y="80"/>
      <point x="262" y="55" type="qcurve"/>
      <point x="1028" y="55" type="line"/>
    </contour>
    <contour>
      <point x="804" y="485" type="line"/>
      <point x="42" y="485" type="line"/>
      <point x="42" y="530" type="line"/>
      <point x="804" y="530" type="line"/>
    </contour>
    <contour>
      <point x="804" y="815" type="line"/>
      <point x="42" y="815" type="line"/>
      <point x="42" y="860" type="line"/>
      <point x="804" y="860" type="line"/>
    </contour>
  </outline>
</glyph>
<glyph name="uni20AD" format="2">
  <advance width="1024"/>
  <unicode hex="20AD"/>
  <outline>
    <contour>
      <point x="130" y="0" type="line"/>
      <point x="130" y="1456" type="line"/>
      <point x="317" y="1456" type="line"/>
      <point x="317" y="659" type="line"/>
      <point x="917" y="1456" type="line"/>
      <point x="987" y="1456" type="line"/>
      <point x="317" y="570" type="line"/>
      <point x="317" y="0" type="line"/>
    </contour>
    <contour>
      <point x="845" y="0" type="line"/>
      <point x="441" y="756" type="line"/>
      <point x="557" y="901" type="line"/>
      <point x="1061" y="0" type="line"/>
    </contour>
    <contour>
      <point x="267" y="716" type="line"/>
      <point x="31" y="716" type="line"/>
      <point x="31" y="769" type="line"/>
      <point x="267" y="769" type="line"/>
    </contour>
    <contour>
      <point x="1021" y="769" type="line"/>
      <point x="1021" y="716" type="line"/>
      <point x="589" y="716" type="line"/>
      <point x="589" y="769" type="line"/>
    </contour>
  </outline>
</glyph>
<glyph name="uni20B2" format="2">
  <advance width="1024"/>
  <unicode hex="20B2"/>
  <outline>
    <contour>
      <point x="479" y="-190" type="line"/>
      <point x="479" y="17" type="line"/>
      <point x="497" y="31" type="line"/>
      <point x="497" y="708" type="line"/>
      <point x="627" y="708" type="line"/>
      <point x="627" y="30" type="line"/>
      <point x="649" y="20" type="line"/>
      <point x="649" y="-190" type="line"/>
    </contour>
    <contour>
      <point x="497" y="708" type="line"/>
      <point x="497" y="1432" type="line"/>
      <point x="482" y="1442" type="line"/>
      <point x="482" y="1582" type="line"/>
      <point x="642" y="1582" type="line"/>
      <point x="642" y="1442" type="line"/>
      <point x="627" y="1429" type="line"/>
      <point x="627" y="708" type="line"/>
    </contour>
    <contour>
      <point x="995" y="685" type="line"/>
      <point x="995" y="452" type="line" smooth="yes"/>
      <point x="995" y="232"/>
      <point x="774" y="-6"/>
      <point x="571" y="-6" type="qcurve"/>
      <point x="341" y="-6"/>
      <point x="94" y="278"/>
      <point x="94" y="542" type="qcurve" smooth="yes"/>
      <point x="94" y="897" type="line" smooth="yes"/>
      <point x="94" y="1180"/>
      <point x="336" y="1485"/>
      <point x="562" y="1485.0" type="qcurve" smooth="yes"/>
      <point x="705" y="1485"/>
      <point x="926" y="1372"/>
      <point x="988" y="1262" type="qcurve"/>
      <point x="871" y="1130" type="line"/>
      <point x="813" y="1239"/>
      <point x="669" y="1409.0"/>
      <point x="559" y="1409.0" type="qcurve" smooth="yes"/>
      <point x="435" y="1409"/>
      <point x="288" y="1145"/>
      <point x="288" y="899" type="qcurve" smooth="yes"/>
      <point x="288" y="544" type="line" smooth="yes"/>
      <point x="288" y="302"/>
      <point x="442" y="52"/>
      <point x="585" y="52" type="qcurve" smooth="yes"/>
      <point x="700" y="52"/>
      <point x="823.0" y="248"/>
      <point x="823" y="438" type="qcurve" smooth="yes"/>
      <point x="823" y="629" type="line"/>
      <point x="696" y="629" type="line"/>
      <point x="696" y="685" type="line"/>
    </contour>
  </outline>
</glyph>
<glyph name="hryvnia" format="2">
  <advance width="1024"/>
  <unicode hex="20B4"/>
  <outline>
    <contour>
      <point x="1033" y="601" type="line"/>
      <point x="-10" y="601" type="line"/>
      <point x="-10" y="546" type="line"/>
      <point x="1033" y="546" type="line"/>
    </contour>
    <contour>
      <point x="1033" y="931" type="line"/>
      <point x="-10" y="931" type="line"/>
      <point x="-10" y="876" type="line"/>
      <point x="1033" y="876" type="line"/>
    </contour>
    <contour>
      <point x="799" y="390" type="line"/>
      <point x="799" y="328" type="line" smooth="yes"/>
      <point x="799" y="186"/>
      <point x="655" y="34"/>
      <point x="521" y="34" type="qcurve" smooth="yes"/>
      <point x="398" y="34"/>
      <point x="260" y="185"/>
      <point x="255" y="325" type="qcurve" smooth="yes"/>
      <point x="252" y="408"/>
      <point x="282" y="530"/>
      <point x="297" y="567" type="qcurve"/>
      <point x="117" y="567" type="line"/>
      <point x="101" y="530"/>
      <point x="79" y="423"/>
      <point x="79" y="359" type="qcurve" smooth="yes"/>
      <point x="79" y="196"/>
      <point x="298" y="-30"/>
      <point x="521" y="-30" type="qcurve" smooth="yes"/>
      <point x="743" y="-30"/>
      <point x="976.0" y="189"/>
      <point x="976" y="378" type="qcurve" smooth="yes"/>
      <point x="976" y="390" type="line"/>
    </contour>
    <contour>
      <point x="539" y="1422" type="qcurve" smooth="yes"/>
      <point x="645" y="1422"/>
      <point x="759" y="1286"/>
      <point x="759" y="1160" type="qcurve" smooth="yes"/>
      <point x="759" y="1081"/>
      <point x="736" y="964"/>
      <point x="715" y="912" type="qcurve"/>
      <point x="916" y="912" type="line"/>
      <point x="931" y="965"/>
      <point x="949" y="1065"/>
      <point x="949" y="1124" type="qcurve" smooth="yes"/>
      <point x="949" y="1271"/>
      <point x="750" y="1486"/>
      <point x="542" y="1486" type="qcurve" smooth="yes"/>
      <point x="319" y="1486"/>
      <point x="104" y="1259"/>
      <point x="104" y="1084" type="qcurve" smooth="yes"/>
      <point x="104" y="1072" type="line"/>
      <point x="282" y="1072" type="line"/>
      <point x="282" y="1134" type="line" smooth="yes"/>
      <point x="282" y="1273"/>
      <point x="415" y="1422"/>
    </contour>
  </outline>
</glyph>
<glyph name="uni20B5" format="2">
  <advance width="1024"/>
  <unicode hex="20B5"/>
  <guideline x="0" y="-125" angle="0" identifier="1Am3eQoiKr"/>
  <outline>
    <contour>
      <point x="473" y="-190" type="line"/>
      <point x="473" y="-3" type="line"/>
      <point x="486" y="11" type="line"/>
      <point x="486" y="708" type="line"/>
      <point x="631" y="708" type="line"/>
      <point x="631" y="10" type="line"/>
      <point x="643" y="0" type="line"/>
      <point x="643" y="-190" type="line"/>
    </contour>
    <contour>
      <point x="486" y="708" type="line"/>
      <point x="486" y="1442" type="line"/>
      <point x="476" y="1452" type="line"/>
      <point x="476" y="1582" type="line"/>
      <point x="636" y="1582" type="line"/>
      <point x="636" y="1452" type="line"/>
      <point x="631" y="1439" type="line"/>
      <point x="631" y="708" type="line"/>
    </contour>
    <contour>
      <point x="821" y="436" type="qcurve" smooth="yes"/>
      <point x="821" y="460" type="line"/>
      <point x="1010" y="458" type="line"/>
      <point x="1010" y="436" type="line" smooth="yes"/>
      <point x="1010.0" y="234"/>
      <point x="776.0" y="-25.0"/>
      <point x="565" y="-25" type="qcurve" smooth="yes"/>
      <point x="354" y="-25"/>
      <point x="102" y="249"/>
      <point x="102" y="462" type="qcurve" smooth="yes"/>
      <point x="102" y="1002" type="line" smooth="yes"/>
      <point x="102" y="1213"/>
      <point x="345" y="1485"/>
      <point x="563" y="1485" type="qcurve" smooth="yes"/>
      <point x="779" y="1485"/>
      <point x="1010.0" y="1230"/>
      <point x="1010" y="1031" type="qcurve" smooth="yes"/>
      <point x="1010" y="1008" type="line"/>
      <point x="816" y="1006" type="line"/>
      <point x="816.0" y="1031" type="line" smooth="yes"/>
      <point x="816.0" y="1232"/>
      <point x="675" y="1429"/>
      <point x="566" y="1429" type="qcurve" smooth="yes"/>
      <point x="448" y="1429"/>
      <point x="296" y="1189"/>
      <point x="296" y="1004" type="qcurve" smooth="yes"/>
      <point x="296" y="464" type="line" smooth="yes"/>
      <point x="296" y="271"/>
      <point x="456" y="22"/>
      <point x="579" y="22" type="qcurve" smooth="yes"/>
      <point x="685" y="22"/>
      <point x="821" y="255"/>
    </contour>
  </outline>
</glyph>
<glyph name="arrowup" format="2">
  <advance width="1286"/>
  <unicode hex="2191"/>
  <guideline x="676.0" y="924.0" angle="0" identifier="tThH8atjx1"/>
  <outline>
    <contour>
      <point x="616.0" y="0.0" type="line"/>
      <point x="616.0" y="1004.0" type="line"/>
      <point x="246.0" y="715.0" type="line"/>
      <point x="200.0" y="749.0" type="line"/>
      <point x="617.0" y="1383.0" type="line"/>
      <point x="667.0" y="1383.0" type="line"/>
      <point x="1086.0" y="749.0" type="line"/>
      <point x="1038.0" y="715.0" type="line"/>
      <point x="668.0" y="1004.0" type="line"/>
      <point x="668.0" y="0.0" type="line"/>
    </contour>
  </outline>
</glyph>
<glyph name="arrowright" format="2">
  <advance width="1723"/>
  <unicode hex="2192"/>
  <guideline x="1094.0" y="773.0" angle="90.0" identifier="xShtOjvBze"/>
  <outline>
    <contour>
      <point x="170.0" y="667.0" type="line"/>
      <point x="170.0" y="719.0" type="line"/>
      <point x="1179.0" y="719.0" type="line"/>
      <point x="885.0" y="1089.0" type="line"/>
      <point x="919.0" y="1135.0" type="line"/>
      <point x="1553.0" y="718.0" type="line"/>
      <point x="1553.0" y="668.0" type="line"/>
      <point x="919.0" y="249.0" type="line"/>
      <point x="884.0" y="297.0" type="line"/>
      <point x="1179.0" y="667.0" type="line"/>
    </contour>
  </outline>
</glyph>
<glyph name="arrowdown" format="2">
  <advance width="1286"/>
  <unicode hex="2193"/>
  <guideline x="669.0" y="459.0" angle="0" identifier="F0Pg9tvdQE"/>
  <outline>
    <contour>
      <point x="617.0" y="0.0" type="line"/>
      <point x="200.0" y="634.0" type="line"/>
      <point x="246.0" y="668.0" type="line"/>
      <point x="616.0" y="369.0" type="line"/>
      <point x="616.0" y="1383.0" type="line"/>
      <point x="668.0" y="1383.0" type="line"/>
      <point x="668.0" y="369.0" type="line"/>
      <point x="1038.0" y="668.0" type="line"/>
      <point x="1086.0" y="634.0" type="line"/>
      <point x="667.0" y="0.0" type="line"/>
    </contour>
  </outline>
</glyph>
<glyph name="divisionslash" format="2">
  <advance width="656"/>
  <unicode hex="2215"/>
  <outline>
    <contour>
      <point x="-12" y="-130" type="line"/>
      <point x="604" y="1543" type="line"/>
      <point x="656" y="1525" type="line"/>
      <point x="40" y="-148" type="line"/>
    </contour>
  </outline>
</glyph>
<glyph name="approxequal" format="2">
  <advance width="1024"/>
  <unicode hex="2248"/>
  <outline>
    <contour>
      <point x="46" y="764" type="qcurve"/>
      <point x="46" y="837" type="line"/>
      <point x="93" y="888"/>
      <point x="225" y="946"/>
      <point x="290" y="947" type="qcurve" smooth="yes"/>
      <point x="369" y="948"/>
      <point x="461" y="905"/>
      <point x="524" y="874" type="qcurve" smooth="yes"/>
      <point x="583" y="844"/>
      <point x="668" y="804"/>
      <point x="742" y="804" type="qcurve" smooth="yes"/>
      <point x="807" y="804"/>
      <point x="932" y="872"/>
      <point x="979" y="932" type="qcurve"/>
      <point x="979" y="859" type="line"/>
      <point x="932" y="808"/>
      <point x="808" y="750"/>
      <point x="743" y="750" type="qcurve" smooth="yes"/>
      <point x="669" y="750"/>
      <point x="584" y="789"/>
      <point x="525" y="819" type="qcurve" smooth="yes"/>
      <point x="462" y="850"/>
      <point x="369" y="892"/>
      <point x="290" y="892" type="qcurve" smooth="yes"/>
      <point x="225" y="892"/>
      <point x="93" y="824"/>
    </contour>
    <contour>
      <point x="45" y="347" type="qcurve"/>
      <point x="45" y="420" type="line"/>
      <point x="92" y="471"/>
      <point x="224" y="528"/>
      <point x="289" y="529" type="qcurve" smooth="yes"/>
      <point x="368" y="530"/>
      <point x="460" y="487"/>
      <point x="523" y="456" type="qcurve" smooth="yes"/>
      <point x="582" y="426"/>
      <point x="667" y="387"/>
      <point x="741" y="387" type="qcurve" smooth="yes"/>
      <point x="806" y="387"/>
      <point x="931" y="455"/>
      <point x="978" y="515" type="qcurve"/>
      <point x="978" y="441" type="line"/>
      <point x="931" y="390"/>
      <point x="807" y="332"/>
      <point x="742" y="332" type="qcurve" smooth="yes"/>
      <point x="668" y="332"/>
      <point x="583" y="371"/>
      <point x="524" y="401" type="qcurve" smooth="yes"/>
      <point x="461" y="432"/>
      <point x="368" y="474"/>
      <point x="289" y="474" type="qcurve" smooth="yes"/>
      <point x="224" y="474"/>
      <point x="92" y="407"/>
    </contour>
  </outline>
</glyph>
<glyph name="notequal" format="2">
  <advance width="1024"/>
  <unicode hex="2260"/>
  <outline>
    <contour>
      <point x="835" y="1208" type="line"/>
      <point x="635" y="869" type="line"/>
      <point x="622" y="845" type="line"/>
      <point x="416" y="476" type="line"/>
      <point x="404" y="456" type="line"/>
      <point x="209" y="116" type="line"/>
      <point x="159" y="149" type="line"/>
      <point x="335" y="450" type="line"/>
      <point x="349" y="474" type="line"/>
      <point x="563" y="847" type="line"/>
      <point x="575" y="867" type="line"/>
      <point x="785" y="1241" type="line"/>
    </contour>
    <contour>
      <point x="57" y="435" type="line"/>
      <point x="57" y="490" type="line"/>
      <point x="967" y="490" type="line"/>
      <point x="967" y="435" type="line"/>
    </contour>
    <contour>
      <point x="57" y="830" type="line"/>
      <point x="57" y="885" type="line"/>
      <point x="967" y="885" type="line"/>
      <point x="967" y="830" type="line"/>
    </contour>
  </outline>
</glyph>
<glyph name="leftanglebracket" format="2">
  <advance width="700"/>
  <unicode hex="27E8"/>
  <outline>
    <contour>
      <point x="36" y="577" type="line"/>
      <point x="36" y="631" type="line"/>
      <point x="624" y="1474" type="line"/>
      <point x="662" y="1440" type="line"/>
      <point x="88" y="604" type="line"/>
      <point x="665" y="-253" type="line"/>
      <point x="620" y="-282" type="line"/>
    </contour>
  </outline>
</glyph>
<glyph name="rightanglebracket" format="2">
  <advance width="700"/>
  <unicode hex="27E9"/>
  <outline>
    <contour>
      <point x="35" y="-253" type="line"/>
      <point x="612" y="604" type="line"/>
      <point x="38" y="1440" type="line"/>
      <point x="76" y="1474" type="line"/>
      <point x="664" y="631" type="line"/>
      <point x="664" y="577" type="line"/>
      <point x="80" y="-282" type="line"/>
    </contour>
  </outline>
</glyph>
<glyph name="Zhe.bgr" format="2">
  <advance width="1935"/>
  <outline>
    <contour>
      <point x="1719" y="0" type="line"/>
      <point x="1155" y="756" type="line"/>
      <point x="1279" y="890" type="line"/>
      <point x="1955" y="0" type="line"/>
    </contour>
    <contour>
      <point x="211" y="0" type="line"/>
      <point x="-20" y="0" type="line"/>
      <point x="656" y="890" type="line"/>
      <point x="775" y="756" type="line"/>
    </contour>
    <contour>
      <point x="869" y="0" type="line"/>
      <point x="869" y="577" type="line"/>
      <point x="96" y="1456" type="line"/>
      <point x="171" y="1456" type="line"/>
      <point x="869" y="659" type="line"/>
      <point x="869" y="1456" type="line"/>
      <point x="1061" y="1456" type="line"/>
      <point x="1061" y="659" type="line"/>
      <point x="1760" y="1456" type="line"/>
      <point x="1831" y="1456" type="line"/>
      <point x="1061" y="577" type="line"/>
      <point x="1061" y="0" type="line"/>
    </contour>
  </outline>
</glyph>
<glyph name="acutecombstack.case" format="2">
  <advance width="1024"/>
  <outline>
    <contour>
      <point x="364" y="1631" type="line"/>
      <point x="604" y="1940" type="line"/>
      <point x="721" y="1777" type="line"/>
      <point x="384" y="1605" type="line"/>
    </contour>
  </outline>
</glyph>
<glyph name="be.locl" format="2">
  <advance width="1162"/>
  <outline>
    <contour>
      <point x="275.0" y="510" type="qcurve" smooth="yes"/>
      <point x="275.0" y="471" type="line" smooth="yes"/>
      <point x="275.0" y="282"/>
      <point x="429.0" y="22"/>
      <point x="581.0" y="22" type="qcurve" smooth="yes"/>
      <point x="733.0" y="22"/>
      <point x="887.0" y="282"/>
      <point x="887.0" y="471" type="qcurve" smooth="yes"/>
      <point x="887.0" y="510" type="line" smooth="yes"/>
      <point x="887.0" y="691"/>
      <point x="736.0" y="960"/>
      <point x="581.0" y="960" type="qcurve" smooth="yes"/>
      <point x="429.0" y="960"/>
      <point x="275.0" y="699"/>
    </contour>
    <contour>
      <point x="85" y="490" type="qcurve" smooth="yes"/>
      <point x="85" y="522" type="line" smooth="yes"/>
      <point x="85" y="676.4651379813"/>
      <point x="261" y="929"/>
      <point x="428" y="989" type="qcurve"/>
      <point x="428" y="993" type="line"/>
      <point x="286" y="1025"/>
      <point x="145" y="1129"/>
      <point x="145" y="1221" type="qcurve" smooth="yes"/>
      <point x="145" y="1344"/>
      <point x="331" y="1485"/>
      <point x="556" y="1485" type="qcurve" smooth="yes"/>
      <point x="753" y="1485" type="line" smooth="yes"/>
      <point x="859.0" y="1485.0"/>
      <point x="953" y="1503"/>
      <point x="962" y="1536" type="qcurve"/>
      <point x="1025" y="1536" type="line"/>
      <point x="1013" y="1422"/>
      <point x="855" y="1316"/>
      <point x="665" y="1316" type="qcurve" smooth="yes"/>
      <point x="568" y="1316" type="line" smooth="yes"/>
      <point x="428" y="1316"/>
      <point x="322" y="1265"/>
      <point x="322.0" y="1196" type="qcurve" smooth="yes"/>
      <point x="322.0" y="1131"/>
      <point x="491" y="1036"/>
      <point x="679" y="1001" type="qcurve" smooth="yes"/>
      <point x="867.0" y="966"/>
      <point x="1077" y="724"/>
      <point x="1077" y="522" type="qcurve" smooth="yes"/>
      <point x="1077" y="490" type="line" smooth="yes"/>
      <point x="1077" y="261"/>
      <point x="807" y="-30"/>
      <point x="581" y="-30" type="qcurve" smooth="yes"/>
      <point x="355" y="-30"/>
      <point x="85" y="261"/>
    </contour>
  </outline>
</glyph>
<glyph name="breve.cyr.case" format="2">
  <advance width="1024"/>
  <outline>
    <contour>
      <point x="512" y="1757" type="qcurve" smooth="yes"/>
      <point x="632" y="1757"/>
      <point x="765" y="1813"/>
      <point x="792" y="1908" type="qcurve"/>
      <point x="840" y="1881" type="line"/>
      <point x="839" y="1753"/>
      <point x="668" y="1600"/>
      <point x="512" y="1600" type="qcurve" smooth="yes"/>
      <point x="356" y="1600"/>
      <point x="186" y="1752"/>
      <point x="179" y="1879" type="qcurve"/>
      <point x="226" y="1904" type="line"/>
      <point x="257" y="1821"/>
      <point x="392.0" y="1757.0"/>
    </contour>
  </outline>
</glyph>
<glyph name="breve.cyr" format="2">
  <advance width="1062"/>
  <anchor x="512" y="1052" name="_top"/>
  <anchor x="512" y="1536" name="top"/>
  <outline>
    <contour>
      <point x="531" y="1371" type="qcurve" smooth="yes"/>
      <point x="620" y="1371"/>
      <point x="740" y="1419"/>
      <point x="763" y="1505" type="qcurve"/>
      <point x="805" y="1482" type="line"/>
      <point x="801" y="1367"/>
      <point x="660.0" y="1218.0"/>
      <point x="531" y="1218" type="qcurve" smooth="yes"/>
      <point x="402" y="1218"/>
      <point x="250" y="1367"/>
      <point x="256" y="1484" type="qcurve"/>
      <point x="294" y="1502" type="line"/>
      <point x="321" y="1419"/>
      <point x="442.0" y="1371.0"/>
    </contour>
  </outline>
</glyph>
<glyph name="breveacutecomb.case" format="2">
  <advance width="1024"/>
  <outline>
    <contour>
      <point x="840" y="1853" type="qcurve"/>
      <point x="877" y="1834" type="line"/>
      <point x="840" y="1747"/>
      <point x="649" y="1600"/>
      <point x="512" y="1600" type="qcurve" smooth="yes"/>
      <point x="390" y="1600"/>
      <point x="194" y="1735"/>
      <point x="148" y="1835" type="qcurve"/>
      <point x="188" y="1859" type="line"/>
      <point x="245" y="1804"/>
      <point x="427" y="1759"/>
      <point x="512" y="1759" type="qcurve" smooth="yes"/>
      <point x="604" y="1759"/>
      <point x="785" y="1810"/>
    </contour>
    <contour>
      <point x="458" y="1983" type="line"/>
      <point x="706" y="2286" type="line"/>
      <point x="822" y="2122" type="line"/>
      <point x="485" y="1950" type="line"/>
    </contour>
  </outline>
</glyph>
<glyph name="breveacutecomb" format="2">
  <advance width="1024"/>
  <outline>
    <contour>
      <point x="804" y="1508" type="qcurve"/>
      <point x="847" y="1486" type="line"/>
      <point x="812" y="1387"/>
      <point x="637" y="1220"/>
      <point x="511" y="1220" type="qcurve" smooth="yes"/>
      <point x="398" y="1220"/>
      <point x="217" y="1373"/>
      <point x="175" y="1487" type="qcurve"/>
      <point x="217" y="1508" type="line"/>
      <point x="268" y="1449"/>
      <point x="408" y="1384"/>
      <point x="512" y="1384" type="qcurve" smooth="yes"/>
      <point x="616.0" y="1384.0"/>
      <point x="742" y="1443"/>
    </contour>
    <contour>
      <point x="476" y="1620" type="line"/>
      <point x="655" y="1970" type="line"/>
      <point x="808" y="1865" type="line"/>
      <point x="509" y="1590" type="line"/>
    </contour>
  </outline>
</glyph>
<glyph name="brevecomb.case" format="2">
  <advance width="1024"/>
  <outline>
    <contour>
      <point x="863" y="1890" type="qcurve"/>
      <point x="896" y="1866" type="line"/>
      <point x="857" y="1767"/>
      <point x="656" y="1600"/>
      <point x="512" y="1600" type="qcurve" smooth="yes"/>
      <point x="384" y="1600"/>
      <point x="177" y="1753"/>
      <point x="129" y="1867" type="qcurve"/>
      <point x="164" y="1891" type="line"/>
      <point x="236" y="1787"/>
      <point x="417" y="1667"/>
      <point x="512" y="1667" type="qcurve" smooth="yes"/>
      <point x="614" y="1667"/>
      <point x="801" y="1794"/>
    </contour>
  </outline>
</glyph>
<glyph name="brevecombstack.case" format="2">
  <advance width="1024"/>
  <anchor x="512" y="1536" name="_top"/>
  <anchor x="512" y="1910" name="top"/>
  <outline>
    <contour>
      <point x="830" y="1872" type="qcurve"/>
      <point x="877" y="1844" type="line"/>
      <point x="840" y="1757"/>
      <point x="649" y="1610"/>
      <point x="512" y="1610" type="qcurve" smooth="yes"/>
      <point x="390" y="1610"/>
      <point x="194" y="1745"/>
      <point x="148" y="1845" type="qcurve"/>
      <point x="192" y="1873" type="line"/>
      <point x="235" y="1831"/>
      <point x="427" y="1769"/>
      <point x="512" y="1769" type="qcurve" smooth="yes"/>
      <point x="604" y="1769"/>
      <point x="771" y="1821"/>
    </contour>
  </outline>
</glyph>
<glyph name="brevegravecomb.case" format="2">
  <advance width="1024"/>
  <outline>
    <contour>
      <point x="844" y="1858" type="qcurve"/>
      <point x="877" y="1834" type="line"/>
      <point x="840" y="1747"/>
      <point x="649" y="1600"/>
      <point x="512" y="1600" type="qcurve" smooth="yes"/>
      <point x="390" y="1600"/>
      <point x="194" y="1735"/>
      <point x="148" y="1835" type="qcurve"/>
      <point x="189" y="1859" type="line"/>
      <point x="237" y="1809"/>
      <point x="427" y="1759"/>
      <point x="512" y="1759" type="qcurve" smooth="yes"/>
      <point x="604" y="1759"/>
      <point x="781" y="1803"/>
    </contour>
    <contour>
      <point x="565" y="1950" type="line"/>
      <point x="182" y="2136" type="line"/>
      <point x="289" y="2299" type="line"/>
      <point x="587" y="1983" type="line"/>
    </contour>
  </outline>
</glyph>
<glyph name="brevegravecomb" format="2">
  <advance width="1024"/>
  <outline>
    <contour>
      <point x="807" y="1505" type="qcurve"/>
      <point x="848" y="1486" type="line"/>
      <point x="813" y="1387"/>
      <point x="638" y="1220"/>
      <point x="512" y="1220" type="qcurve" smooth="yes"/>
      <point x="399" y="1220"/>
      <point x="218" y="1373"/>
      <point x="176" y="1487" type="qcurve"/>
      <point x="215" y="1505" type="line"/>
      <point x="277" y="1438"/>
      <point x="434" y="1384"/>
      <point x="513" y="1384" type="qcurve" smooth="yes"/>
      <point x="597" y="1384"/>
      <point x="745" y="1438"/>
    </contour>
    <contour>
      <point x="509" y="1590" type="line"/>
      <point x="210" y="1865" type="line"/>
      <point x="363" y="1970" type="line"/>
      <point x="537" y="1613" type="line"/>
    </contour>
  </outline>
</glyph>
<glyph name="brevehookabovecomb.case" format="2">
  <advance width="1024"/>
  <outline>
    <contour>
      <point x="844" y="1858" type="qcurve"/>
      <point x="877" y="1834" type="line"/>
      <point x="840" y="1747"/>
      <point x="649" y="1600"/>
      <point x="512" y="1600" type="qcurve" smooth="yes"/>
      <point x="390" y="1600"/>
      <point x="194" y="1735"/>
      <point x="148" y="1835" type="qcurve"/>
      <point x="189" y="1859" type="line"/>
      <point x="237" y="1809"/>
      <point x="427" y="1759"/>
      <point x="512" y="1759" type="qcurve" smooth="yes"/>
      <point x="604" y="1759"/>
      <point x="781" y="1803"/>
    </contour>
    <contour>
      <point x="456" y="1950" type="line"/>
      <point x="456" y="1997" type="line" smooth="yes"/>
      <point x="456" y="2042"/>
      <point x="494" y="2094"/>
      <point x="561" y="2103" type="qcurve" smooth="yes"/>
      <point x="612" y="2110"/>
      <point x="637.0" y="2177.0"/>
      <point x="637.0" y="2217" type="qcurve" smooth="yes"/>
      <point x="637" y="2257"/>
      <point x="595" y="2311.0"/>
      <point x="547" y="2311.0" type="qcurve" smooth="yes"/>
      <point x="500" y="2311"/>
      <point x="383" y="2280"/>
      <point x="357" y="2269" type="qcurve"/>
      <point x="334" y="2312" type="line"/>
      <point x="365" y="2329"/>
      <point x="501" y="2364"/>
      <point x="575" y="2364" type="qcurve" smooth="yes"/>
      <point x="681" y="2364"/>
      <point x="791" y="2275"/>
      <point x="791" y="2191" type="qcurve" smooth="yes"/>
      <point x="791" y="2104"/>
      <point x="666" y="2036"/>
      <point x="519" y="2036" type="qcurve"/>
      <point x="521" y="1950" type="line"/>
    </contour>
  </outline>
</glyph>
<glyph name="brevehookabovecomb" format="2">
  <advance width="1024"/>
  <anchor x="512" y="1052" name="_top"/>
  <outline>
    <contour>
      <point x="806" y="1507" type="qcurve"/>
      <point x="848" y="1486" type="line"/>
      <point x="813" y="1387"/>
      <point x="638" y="1220"/>
      <point x="512" y="1220" type="qcurve" smooth="yes"/>
      <point x="399" y="1220"/>
      <point x="218" y="1373"/>
      <point x="176" y="1487" type="qcurve"/>
      <point x="218" y="1508" type="line"/>
      <point x="288" y="1439"/>
      <point x="434" y="1384"/>
      <point x="513" y="1384" type="qcurve" smooth="yes"/>
      <point x="597" y="1384"/>
      <point x="743" y="1440"/>
    </contour>
    <contour>
      <point x="453" y="1591" type="line"/>
      <point x="453" y="1630" type="line" smooth="yes"/>
      <point x="453" y="1682"/>
      <point x="503" y="1744"/>
      <point x="564" y="1763" type="qcurve" smooth="yes"/>
      <point x="618" y="1780"/>
      <point x="660.0" y="1836"/>
      <point x="660.0" y="1882" type="qcurve" smooth="yes"/>
      <point x="660" y="1935"/>
      <point x="573" y="1986"/>
      <point x="519" y="1986" type="qcurve" smooth="yes"/>
      <point x="455" y="1986"/>
      <point x="343" y="1953"/>
      <point x="333" y="1945" type="qcurve"/>
      <point x="307" y="2003" type="line"/>
      <point x="342" y="2022"/>
      <point x="496" y="2063"/>
      <point x="578" y="2063" type="qcurve" smooth="yes"/>
      <point x="698" y="2063"/>
      <point x="823" y="1949"/>
      <point x="823" y="1853" type="qcurve" smooth="yes"/>
      <point x="823" y="1763"/>
      <point x="665" y="1672"/>
      <point x="498" y="1672" type="qcurve"/>
      <point x="498" y="1591" type="line"/>
    </contour>
  </outline>
</glyph>
<glyph name="breveinvertedcomb.case" format="2">
  <advance width="1024"/>
  <anchor x="512" y="1456" name="_top"/>
  <anchor x="512" y="1936" name="top"/>
  <outline>
    <contour>
      <point x="171" y="1641" type="qcurve"/>
      <point x="129" y="1670" type="line"/>
      <point x="168" y="1769"/>
      <point x="369" y="1936"/>
      <point x="513" y="1936" type="qcurve" smooth="yes"/>
      <point x="641" y="1936"/>
      <point x="848" y="1783"/>
      <point x="896" y="1669" type="qcurve"/>
      <point x="852" y="1639" type="line"/>
      <point x="800" y="1690"/>
      <point x="608" y="1767"/>
      <point x="513" y="1767" type="qcurve" smooth="yes"/>
      <point x="411" y="1767"/>
      <point x="228" y="1702"/>
    </contour>
  </outline>
</glyph>
<glyph name="brevetildecomb" format="2">
  <advance width="1024"/>
  <anchor x="512" y="1052" name="_top"/>
  <outline>
    <contour>
      <point x="817" y="1502" type="qcurve"/>
      <point x="848" y="1486" type="line"/>
      <point x="813" y="1387"/>
      <point x="638" y="1220"/>
      <point x="512" y="1220" type="qcurve" smooth="yes"/>
      <point x="399" y="1220"/>
      <point x="218" y="1373"/>
      <point x="176" y="1487" type="qcurve"/>
      <point x="211" y="1504" type="line"/>
      <point x="253" y="1438"/>
      <point x="434" y="1384"/>
      <point x="513" y="1384" type="qcurve" smooth="yes"/>
      <point x="597" y="1384"/>
      <point x="727" y="1426"/>
    </contour>
    <contour>
      <point x="135" y="1746" type="line"/>
      <point x="168" y="1809"/>
      <point x="306" y="1907"/>
      <point x="373" y="1907" type="qcurve" smooth="yes"/>
      <point x="414" y="1907"/>
      <point x="491" y="1887"/>
      <point x="548" y="1840" type="qcurve" smooth="yes"/>
      <point x="591" y="1804"/>
      <point x="683" y="1734"/>
      <point x="721" y="1734" type="qcurve" smooth="yes"/>
      <point x="761" y="1734"/>
      <point x="831" y="1787"/>
      <point x="854" y="1823" type="qcurve"/>
      <point x="890" y="1783" type="line"/>
      <point x="852" y="1712"/>
      <point x="719" y="1640"/>
      <point x="662" y="1640" type="qcurve" smooth="yes"/>
      <point x="613" y="1640"/>
      <point x="516" y="1678"/>
      <point x="469" y="1716" type="qcurve" smooth="yes"/>
      <point x="428" y="1748"/>
      <point x="341" y="1804"/>
      <point x="312" y="1804" type="qcurve" smooth="yes"/>
      <point x="265" y="1804"/>
      <point x="184" y="1732"/>
      <point x="166" y="1705" type="qcurve"/>
    </contour>
  </outline>
</glyph>
<glyph name="caroncomb.case" format="2">
  <advance width="1024"/>
  <outline>
    <contour>
      <point x="438" y="1600" type="line"/>
      <point x="172" y="1939" type="line"/>
      <point x="239" y="1941" type="line"/>
      <point x="505" y="1759" type="line"/>
      <point x="765" y="1939" type="line"/>
      <point x="838" y="1939" type="line"/>
      <point x="582" y="1600" type="line"/>
    </contour>
  </outline>
</glyph>
<glyph name="cedillacomb.case" format="2">
  <advance width="1024"/>
  <outline>
    <contour>
      <point x="430" y="20" type="line"/>
      <point x="502" y="20" type="line"/>
      <point x="470" y="-134" type="line"/>
      <point x="616" y="-148"/>
      <point x="744" y="-234"/>
      <point x="744.0" y="-312" type="qcurve" smooth="yes"/>
      <point x="744" y="-391"/>
      <point x="520" y="-517"/>
      <point x="318" y="-517" type="qcurve"/>
      <point x="316" y="-452" type="line"/>
      <point x="432" y="-453"/>
      <point x="543" y="-386"/>
      <point x="543.0" y="-282" type="qcurve" smooth="yes"/>
      <point x="543" y="-232"/>
      <point x="472" y="-169"/>
      <point x="398" y="-162" type="qcurve"/>
    </contour>
  </outline>
</glyph>
<glyph name="cent.rvrn" format="2">
  <advance width="1024"/>
  <outline>
    <contour>
      <point x="547.0" y="183" type="qcurve" smooth="yes"/>
      <point x="659.0" y="183"/>
      <point x="791" y="343"/>
      <point x="802" y="492" type="qcurve"/>
      <point x="978" y="492" type="line"/>
      <point x="968" y="318"/>
      <point x="745" y="130"/>
      <point x="547" y="130" type="qcurve" smooth="yes"/>
      <point x="315" y="130"/>
      <point x="65" y="410"/>
      <point x="65" y="670" type="qcurve" smooth="yes"/>
      <point x="65" y="712" type="line" smooth="yes"/>
      <point x="65" y="972"/>
      <point x="315" y="1252"/>
      <point x="547" y="1252" type="qcurve" smooth="yes"/>
      <point x="747" y="1252"/>
      <point x="970" y="1049"/>
      <point x="978" y="860" type="qcurve"/>
      <point x="802" y="860" type="line"/>
      <point x="791" y="1019"/>
      <point x="659.0" y="1191"/>
      <point x="547.0" y="1191" type="qcurve" smooth="yes"/>
      <point x="404.0" y="1191"/>
      <point x="251.0" y="943"/>
      <point x="251.0" y="713" type="qcurve" smooth="yes"/>
      <point x="251.0" y="661" type="line" smooth="yes"/>
      <point x="251.0" y="431"/>
      <point x="404.0" y="183"/>
    </contour>
    <contour>
      <point x="469" y="0" type="line"/>
      <point x="469" y="147" type="line"/>
      <point x="474" y="161" type="line"/>
      <point x="474" y="175" type="line"/>
      <point x="614" y="175" type="line"/>
      <point x="614" y="160" type="line"/>
      <point x="619" y="150" type="line"/>
      <point x="619" y="0" type="line"/>
    </contour>
    <contour>
      <point x="474" y="1202" type="line"/>
      <point x="474" y="1218" type="line"/>
      <point x="469" y="1228" type="line"/>
      <point x="469" y="1402" type="line"/>
      <point x="619" y="1402" type="line"/>
      <point x="619" y="1228" type="line"/>
      <point x="614" y="1215" type="line"/>
      <point x="614" y="1202" type="line"/>
    </contour>
  </outline>
</glyph>
<glyph name="circumflexgravecomb.case" format="2">
  <advance width="1024"/>
  <outline>
    <contour>
      <point x="579" y="1892" type="line"/>
      <point x="844" y="1602" type="line"/>
      <point x="782" y="1600" type="line"/>
      <point x="511" y="1739" type="line"/>
      <point x="246" y="1602" type="line"/>
      <point x="178" y="1602" type="line"/>
      <point x="435" y="1892" type="line"/>
    </contour>
    <contour>
      <point x="985" y="1792" type="line"/>
      <point x="602" y="1978" type="line"/>
      <point x="709" y="2141" type="line"/>
      <point x="1013" y="1832" type="line"/>
    </contour>
  </outline>
</glyph>
<glyph name="circumflexgravecomb" format="2">
  <advance width="1024"/>
  <outline>
    <contour>
      <point x="567" y="1533" type="line"/>
      <point x="815" y="1220" type="line"/>
      <point x="741" y="1220" type="line"/>
      <point x="511" y="1379" type="line"/>
      <point x="282" y="1220" type="line"/>
      <point x="210" y="1220" type="line"/>
      <point x="455" y="1533" type="line"/>
    </contour>
    <contour>
      <point x="866" y="1433" type="line"/>
      <point x="567" y="1708" type="line"/>
      <point x="720" y="1813" type="line"/>
      <point x="896" y="1457" type="line"/>
    </contour>
  </outline>
</glyph>
<glyph name="circumflexhookabovecomb.case" format="2">
  <advance width="1024"/>
  <outline>
    <contour>
      <point x="579" y="1892" type="line"/>
      <point x="844" y="1602" type="line"/>
      <point x="782" y="1600" type="line"/>
      <point x="511" y="1739" type="line"/>
      <point x="246" y="1602" type="line"/>
      <point x="178" y="1602" type="line"/>
      <point x="435" y="1892" type="line"/>
    </contour>
    <contour>
      <point x="788" y="1819" type="line"/>
      <point x="788" y="1866" type="line" smooth="yes"/>
      <point x="788" y="1911"/>
      <point x="818" y="1941"/>
      <point x="874" y="1949" type="qcurve" smooth="yes"/>
      <point x="921" y="1956"/>
      <point x="957" y="2024"/>
      <point x="957" y="2071" type="qcurve" smooth="yes"/>
      <point x="957" y="2114"/>
      <point x="889" y="2175"/>
      <point x="840" y="2175" type="qcurve" smooth="yes"/>
      <point x="784" y="2175"/>
      <point x="685" y="2146"/>
      <point x="676" y="2139" type="qcurve"/>
      <point x="653" y="2181" type="line"/>
      <point x="684" y="2198"/>
      <point x="820" y="2233"/>
      <point x="894" y="2233" type="qcurve" smooth="yes"/>
      <point x="1000" y="2233"/>
      <point x="1110.0" y="2134.0"/>
      <point x="1110.0" y="2063" type="qcurve" smooth="yes"/>
      <point x="1110" y="1992"/>
      <point x="1001" y="1898"/>
      <point x="836" y="1892" type="qcurve"/>
      <point x="836" y="1819" type="line"/>
    </contour>
  </outline>
</glyph>
<glyph name="circumflexhookabovecomb" format="2">
  <advance width="1024"/>
  <outline>
    <contour>
      <point x="567" y="1533" type="line"/>
      <point x="815" y="1220" type="line"/>
      <point x="731" y="1220" type="line"/>
      <point x="511" y="1379" type="line"/>
      <point x="292" y="1220" type="line"/>
      <point x="210" y="1220" type="line"/>
      <point x="455" y="1533" type="line"/>
    </contour>
    <contour>
      <point x="800" y="1433" type="line"/>
      <point x="800" y="1512" type="line" smooth="yes"/>
      <point x="800.0" y="1564.0"/>
      <point x="846" y="1575"/>
      <point x="911" y="1585" type="qcurve" smooth="yes"/>
      <point x="967" y="1594"/>
      <point x="1007.0" y="1671"/>
      <point x="1007.0" y="1717" type="qcurve" smooth="yes"/>
      <point x="1007" y="1781"/>
      <point x="946" y="1844.0"/>
      <point x="891" y="1844.0" type="qcurve" smooth="yes"/>
      <point x="830" y="1844"/>
      <point x="711.0" y="1810"/>
      <point x="680" y="1787" type="qcurve"/>
      <point x="654" y="1845" type="line"/>
      <point x="689" y="1864"/>
      <point x="843" y="1905"/>
      <point x="925" y="1905" type="qcurve" smooth="yes"/>
      <point x="1045" y="1905"/>
      <point x="1170" y="1805"/>
      <point x="1170.0" y="1716" type="qcurve" smooth="yes"/>
      <point x="1170.0" y="1619"/>
      <point x="1024" y="1544"/>
      <point x="845" y="1534" type="qcurve"/>
      <point x="845" y="1433" type="line"/>
    </contour>
  </outline>
</glyph>
<glyph name="circumflextildecomb" format="2">
  <advance width="1024"/>
  <anchor x="512" y="1052" name="_top"/>
  <outline>
    <contour>
      <point x="567" y="1533" type="line"/>
      <point x="815" y="1220" type="line"/>
      <point x="761" y="1220" type="line"/>
      <point x="511" y="1379" type="line"/>
      <point x="262" y="1220" type="line"/>
      <point x="210" y="1220" type="line"/>
      <point x="455" y="1533" type="line"/>
    </contour>
    <contour>
      <point x="135" y="1739" type="line"/>
      <point x="168" y="1802"/>
      <point x="306" y="1900"/>
      <point x="373" y="1900" type="qcurve" smooth="yes"/>
      <point x="414" y="1900"/>
      <point x="493" y="1877"/>
      <point x="554" y="1828" type="qcurve" smooth="yes"/>
      <point x="604" y="1788"/>
      <point x="688" y="1726"/>
      <point x="726" y="1726" type="qcurve" smooth="yes"/>
      <point x="766" y="1726"/>
      <point x="836" y="1779"/>
      <point x="859" y="1815" type="qcurve"/>
      <point x="890" y="1776" type="line"/>
      <point x="852" y="1705"/>
      <point x="719" y="1633"/>
      <point x="662" y="1633" type="qcurve" smooth="yes"/>
      <point x="613" y="1633"/>
      <point x="514" y="1668"/>
      <point x="462" y="1718" type="qcurve" smooth="yes"/>
      <point x="411" y="1767"/>
      <point x="343" y="1801"/>
      <point x="314" y="1801" type="qcurve" smooth="yes"/>
      <point x="267" y="1801"/>
      <point x="186" y="1729"/>
      <point x="168" y="1702" type="qcurve"/>
    </contour>
  </outline>
</glyph>
<glyph name="commaaccentcomb.case" format="2">
  <advance width="1024"/>
  <outline>
    <contour>
      <point x="394" y="-596" type="line"/>
      <point x="413" y="-494"/>
      <point x="453" y="-316"/>
      <point x="471" y="-185" type="qcurve"/>
      <point x="561" y="-185" type="line"/>
      <point x="438" y="-600" type="line"/>
    </contour>
  </outline>
</glyph>
<glyph name="diagonalbarL" format="2">
  <advance width="741"/>
  <outline>
    <contour>
      <point x="55" y="487" type="line"/>
      <point x="20" y="548" type="line"/>
      <point x="684" y="959" type="line"/>
      <point x="720" y="901" type="line"/>
    </contour>
  </outline>
</glyph>
<glyph name="diagonalbaro" format="2">
  <advance width="512"/>
  <outline>
    <contour>
      <point x="-32" y="-118" type="line"/>
      <point x="50" y="84" type="line"/>
      <point x="50" y="84" type="line"/>
      <point x="245" y="563" type="line"/>
      <point x="289" y="539" type="line"/>
      <point x="97" y="55" type="line"/>
      <point x="97" y="55" type="line"/>
      <point x="21" y="-123" type="line"/>
    </contour>
    <contour>
      <point x="476" y="1144" type="line"/>
      <point x="533" y="1141" type="line"/>
      <point x="456" y="953" type="line"/>
      <point x="456" y="953" type="line"/>
      <point x="289" y="539" type="line"/>
      <point x="245" y="563" type="line"/>
      <point x="412" y="987" type="line"/>
      <point x="412" y="987" type="line"/>
    </contour>
  </outline>
</glyph>
<glyph name="diagonalbaro.rvrn" format="2">
  <advance width="512"/>
  <outline>
    <contour>
      <point x="-88" y="-118" type="line"/>
      <point x="-4" y="89" type="line"/>
      <point x="14" y="84" type="line"/>
      <point x="18" y="91" type="line"/>
      <point x="117" y="21" type="line"/>
      <point x="108" y="2" type="line"/>
      <point x="128" y="-2" type="line"/>
      <point x="77" y="-123" type="line"/>
    </contour>
    <contour>
      <point x="418" y="1144" type="line"/>
      <point x="589" y="1141" type="line"/>
      <point x="511" y="948" type="line"/>
      <point x="490" y="953" type="line"/>
      <point x="483" y="933" type="line"/>
      <point x="384" y="1003" type="line"/>
      <point x="390" y="1018" type="line"/>
      <point x="370" y="1024" type="line"/>
    </contour>
  </outline>
</glyph>
<glyph name="dollar.rvrn" format="2">
  <advance width="1024"/>
  <outline>
    <contour>
      <point x="21" y="381" type="qcurve" smooth="yes"/>
      <point x="21" y="393" type="line"/>
      <point x="205" y="393" type="line"/>
      <point x="205" y="381" type="line" smooth="yes"/>
      <point x="205" y="200"/>
      <point x="361" y="50"/>
      <point x="515" y="50" type="qcurve" smooth="yes"/>
      <point x="668" y="50"/>
      <point x="809" y="223"/>
      <point x="809" y="364" type="qcurve" smooth="yes"/>
      <point x="809" y="487"/>
      <point x="678" y="603"/>
      <point x="449" y="669" type="qcurve" smooth="yes"/>
      <point x="221" y="735"/>
      <point x="49" y="948"/>
      <point x="49.0" y="1097" type="qcurve" smooth="yes"/>
      <point x="49" y="1255"/>
      <point x="284" y="1456"/>
      <point x="505" y="1456" type="qcurve" smooth="yes"/>
      <point x="726" y="1456"/>
      <point x="964" y="1258"/>
      <point x="964" y="1078" type="qcurve" smooth="yes"/>
      <point x="964" y="1065" type="line"/>
      <point x="780" y="1065" type="line"/>
      <point x="780" y="1077" type="line" smooth="yes"/>
      <point x="780" y="1237"/>
      <point x="653" y="1406"/>
      <point x="505" y="1406" type="qcurve" smooth="yes"/>
      <point x="357" y="1406"/>
      <point x="232" y="1248"/>
      <point x="232" y="1106" type="qcurve" smooth="yes"/>
      <point x="232" y="991"/>
      <point x="354" y="874"/>
      <point x="579" y="808" type="qcurve" smooth="yes"/>
      <point x="803" y="742"/>
      <point x="990" y="527"/>
      <point x="991" y="364" type="qcurve" smooth="yes"/>
      <point x="992" y="204"/>
      <point x="745" y="0"/>
      <point x="515" y="0" type="qcurve" smooth="yes"/>
      <point x="284" y="0"/>
      <point x="21" y="180"/>
    </contour>
    <contour>
      <point x="480" y="-170" type="line"/>
      <point x="480" y="18" type="line"/>
      <point x="550" y="18" type="line"/>
      <point x="550" y="10" type="line"/>
      <point x="550" y="0" type="line"/>
      <point x="550" y="-170" type="line"/>
    </contour>
    <contour>
      <point x="481" y="1413" type="line"/>
      <point x="481" y="1426" type="line"/>
      <point x="480" y="1436" type="line"/>
      <point x="480" y="1586" type="line"/>
      <point x="550" y="1586" type="line"/>
      <point x="550" y="1413" type="line"/>
    </contour>
  </outline>
</glyph>
<glyph name="dotaccentcomb.case" format="2">
  <advance width="1024"/>
  <anchor x="512" y="1456" name="_top"/>
  <anchor x="512" y="1836" name="top"/>
  <outline>
    <contour>
      <point x="391" y="1718" type="qcurve" smooth="yes"/>
      <point x="391" y="1775"/>
      <point x="453" y="1836"/>
      <point x="512" y="1836" type="qcurve" smooth="yes"/>
      <point x="567" y="1836"/>
      <point x="633" y="1771"/>
      <point x="633" y="1718" type="qcurve" smooth="yes"/>
      <point x="633" y="1661"/>
      <point x="571" y="1600"/>
      <point x="512" y="1600" type="qcurve" smooth="yes"/>
      <point x="457" y="1600"/>
      <point x="391" y="1665"/>
    </contour>
  </outline>
</glyph>
<glyph name="five.prop" format="2">
  <advance width="1072"/>
  <outline>
    <contour>
      <point x="60" y="365" type="qcurve" smooth="yes"/>
      <point x="60" y="375" type="line"/>
      <point x="244" y="375" type="line"/>
      <point x="244" y="365" type="line" smooth="yes"/>
      <point x="244" y="205"/>
      <point x="400" y="20"/>
      <point x="530" y="20" type="qcurve" smooth="yes"/>
      <point x="660" y="20"/>
      <point x="826" y="254"/>
      <point x="826" y="465" type="qcurve" smooth="yes"/>
      <point x="826" y="655"/>
      <point x="660" y="854"/>
      <point x="530" y="854" type="qcurve" smooth="yes"/>
      <point x="440" y="854"/>
      <point x="273" y="759"/>
      <point x="226" y="684" type="qcurve"/>
      <point x="140" y="720" type="line"/>
      <point x="214" y="1456" type="line"/>
      <point x="940" y="1456" type="line"/>
      <point x="940" y="1288" type="line"/>
      <point x="275" y="1288" type="line"/>
      <point x="211" y="751" type="line"/>
      <point x="261" y="806"/>
      <point x="441" y="904"/>
      <point x="560" y="904" type="qcurve" smooth="yes"/>
      <point x="750" y="904"/>
      <point x="1016" y="672"/>
      <point x="1016" y="465" type="qcurve" smooth="yes"/>
      <point x="1016" y="235"/>
      <point x="740" y="-30"/>
      <point x="530" y="-30" type="qcurve" smooth="yes"/>
      <point x="320" y="-30"/>
      <point x="60" y="195"/>
    </contour>
  </outline>
</glyph>
<glyph name="four.prop" format="2">
  <advance width="1011"/>
  <outline>
    <contour>
      <point x="627" y="0" type="line"/>
      <point x="627" y="468" type="line"/>
      <point x="630" y="478" type="line"/>
      <point x="630" y="1352" type="line"/>
      <point x="618" y="1352" type="line"/>
      <point x="67" y="498" type="line"/>
      <point x="681" y="498" type="line"/>
      <point x="758" y="498" type="line"/>
      <point x="1006" y="498" type="line"/>
      <point x="1006" y="346" type="line"/>
      <point x="-14" y="346" type="line"/>
      <point x="-14" y="468" type="line"/>
      <point x="638" y="1456" type="line"/>
      <point x="807" y="1456" type="line"/>
      <point x="807" y="0" type="line"/>
    </contour>
  </outline>
</glyph>
<glyph name="ghe.bgr" format="2">
  <advance width="1010"/>
  <outline>
    <contour>
      <point x="930" y="310" type="line"/>
      <point x="930" y="305" type="line" smooth="yes"/>
      <point x="930" y="153"/>
      <point x="710" y="-30"/>
      <point x="500" y="-30" type="qcurve" smooth="yes"/>
      <point x="290" y="-30"/>
      <point x="80" y="150"/>
      <point x="80" y="290" type="qcurve" smooth="yes"/>
      <point x="80" y="430"/>
      <point x="265" y="580"/>
      <point x="435" y="620" type="qcurve" smooth="yes"/>
      <point x="605" y="660"/>
      <point x="781" y="747"/>
      <point x="781" y="838" type="qcurve" smooth="yes"/>
      <point x="781" y="940"/>
      <point x="640" y="1030"/>
      <point x="530" y="1030" type="qcurve" smooth="yes"/>
      <point x="420" y="1030"/>
      <point x="295" y="923"/>
      <point x="295" y="828" type="qcurve" smooth="yes"/>
      <point x="295" y="760" type="line"/>
      <point x="110" y="760" type="line"/>
      <point x="110" y="765" type="line" smooth="yes"/>
      <point x="110" y="911"/>
      <point x="330" y="1082"/>
      <point x="510" y="1082" type="qcurve" smooth="yes"/>
      <point x="690" y="1082"/>
      <point x="905" y="910"/>
      <point x="905" y="780" type="qcurve" smooth="yes"/>
      <point x="905" y="650"/>
      <point x="705" y="505"/>
      <point x="535" y="465" type="qcurve" smooth="yes"/>
      <point x="335" y="418"/>
      <point x="204" y="324"/>
      <point x="203" y="231" type="qcurve" smooth="yes"/>
      <point x="202" y="133"/>
      <point x="343" y="22"/>
      <point x="467" y="22" type="qcurve" smooth="yes"/>
      <point x="604" y="22"/>
      <point x="744" y="146"/>
      <point x="744" y="244" type="qcurve" smooth="yes"/>
      <point x="744" y="310" type="line"/>
    </contour>
  </outline>
</glyph>
<glyph name="gravecomb.case" format="2">
  <advance width="1024"/>
  <outline>
    <contour>
      <point x="468" y="1599" type="line"/>
      <point x="231" y="1875" type="line"/>
      <point x="388" y="1973" type="line"/>
      <point x="499" y="1620" type="line"/>
    </contour>
  </outline>
</glyph>
<glyph name="hookabovecomb.case" format="2">
  <advance width="1024"/>
  <anchor x="512" y="1456" name="_top"/>
  <anchor x="512" y="2072" name="top"/>
  <outline>
    <contour>
      <point x="398" y="1600" type="line"/>
      <point x="398" y="1639" type="line" smooth="yes"/>
      <point x="398" y="1691"/>
      <point x="456" y="1762"/>
      <point x="510" y="1771" type="qcurve" smooth="yes"/>
      <point x="559" y="1779"/>
      <point x="615.0" y="1839"/>
      <point x="615.0" y="1897" type="qcurve" smooth="yes"/>
      <point x="615" y="1949"/>
      <point x="538.0" y="2011"/>
      <point x="476" y="2011.0" type="qcurve" smooth="yes"/>
      <point x="420.0" y="2011"/>
      <point x="302.0" y="1970"/>
      <point x="279.0" y="1958" type="qcurve"/>
      <point x="252" y="2012" type="line"/>
      <point x="287" y="2031"/>
      <point x="441" y="2072"/>
      <point x="523" y="2072" type="qcurve" smooth="yes"/>
      <point x="643" y="2072"/>
      <point x="768" y="1958"/>
      <point x="768" y="1862" type="qcurve" smooth="yes"/>
      <point x="768" y="1761"/>
      <point x="639" y="1642"/>
      <point x="451" y="1631" type="qcurve"/>
      <point x="451" y="1600" type="line"/>
    </contour>
  </outline>
</glyph>
<glyph name="hookabovecombstack.case" format="2">
  <advance width="1024"/>
  <anchor x="512" y="1536" name="_top"/>
  <anchor x="512" y="1968" name="top"/>
  <outline>
    <contour>
      <point x="390" y="1554" type="line"/>
      <point x="390" y="1601" type="line" smooth="yes"/>
      <point x="390" y="1646"/>
      <point x="438" y="1691"/>
      <point x="479" y="1707" type="qcurve" smooth="yes"/>
      <point x="519" y="1723"/>
      <point x="555" y="1766"/>
      <point x="555.0" y="1811" type="qcurve" smooth="yes"/>
      <point x="555.0" y="1860"/>
      <point x="492" y="1915"/>
      <point x="434" y="1915" type="qcurve" smooth="yes"/>
      <point x="378" y="1915"/>
      <point x="282" y="1879"/>
      <point x="273" y="1872" type="qcurve"/>
      <point x="252" y="1916" type="line"/>
      <point x="283" y="1933"/>
      <point x="419" y="1968"/>
      <point x="493" y="1968" type="qcurve" smooth="yes"/>
      <point x="599" y="1968"/>
      <point x="709" y="1869"/>
      <point x="709" y="1785" type="qcurve" smooth="yes"/>
      <point x="709" y="1698"/>
      <point x="609" y="1609"/>
      <point x="433" y="1597" type="qcurve"/>
      <point x="433" y="1554" type="line"/>
    </contour>
  </outline>
</glyph>
<glyph name="horizontalbarlc" format="2">
  <advance width="636"/>
  <outline>
    <contour>
      <point x="311" y="701" type="line"/>
      <point x="29" y="701" type="line"/>
      <point x="40" y="757" type="line"/>
      <point x="351" y="757" type="line"/>
      <point x="636" y="757" type="line"/>
      <point x="636" y="701" type="line"/>
    </contour>
  </outline>
</glyph>
<glyph name="horncomb.case" format="2">
  <advance width="1024"/>
  <outline>
    <contour>
      <point x="382" y="1456" type="line"/>
      <point x="466" y="1456" type="line" smooth="yes"/>
      <point x="535.0" y="1456.0"/>
      <point x="586" y="1490"/>
      <point x="586" y="1542" type="qcurve" smooth="yes"/>
      <point x="586" y="1588"/>
      <point x="573" y="1658"/>
      <point x="563" y="1694" type="qcurve"/>
      <point x="709" y="1694" type="line"/>
      <point x="729" y="1661"/>
      <point x="763" y="1565"/>
      <point x="763.0" y="1519" type="qcurve" smooth="yes"/>
      <point x="763.0" y="1461.0"/>
      <point x="647" y="1404.0"/>
      <point x="558" y="1404.0" type="qcurve" smooth="yes"/>
      <point x="503" y="1404"/>
      <point x="421" y="1411"/>
      <point x="382" y="1416" type="qcurve"/>
    </contour>
  </outline>
</glyph>
<glyph name="hryvnia.rvrn" format="2">
  <advance width="1024"/>
  <outline>
    <contour>
      <point x="78" y="334" type="qcurve" smooth="yes"/>
      <point x="78" y="458"/>
      <point x="222" y="655"/>
      <point x="382" y="752" type="qcurve" smooth="yes"/>
      <point x="560" y="859" type="line" smooth="yes"/>
      <point x="664" y="922"/>
      <point x="776.0" y="1082"/>
      <point x="776.0" y="1167" type="qcurve" smooth="yes"/>
      <point x="776" y="1291"/>
      <point x="652" y="1436"/>
      <point x="536" y="1436" type="qcurve" smooth="yes"/>
      <point x="453" y="1436"/>
      <point x="333" y="1313"/>
      <point x="282" y="1175" type="qcurve" smooth="yes"/>
      <point x="272" y="1146" type="line"/>
      <point x="103" y="1208" type="line"/>
      <point x="113" y="1236" type="line" smooth="yes"/>
      <point x="157" y="1356"/>
      <point x="377" y="1486"/>
      <point x="539" y="1486" type="qcurve" smooth="yes"/>
      <point x="737" y="1486"/>
      <point x="949" y="1305"/>
      <point x="949.0" y="1162.0" type="qcurve" smooth="yes"/>
      <point x="949.0" y="1064.0"/>
      <point x="787" y="862"/>
      <point x="637" y="772" type="qcurve" smooth="yes"/>
      <point x="441" y="654" type="line" smooth="yes"/>
      <point x="341" y="594"/>
      <point x="252" y="449"/>
      <point x="252" y="334" type="qcurve" smooth="yes"/>
      <point x="252" y="183"/>
      <point x="392" y="20"/>
      <point x="523" y="20" type="qcurve" smooth="yes"/>
      <point x="628" y="20"/>
      <point x="760" y="138"/>
      <point x="803" y="269" type="qcurve" smooth="yes"/>
      <point x="816" y="309" type="line"/>
      <point x="987" y="253" type="line"/>
      <point x="974" y="214" type="line" smooth="yes"/>
      <point x="935" y="96"/>
      <point x="701" y="-30"/>
      <point x="523" y="-30" type="qcurve" smooth="yes"/>
      <point x="309" y="-30"/>
      <point x="78" y="159"/>
    </contour>
    <contour>
      <point x="-10" y="735" type="line"/>
      <point x="-10" y="780" type="line"/>
      <point x="1033" y="780" type="line"/>
      <point x="1033" y="735" type="line"/>
    </contour>
  </outline>
</glyph>
<glyph name="naira.rvrn" format="2">
  <advance width="1024"/>
  <outline>
    <contour>
      <point x="856" y="1456" type="line"/>
      <point x="856" y="0" type="line"/>
      <point x="725" y="0" type="line"/>
      <point x="254" y="1142" type="line"/>
      <point x="195" y="1293" type="line"/>
      <point x="183" y="1293" type="line"/>
      <point x="183" y="1125" type="line"/>
      <point x="183" y="0" type="line"/>
      <point x="133" y="0" type="line"/>
      <point x="133" y="1456" type="line"/>
      <point x="269" y="1456" type="line"/>
      <point x="723" y="347" type="line"/>
      <point x="794" y="139" type="line"/>
      <point x="808" y="142" type="line"/>
      <point x="806" y="351" type="line"/>
      <point x="806" y="1456" type="line"/>
    </contour>
    <contour>
      <point x="818" y="937" type="line"/>
      <point x="827" y="937" type="line"/>
      <point x="827" y="937" type="line"/>
      <point x="1019" y="939" type="line"/>
      <point x="1019" y="902" type="line"/>
      <point x="827" y="900" type="line"/>
      <point x="827" y="901" type="line"/>
      <point x="818" y="901" type="line"/>
    </contour>
    <contour>
      <point x="-21" y="900" type="line"/>
      <point x="-21" y="937" type="line"/>
      <point x="161" y="937" type="line"/>
      <point x="161" y="937" type="line"/>
      <point x="171" y="937" type="line"/>
      <point x="171" y="901" type="line"/>
      <point x="161" y="901" type="line"/>
      <point x="161" y="900" type="line"/>
    </contour>
    <contour>
      <point x="818" y="627" type="line"/>
      <point x="827" y="627" type="line"/>
      <point x="827" y="627" type="line"/>
      <point x="1019" y="629" type="line"/>
      <point x="1019" y="592" type="line"/>
      <point x="827" y="590" type="line"/>
      <point x="827" y="590" type="line"/>
      <point x="818" y="590" type="line"/>
    </contour>
    <contour>
      <point x="-21" y="590" type="line"/>
      <point x="-21" y="627" type="line"/>
      <point x="161" y="627" type="line"/>
      <point x="161" y="627" type="line"/>
      <point x="171" y="627" type="line"/>
      <point x="171" y="590" type="line"/>
      <point x="161" y="590" type="line"/>
      <point x="161" y="590" type="line"/>
    </contour>
  </outline>
</glyph>
<glyph name="one.prop" format="2">
  <advance width="736"/>
  <outline>
    <contour>
      <point x="390" y="0" type="line"/>
      <point x="390" y="1375" type="line"/>
      <point x="22" y="1270" type="line"/>
      <point x="22" y="1325" type="line"/>
      <point x="552" y="1476" type="line"/>
      <point x="582" y="1476" type="line"/>
      <point x="582" y="0" type="line"/>
    </contour>
  </outline>
</glyph>
<glyph name="six.prop" format="2">
  <advance width="1136"/>
  <outline>
    <contour>
      <point x="80" y="614" type="qcurve" smooth="yes"/>
      <point x="80" y="644" type="line" smooth="yes"/>
      <point x="80" y="1030"/>
      <point x="492" y="1486"/>
      <point x="872" y="1486" type="qcurve" smooth="yes"/>
      <point x="892" y="1486" type="line"/>
      <point x="892" y="1436" type="line"/>
      <point x="872" y="1436" type="line" smooth="yes"/>
      <point x="592" y="1436"/>
      <point x="268" y="1020"/>
      <point x="268" y="654" type="qcurve" smooth="yes"/>
      <point x="268" y="604" type="line" smooth="yes"/>
      <point x="268" y="285"/>
      <point x="452" y="20"/>
      <point x="592" y="20" type="qcurve" smooth="yes"/>
      <point x="732" y="20"/>
      <point x="886" y="253"/>
      <point x="886" y="464" type="qcurve" smooth="yes"/>
      <point x="886" y="657"/>
      <point x="732" y="866"/>
      <point x="592" y="866" type="qcurve" smooth="yes"/>
      <point x="462" y="866"/>
      <point x="262" y="630"/>
      <point x="262" y="464" type="qcurve"/>
      <point x="192" y="464" type="line"/>
      <point x="192" y="660"/>
      <point x="432" y="916"/>
      <point x="632" y="916" type="qcurve" smooth="yes"/>
      <point x="832" y="916"/>
      <point x="1076" y="666"/>
      <point x="1076" y="464" type="qcurve" smooth="yes"/>
      <point x="1076" y="244"/>
      <point x="802" y="-30"/>
      <point x="592" y="-30" type="qcurve" smooth="yes"/>
      <point x="382" y="-30"/>
      <point x="80" y="274"/>
    </contour>
  </outline>
</glyph>
<glyph name="soft.bgr" format="2">
  <advance width="1088"/>
  <outline>
    <contour>
      <point x="148" y="351" type="qcurve" smooth="yes"/>
      <point x="148" y="1052" type="line"/>
      <point x="334" y="1052" type="line"/>
      <point x="334" y="668" type="line"/>
      <point x="606" y="668" type="line" smooth="yes"/>
      <point x="798.0" y="668.0"/>
      <point x="1028.0" y="494.0"/>
      <point x="1028.0" y="324" type="qcurve" smooth="yes"/>
      <point x="1028" y="177"/>
      <point x="799" y="-30"/>
      <point x="586" y="-30" type="qcurve" smooth="yes"/>
      <point x="375" y="-30"/>
      <point x="148" y="177"/>
    </contour>
    <contour>
      <point x="334" y="351" type="line" smooth="yes"/>
      <point x="334.0" y="152.0"/>
      <point x="446" y="23"/>
      <point x="586" y="23" type="qcurve" smooth="yes"/>
      <point x="728" y="23"/>
      <point x="842" y="152"/>
      <point x="842.0" y="320" type="qcurve" smooth="yes"/>
      <point x="842" y="487"/>
      <point x="737" y="613"/>
      <point x="606" y="613" type="qcurve" smooth="yes"/>
      <point x="334" y="613" type="line"/>
    </contour>
  </outline>
</glyph>
<glyph name="three.prop" format="2">
  <advance width="1051"/>
  <outline>
    <contour>
      <point x="25" y="380" type="qcurve" smooth="yes"/>
      <point x="25" y="390" type="line"/>
      <point x="211" y="390" type="line"/>
      <point x="211" y="380" type="line" smooth="yes"/>
      <point x="211" y="210"/>
      <point x="371" y="20"/>
      <point x="503" y="20" type="qcurve" smooth="yes"/>
      <point x="635" y="20"/>
      <point x="793" y="210"/>
      <point x="793" y="400" type="qcurve" smooth="yes"/>
      <point x="793" y="560"/>
      <point x="615" y="732"/>
      <point x="465" y="732" type="qcurve" smooth="yes"/>
      <point x="350" y="732" type="line"/>
      <point x="350" y="786" type="line"/>
      <point x="455" y="786" type="line" smooth="yes"/>
      <point x="593" y="786"/>
      <point x="743" y="960"/>
      <point x="743" y="1100" type="qcurve" smooth="yes"/>
      <point x="743" y="1260"/>
      <point x="613" y="1436"/>
      <point x="503" y="1436" type="qcurve" smooth="yes"/>
      <point x="393" y="1436"/>
      <point x="251" y="1260"/>
      <point x="251" y="1100" type="qcurve" smooth="yes"/>
      <point x="251" y="1090" type="line"/>
      <point x="65" y="1090" type="line"/>
      <point x="65" y="1100" type="line" smooth="yes"/>
      <point x="65" y="1270"/>
      <point x="313" y="1486"/>
      <point x="503" y="1486" type="qcurve" smooth="yes"/>
      <point x="693" y="1486"/>
      <point x="935" y="1270"/>
      <point x="935" y="1100" type="qcurve" smooth="yes"/>
      <point x="935" y="990"/>
      <point x="825" y="814"/>
      <point x="709" y="762" type="qcurve"/>
      <point x="709" y="758" type="line"/>
      <point x="835" y="728"/>
      <point x="987" y="540"/>
      <point x="987" y="400" type="qcurve" smooth="yes"/>
      <point x="987" y="200"/>
      <point x="713" y="-30"/>
      <point x="503" y="-30" type="qcurve" smooth="yes"/>
      <point x="293" y="-30"/>
      <point x="25" y="200"/>
    </contour>
  </outline>
</glyph>
<glyph name="tildecomb.case" format="2">
  <advance width="1024"/>
  <outline>
    <contour>
      <point x="105" y="1710" type="line"/>
      <point x="142" y="1779"/>
      <point x="293" y="1892"/>
      <point x="370" y="1892" type="qcurve" smooth="yes"/>
      <point x="416" y="1892"/>
      <point x="492" y="1836"/>
      <point x="542" y="1788" type="qcurve" smooth="yes"/>
      <point x="588" y="1744"/>
      <point x="669" y="1670"/>
      <point x="716" y="1670" type="qcurve" smooth="yes"/>
      <point x="762" y="1670"/>
      <point x="841" y="1780"/>
      <point x="871" y="1857" type="qcurve"/>
      <point x="939" y="1771" type="line"/>
      <point x="897" y="1689"/>
      <point x="758" y="1600"/>
      <point x="695" y="1600" type="qcurve" smooth="yes"/>
      <point x="642" y="1600"/>
      <point x="560" y="1676"/>
      <point x="507" y="1726" type="qcurve" smooth="yes"/>
      <point x="450" y="1779"/>
      <point x="372" y="1825"/>
      <point x="339" y="1825" type="qcurve" smooth="yes"/>
      <point x="286" y="1825"/>
      <point x="203" y="1693"/>
      <point x="180" y="1625" type="qcurve"/>
    </contour>
  </outline>
</glyph>
<glyph name="two.prop" format="2">
  <advance width="988"/>
  <outline>
    <contour>
      <point x="26" y="0" type="line"/>
      <point x="26" y="139" type="line"/>
      <point x="547" y="696" type="line" smooth="yes"/>
      <point x="637" y="792"/>
      <point x="756" y="984"/>
      <point x="756.0" y="1116" type="qcurve" smooth="yes"/>
      <point x="756" y="1256"/>
      <point x="621" y="1436"/>
      <point x="501" y="1436" type="qcurve" smooth="yes"/>
      <point x="381" y="1436"/>
      <point x="216" y="1220"/>
      <point x="216" y="1030" type="qcurve" smooth="yes"/>
      <point x="216" y="1020" type="line"/>
      <point x="26" y="1020" type="line"/>
      <point x="26" y="1030" type="line" smooth="yes"/>
      <point x="26" y="1230"/>
      <point x="301" y="1486"/>
      <point x="501" y="1486" type="qcurve" smooth="yes"/>
      <point x="701" y="1486"/>
      <point x="946" y="1250"/>
      <point x="946" y="1090" type="qcurve" smooth="yes"/>
      <point x="946" y="954"/>
      <point x="796" y="724"/>
      <point x="673" y="595" type="qcurve" smooth="yes"/>
      <point x="160" y="54" type="line"/>
      <point x="986" y="54" type="line"/>
      <point x="986" y="0" type="line"/>
    </contour>
  </outline>
</glyph>
<glyph name="uni20B2.rvrn" format="2">
  <advance width="1024"/>
  <outline>
    <contour>
      <point x="479" y="-190" type="line"/>
      <point x="479" y="17" type="line"/>
      <point x="497" y="31" type="line"/>
      <point x="497" y="36" type="line"/>
      <point x="627" y="36" type="line"/>
      <point x="627" y="30" type="line"/>
      <point x="649" y="20" type="line"/>
      <point x="649" y="-190" type="line"/>
    </contour>
    <contour>
      <point x="497" y="1418" type="line"/>
      <point x="497" y="1432" type="line"/>
      <point x="482" y="1442" type="line"/>
      <point x="482" y="1582" type="line"/>
      <point x="642" y="1582" type="line"/>
      <point x="642" y="1442" type="line"/>
      <point x="627" y="1429" type="line"/>
      <point x="627" y="1418" type="line"/>
    </contour>
    <contour>
      <point x="995" y="685" type="line"/>
      <point x="995" y="452" type="line" smooth="yes"/>
      <point x="995" y="232"/>
      <point x="775" y="-5"/>
      <point x="571" y="-5" type="qcurve" smooth="yes"/>
      <point x="341" y="-5"/>
      <point x="94" y="278"/>
      <point x="94" y="542" type="qcurve" smooth="yes"/>
      <point x="94" y="897" type="line" smooth="yes"/>
      <point x="94" y="1180"/>
      <point x="330" y="1485"/>
      <point x="549" y="1485" type="qcurve" smooth="yes"/>
      <point x="693" y="1485"/>
      <point x="909" y="1363"/>
      <point x="966" y="1250" type="qcurve"/>
      <point x="902" y="1211" type="line"/>
      <point x="845" y="1306"/>
      <point x="674" y="1409"/>
      <point x="572" y="1409" type="qcurve" smooth="yes"/>
      <point x="435" y="1409"/>
      <point x="288" y="1145"/>
      <point x="288" y="899" type="qcurve" smooth="yes"/>
      <point x="288" y="544" type="line" smooth="yes"/>
      <point x="288" y="302"/>
      <point x="442" y="42"/>
      <point x="585" y="42" type="qcurve" smooth="yes"/>
      <point x="700" y="42"/>
      <point x="823" y="193"/>
      <point x="823" y="333" type="qcurve" smooth="yes"/>
      <point x="823" y="609" type="line"/>
      <point x="696" y="609" type="line"/>
      <point x="696" y="685" type="line"/>
    </contour>
  </outline>
</glyph>
<glyph name="uni20B5.rvrn" format="2">
  <advance width="1024"/>
  <guideline x="0" y="-125" angle="0" identifier="1Am3eQoiKr"/>
  <outline>
    <contour>
      <point x="473" y="-190" type="line"/>
      <point x="473" y="-3" type="line"/>
      <point x="486" y="11" type="line"/>
      <point x="486" y="17" type="line"/>
      <point x="631" y="17" type="line"/>
      <point x="631" y="10" type="line"/>
      <point x="643" y="0" type="line"/>
      <point x="643" y="-190" type="line"/>
    </contour>
    <contour>
      <point x="486" y="1434" type="line"/>
      <point x="486" y="1442" type="line"/>
      <point x="476" y="1452" type="line"/>
      <point x="476" y="1582" type="line"/>
      <point x="636" y="1582" type="line"/>
      <point x="636" y="1452" type="line"/>
      <point x="631" y="1439" type="line"/>
      <point x="631" y="1434" type="line"/>
    </contour>
    <contour>
      <point x="821" y="436" type="qcurve" smooth="yes"/>
      <point x="821" y="460" type="line"/>
      <point x="1010" y="458" type="line"/>
      <point x="1009" y="436" type="line" smooth="yes"/>
      <point x="991" y="235"/>
      <point x="741" y="-25"/>
      <point x="565" y="-25" type="qcurve" smooth="yes"/>
      <point x="363" y="-25"/>
      <point x="102" y="249"/>
      <point x="102" y="462" type="qcurve" smooth="yes"/>
      <point x="102" y="1002" type="line" smooth="yes"/>
      <point x="102" y="1213"/>
      <point x="362" y="1485"/>
      <point x="563" y="1485" type="qcurve" smooth="yes"/>
      <point x="749" y="1485"/>
      <point x="1000" y="1229"/>
      <point x="1009" y="1030" type="qcurve" smooth="yes"/>
      <point x="1010" y="1008" type="line"/>
      <point x="816" y="1006" type="line"/>
      <point x="816" y="1130" type="line" smooth="yes"/>
      <point x="816" y="1260"/>
      <point x="675" y="1429"/>
      <point x="566" y="1429" type="qcurve" smooth="yes"/>
      <point x="448" y="1429"/>
      <point x="296" y="1189"/>
      <point x="296" y="1004" type="qcurve" smooth="yes"/>
      <point x="296" y="464" type="line" smooth="yes"/>
      <point x="296" y="271"/>
      <point x="456" y="22"/>
      <point x="579" y="22" type="qcurve" smooth="yes"/>
      <point x="685" y="22"/>
      <point x="821" y="255"/>
    </contour>
  </outline>
</glyph>
<glyph name="ve.bgr" format="2">
  <advance width="1074"/>
  <outline>
    <contour>
      <point x="125" y="400" type="qcurve" smooth="yes"/>
      <point x="125" y="1150" type="line" smooth="yes"/>
      <point x="125" y="1338"/>
      <point x="351" y="1556"/>
      <point x="543" y="1556" type="qcurve" smooth="yes"/>
      <point x="730" y="1556"/>
      <point x="947" y="1344"/>
      <point x="947" y="1160" type="qcurve" smooth="yes"/>
      <point x="947" y="1054"/>
      <point x="843" y="855"/>
      <point x="729" y="806" type="qcurve"/>
      <point x="729" y="802" type="line"/>
      <point x="848" y="776"/>
      <point x="999" y="588"/>
      <point x="999" y="421" type="qcurve" smooth="yes"/>
      <point x="999" y="201"/>
      <point x="762" y="-30"/>
      <point x="562" y="-30" type="qcurve" smooth="yes"/>
      <point x="349" y="-30"/>
      <point x="125" y="201"/>
    </contour>
    <contour>
      <point x="543" y="1494" type="qcurve" smooth="yes"/>
      <point x="431" y="1494"/>
      <point x="311" y="1363"/>
      <point x="311" y="1150" type="qcurve" smooth="yes"/>
      <point x="311" y="825" type="line"/>
      <point x="515" y="825" type="line" smooth="yes"/>
      <point x="630" y="825"/>
      <point x="763" y="976"/>
      <point x="763" y="1150" type="qcurve" smooth="yes"/>
      <point x="763" y="1368"/>
      <point x="654" y="1494"/>
    </contour>
    <contour>
      <point x="311" y="400" type="line" smooth="yes"/>
      <point x="311.0" y="157.0"/>
      <point x="438" y="22"/>
      <point x="562" y="22" type="qcurve" smooth="yes"/>
      <point x="686" y="22"/>
      <point x="813" y="157"/>
      <point x="813" y="420" type="qcurve"/>
      <point x="813" y="612"/>
      <point x="664" y="768"/>
      <point x="524" y="768" type="qcurve" smooth="yes"/>
      <point x="311" y="768" type="line"/>
    </contour>
  </outline>
</glyph>
<glyph name="yu.bgr" format="2">
  <advance width="1615"/>
  <outline>
    <contour>
      <point x="558" y="510" type="qcurve" smooth="yes"/>
      <point x="558" y="542" type="line" smooth="yes"/>
      <point x="558" y="780"/>
      <point x="822" y="1082"/>
      <point x="1044" y="1082" type="qcurve" smooth="yes"/>
      <point x="1266" y="1082"/>
      <point x="1530" y="780"/>
      <point x="1530" y="542" type="qcurve" smooth="yes"/>
      <point x="1530" y="510" type="line" smooth="yes"/>
      <point x="1530" y="272"/>
      <point x="1266" y="-30"/>
      <point x="1044" y="-30" type="qcurve" smooth="yes"/>
      <point x="822" y="-30"/>
      <point x="558" y="272"/>
    </contour>
    <contour>
      <point x="748.0" y="548" type="qcurve" smooth="yes"/>
      <point x="748.0" y="508" type="line" smooth="yes"/>
      <point x="748.0" y="304"/>
      <point x="896.0" y="22"/>
      <point x="1044.0" y="22" type="qcurve" smooth="yes"/>
      <point x="1192.0" y="22"/>
      <point x="1340.0" y="304"/>
      <point x="1340.0" y="508" type="qcurve" smooth="yes"/>
      <point x="1340.0" y="548" type="line" smooth="yes"/>
      <point x="1340.0" y="752"/>
      <point x="1192.0" y="1034"/>
      <point x="1044.0" y="1034" type="qcurve" smooth="yes"/>
      <point x="896.0" y="1034"/>
      <point x="748.0" y="752"/>
    </contour>
    <contour>
      <point x="156" y="1536" type="line"/>
      <point x="342" y="1536" type="line"/>
      <point x="342" y="565" type="line"/>
      <point x="658" y="565" type="line"/>
      <point x="658" y="510" type="line"/>
      <point x="342" y="510" type="line"/>
      <point x="342" y="0" type="line"/>
      <point x="156" y="0" type="line"/>
    </contour>
  </outline>
</glyph>
<glyph name="zerosuperior" format="2">
  <advance width="787"/>
  <outline>
    <contour>
      <point x="67" y="1036.0" type="qcurve" smooth="yes"/>
      <point x="67" y="1140.0" type="line" smooth="yes"/>
      <point x="67" y="1300.0"/>
      <point x="235" y="1496.0"/>
      <point x="394" y="1496.0" type="qcurve" smooth="yes"/>
      <point x="552" y="1496.0"/>
      <point x="720" y="1300.0"/>
      <point x="720" y="1140.0" type="qcurve" smooth="yes"/>
      <point x="720" y="1036.0" type="line" smooth="yes"/>
      <point x="720" y="876.0"/>
      <point x="552" y="680.0"/>
      <point x="394" y="680.0" type="qcurve" smooth="yes"/>
      <point x="235" y="680.0"/>
      <point x="67" y="876.0"/>
    </contour>
    <contour>
      <point x="231" y="1036.0" type="line" smooth="yes"/>
      <point x="231" y="901.0"/>
      <point x="302" y="728.0"/>
      <point x="394" y="728.0" type="qcurve" smooth="yes"/>
      <point x="485" y="728.0"/>
      <point x="556" y="901.0"/>
      <point x="556" y="1036.0" type="qcurve" smooth="yes"/>
      <point x="556" y="1140.0" type="line" smooth="yes"/>
      <point x="556" y="1275.0"/>
      <point x="485" y="1448.0"/>
      <point x="394" y="1448.0" type="qcurve" smooth="yes"/>
      <point x="302" y="1448.0"/>
      <point x="231" y="1275.0"/>
      <point x="231" y="1140.0" type="qcurve" smooth="yes"/>
    </contour>
  </outline>
</glyph>
